<svg width="22" height="22" viewBox="0 0 22 22" fill="none" xmlns="http://www.w3.org/2000/svg">
<circle cx="11" cy="11" r="10.5" fill="white" stroke="#A0A0A1"/>
<path d="M16.0234 8.58241C15.9745 8.82971 15.8197 9.00828 15.6467 9.18098C13.8405 10.9838 12.0358 12.7882 10.2327 14.5941C9.98927 14.8387 9.70577 14.9441 9.37284 14.8272C9.24803 14.7817 9.13443 14.7099 9.03968 14.6168C8.11699 13.7036 7.19797 12.7859 6.28262 11.8637C5.91228 11.4919 5.94359 10.9586 6.34598 10.6435C6.66006 10.3989 7.10257 10.4429 7.41544 10.7551C8.12286 11.4607 8.82939 12.1674 9.53502 12.8752C9.56218 12.9026 9.58028 12.939 9.61844 12.9948C9.64424 12.9552 9.67233 12.9173 9.70259 12.881C11.3431 11.2395 12.984 9.59813 14.6252 7.95693C14.8632 7.71892 15.1389 7.61887 15.4687 7.7221C15.7563 7.81236 15.9283 8.01563 16.0036 8.30404C16.0092 8.32556 16.0168 8.3466 16.0234 8.36788V8.58241Z" fill="black"/>
</svg>
