<svg width="25" height="42" viewBox="0 0 25 42" fill="none" xmlns="http://www.w3.org/2000/svg">
<path d="M22.814 36.5246C24.1912 34.4849 24.9254 32.0792 24.9219 29.6182C24.9281 27.4502 24.7871 25.2844 24.4999 23.1356C24.5077 23.1041 24.5029 23.0709 24.4867 23.0429C23.947 19.06 22.7608 15.192 20.9748 11.5914C20.9704 11.5791 20.964 11.5676 20.9559 11.5574C19.2529 8.15147 16.759 4.41254 12.6814 0.0510887L12.6473 0.0227059C12.6268 0.012878 12.6052 0.00526675 12.583 0H12.5206C12.4996 0.00437103 12.4792 0.011364 12.46 0.020814L12.4241 0.0491969C9.18088 3.51944 6.27829 7.28486 4.14203 11.5687C4.14203 11.5687 4.14203 11.582 4.13257 11.5877C1.30945 17.2642 0.183609 23.1488 0.183609 29.6163C0.179721 32.0777 0.913242 34.4839 2.2896 36.5246C2.29725 36.5514 2.31396 36.5748 2.3369 36.5908C3.51226 38.3178 5.10321 39.7213 6.96326 40.6722C9.64399 42.0251 12.725 42.3576 15.6327 41.6078C18.5403 40.858 21.0764 39.077 22.7686 36.5965C22.7923 36.5792 22.8085 36.5535 22.814 36.5246ZM17.2434 6.16091C18.4161 7.78941 19.4685 9.50133 20.392 11.283C19.5765 10.9424 19.094 10.7456 15.8224 9.38138C16.3598 8.16472 16.7174 7.35108 17.2434 6.16091ZM20.5926 11.7825L19.6824 19.0769L15.8829 16.8592C15.8205 13.143 15.8262 13.4533 15.7656 9.76739L20.5926 11.7825ZM22.409 36.2729L17.0069 36.3808L18.0798 32.4072L21.2302 29.5841C21.6389 31.9058 22.0382 34.1707 22.409 36.2729ZM9.69366 9.97174L12.2954 12.9216L9.59527 16.4051L9.69366 9.97174ZM21.3456 28.8045C20.1138 26.6115 20.1536 26.6815 18.9142 24.4696L19.953 19.7278L24.0704 23.1696L21.3456 28.8045ZM18.8404 25.1129L21.111 29.1735L18.1498 31.8358L18.8404 25.1129ZM18.5206 24.5263C18.3068 26.6077 17.917 30.392 17.7335 32.1858L12.5414 35.1206L7.35115 32.1858L6.56779 24.5282L9.55931 17.0636L12.5452 13.2244L15.5329 17.0636L18.5206 24.5263ZM6.24423 25.1129L6.93487 31.8339L3.96416 29.1735L6.24423 25.1129ZM7.47226 32.6816L12.0551 35.2833L8.45996 36.3391L7.47226 32.6816ZM19.6238 19.4799L18.6644 23.8622L16.0797 17.4118L19.6238 19.4799ZM15.3948 9.97553L15.5007 16.4089C14.829 15.548 13.4629 13.7901 12.7911 12.9273L15.3948 9.97553ZM17.6143 32.6929L16.6304 36.341L13.0352 35.2852L17.6143 32.6929ZM12.5452 12.6359L9.72583 9.43815L12.5414 0.790928L15.3588 9.43815L12.5452 12.6359ZM9.0087 17.4099L6.42399 23.8603L5.46276 19.4799L9.0087 17.4099ZM5.13163 19.7278C5.43816 21.128 5.79579 22.7552 6.17044 24.4714L3.73899 28.8064L1.01427 23.1602L5.13163 19.7278ZM3.85253 29.5841L7.00488 32.4072L8.07774 36.3808L2.6756 36.2729C4.19312 27.6579 3.52708 31.4346 3.85253 29.5841ZM21.5878 29.4346L24.5434 29.7866C24.5165 31.9643 23.8935 34.0931 22.7421 35.9418C22.6248 35.2776 22.4488 34.3183 21.5878 29.4346ZM21.6446 29.0562L24.199 23.7676C24.4245 25.6381 24.5395 27.5203 24.5434 29.4043L21.6446 29.0562ZM20.1801 19.4212L23.0505 18.0154C23.4772 19.5354 23.809 21.0805 24.0439 22.6417C23.0486 21.8186 22.2312 21.1393 20.1801 19.425V19.4212ZM4.4864 11.7825L9.31333 9.76739C9.25468 13.4458 9.25846 13.143 9.19791 16.8592L5.39843 19.0769C5.20543 17.5007 4.62264 12.8441 4.4864 11.7825ZM2.02658 18.0267L4.897 19.4326L1.0313 22.6493C1.26658 21.0867 1.59899 19.5404 2.02658 18.0191V18.0267ZM0.891279 23.7713C1.6349 25.3059 2.70587 27.5254 3.44571 29.06L0.546903 29.4043C0.551028 27.5215 0.66602 25.6406 0.891279 23.7713ZM3.50058 29.4346C2.66046 34.2086 2.44097 35.4158 2.34825 35.9418C1.19745 34.0929 0.575114 31.9642 0.548797 29.7866L3.50058 29.4346ZM8.64918 36.6778L12.5395 35.5425L16.4317 36.6778L12.5395 41.5067L8.64918 36.6778ZM16.6852 36.9768L17.8016 40.4016C16.2863 41.1476 14.6288 41.5605 12.9406 41.6126C18.5528 34.6513 15.2226 38.8046 16.6871 36.9768H16.6852ZM20.0628 19.0598C20.6096 14.6908 20.4279 16.144 20.9048 12.3218C21.7259 14.0404 22.4074 15.8223 22.9426 17.6502L20.0628 19.0598ZM15.5972 8.95375L12.9898 0.936625C14.4097 2.48277 15.7438 4.10553 16.9861 5.79761L15.5972 8.95375ZM12.0948 0.936625L9.48552 8.95375L8.09667 5.80518C9.33887 4.11006 10.6736 2.48474 12.0948 0.936625ZM7.84122 6.16091L9.26035 9.3776L4.68887 11.2849C5.61314 9.50223 6.66674 7.78965 7.84122 6.16091ZM4.17419 12.3275C4.30097 13.3568 4.33503 13.5839 5.0181 19.0598L2.14011 17.6502C2.67357 15.824 3.35381 14.044 4.17419 12.3275ZM2.8194 36.6532L8.06828 36.7592L6.93298 40.2294C5.30734 39.3662 3.90037 38.143 2.8194 36.6532ZM7.27925 40.4016L8.39562 36.9768C8.8119 37.4953 9.24332 38.0156 12.1402 41.6126C10.4521 41.5605 8.79459 41.1476 7.27925 40.4016ZM18.146 40.2294L17.0107 36.7592L22.2577 36.6532C21.1774 38.1429 19.7711 39.3661 18.146 40.2294Z" fill="#1D1D1B"/>
</svg>
