<svg width="100" height="20" viewBox="0 0 100 20" fill="none" xmlns="http://www.w3.org/2000/svg">
<g clip-path="url(#clip0_338_2608)">
<mask id="mask0_338_2608" style="mask-type:luminance" maskUnits="userSpaceOnUse" x="0" y="0" width="100" height="20">
<path d="M100 0H0V20H100V0Z" fill="white"/>
</mask>
<g mask="url(#mask0_338_2608)">
<path fill-rule="evenodd" clip-rule="evenodd" d="M39.4595 15.6449C35.7641 18.4881 30.4065 20.0001 25.7927 20.0001C19.327 20.0001 13.5042 17.5083 9.09781 13.3604C8.75223 13.0344 9.06042 12.5896 9.47624 12.8418C14.2299 15.7258 20.1093 17.4628 26.1808 17.4628C30.2767 17.4628 34.7795 16.5763 38.9225 14.7442C39.5473 14.4684 40.0714 15.1736 39.4595 15.6449Z" fill="#F79C34"/>
<path fill-rule="evenodd" clip-rule="evenodd" d="M40.9976 13.8137C40.5246 13.1829 37.8733 13.5148 36.6819 13.6637C36.321 13.7091 36.2649 13.3802 36.5901 13.1422C38.7055 11.593 42.1721 12.0401 42.5749 12.5592C42.9805 13.0819 42.4678 16.7053 40.4861 18.4341C40.1807 18.6998 39.8907 18.5581 40.0261 18.2073C40.4725 17.0455 41.4707 14.4456 40.9976 13.8137Z" fill="#F79C34"/>
<path fill-rule="evenodd" clip-rule="evenodd" d="M36.7657 2.19941V0.694526C36.7669 0.465367 36.9323 0.312988 37.1317 0.313579L43.6025 0.312988C43.8093 0.312988 43.9759 0.469501 43.9759 0.692754V1.98325C43.9736 2.2 43.7985 2.48232 43.4887 2.93059L40.1365 7.92011C41.3806 7.88999 42.6967 8.0843 43.8274 8.74638C44.0824 8.89581 44.1509 9.11729 44.1708 9.33404V10.9399C44.1708 11.1614 43.9385 11.4171 43.6937 11.2843C41.7024 10.1963 39.0596 10.0776 36.8569 11.2972C36.632 11.4225 36.3969 11.1697 36.3969 10.9482V9.42146C36.3969 9.17753 36.4014 8.75938 36.6377 8.38729L40.5206 2.57918L37.1396 2.57859C36.9328 2.57859 36.7669 2.42503 36.7657 2.19941Z" fill="white"/>
<path fill-rule="evenodd" clip-rule="evenodd" d="M13.1621 11.6002H11.1934C11.0059 11.5878 10.8563 11.4413 10.841 11.2535L10.8427 0.719899C10.8427 0.50964 11.0127 0.341314 11.2228 0.341314L13.0561 0.340724C13.2476 0.350764 13.4017 0.501962 13.4136 0.694502V2.06945H13.451C13.9286 0.739389 14.8288 0.118652 16.0417 0.118652C17.2728 0.118652 18.0449 0.739389 18.5962 2.06945C19.0737 0.739389 20.1581 0.118652 21.3155 0.118652C22.1426 0.118652 23.0428 0.473612 23.594 1.27153C24.2189 2.15864 24.0909 3.44382 24.0909 4.57425L24.0886 11.2216C24.0886 11.4313 23.9192 11.6002 23.709 11.6002H21.7432C21.5449 11.5872 21.3897 11.4242 21.3897 11.2222L21.3891 5.63795C21.3891 5.19499 21.4259 4.087 21.3336 3.66589C21.1869 2.95597 20.7461 2.75634 20.1768 2.75634C19.6986 2.75634 19.2023 3.08886 19.0001 3.62041C18.7978 4.15314 18.8165 5.03907 18.8165 5.63795V11.2216C18.8165 11.4313 18.6466 11.6002 18.437 11.6002H16.4706C16.2728 11.5872 16.117 11.4242 16.117 11.2222L16.1148 5.63795C16.1148 4.46322 16.2989 2.73508 14.9024 2.73508C13.4872 2.73508 13.5428 4.41892 13.5428 5.63795L13.5416 11.2216C13.5416 11.4313 13.3717 11.6002 13.1621 11.6002Z" fill="white"/>
<path fill-rule="evenodd" clip-rule="evenodd" d="M49.5641 2.26908C48.1126 2.26908 48.0209 4.32974 48.0209 5.61551C48.0209 6.90128 48.0027 9.65 49.5465 9.65C51.0716 9.65 51.1452 7.43342 51.1452 6.0815C51.1452 5.19499 51.1079 4.1307 50.8507 3.28848C50.6303 2.55671 50.189 2.26908 49.5641 2.26908ZM49.5465 0.118652C52.4681 0.118652 54.0481 2.73508 54.0481 6.05965C54.0481 9.2726 52.3027 11.8223 49.5465 11.8223C46.6793 11.8223 45.1174 9.20645 45.1174 5.94861C45.1174 2.66775 46.6975 0.118652 49.5465 0.118652Z" fill="white"/>
<path fill-rule="evenodd" clip-rule="evenodd" d="M57.8376 11.6002H55.8757C55.6791 11.5872 55.5227 11.4242 55.5227 11.2222L55.5193 0.685052C55.5363 0.491921 55.6995 0.341314 55.8978 0.341314L57.7237 0.340724C57.8959 0.350173 58.0375 0.47184 58.0738 0.635441V2.24664H58.1106C58.6624 0.805538 59.4335 0.118652 60.7931 0.118652C61.6752 0.118652 62.5391 0.451169 63.0904 1.36013C63.6048 2.20234 63.6048 3.62041 63.6048 4.6404V11.2689C63.5833 11.4555 63.4224 11.6002 63.2275 11.6002H61.2543C61.0719 11.5884 60.9251 11.4484 60.9036 11.2689V5.54995C60.9036 4.39707 61.0328 2.71204 59.6725 2.71204C59.195 2.71204 58.7536 3.04456 58.5333 3.55426C58.2574 4.19744 58.2205 4.84003 58.2205 5.54995V11.2216C58.2171 11.4313 58.0472 11.6002 57.8376 11.6002Z" fill="white"/>
<path fill-rule="evenodd" clip-rule="evenodd" d="M33.5914 11.5741C33.4617 11.6958 33.2742 11.7041 33.1269 11.622C32.4731 11.0556 32.3559 10.7939 31.9984 10.2541C30.918 11.4017 30.1526 11.746 28.7528 11.746C27.0957 11.746 25.8063 10.6794 25.8063 8.54724C25.8063 6.88112 26.6725 5.74832 27.9058 5.19314C28.9737 4.70411 30.4654 4.61552 31.6075 4.48204V4.21567C31.6075 3.72605 31.6443 3.14961 31.3678 2.72732C31.1282 2.34933 30.6682 2.19399 30.2631 2.19399C29.5119 2.19399 28.8451 2.59502 28.6808 3.42602C28.6463 3.61088 28.5171 3.79456 28.3392 3.80401L26.4306 3.58844C26.2697 3.55005 26.0907 3.41539 26.1366 3.15906C26.5699 0.779472 28.6083 0.037659 30.4608 0.0175781H30.607C31.5554 0.029981 32.7666 0.301073 33.5042 1.03875C34.4622 1.97192 34.3693 3.21576 34.3693 4.57122V7.76822C34.3693 8.73033 34.7528 9.15203 35.1126 9.67C35.2389 9.85723 35.2667 10.0787 35.1063 10.2157C34.7041 10.5671 33.9897 11.2139 33.5971 11.5789L33.5914 11.5741ZM31.6075 6.57045C31.6075 7.37015 31.6256 8.03636 31.2392 8.74746C30.926 9.32449 30.4285 9.68004 29.8762 9.68004C29.1216 9.68004 28.6797 9.08057 28.6797 8.19169C28.6797 6.44347 30.1832 6.12572 31.6075 6.12572V6.57045Z" fill="white"/>
<path fill-rule="evenodd" clip-rule="evenodd" d="M7.78574 11.5741C7.65544 11.6958 7.46735 11.7041 7.32062 11.622C6.66629 11.0556 6.54902 10.7939 6.19211 10.2541C5.11118 11.4017 4.34637 11.746 2.94649 11.746C1.28941 11.746 0 10.6794 0 8.54724C0 6.88112 0.865082 5.74832 2.09954 5.19314C3.16744 4.70411 4.65909 4.61552 5.80064 4.48204V4.21567C5.80064 3.72605 5.83803 3.14961 5.56157 2.72732C5.32193 2.34933 4.86134 2.19399 4.45685 2.19399C3.70563 2.19399 3.0377 2.59502 2.87454 3.42602C2.84055 3.61088 2.71082 3.79456 2.53236 3.80401L0.62431 3.58844C0.46285 3.55005 0.283829 3.41539 0.330284 3.15906C0.762541 0.779472 2.80146 0.037659 4.65456 0.0175781H4.80073C5.74909 0.029981 6.96032 0.301073 7.69793 1.03875C8.65536 1.97192 8.56301 3.21576 8.56301 4.57122V7.76822C8.56301 8.73033 8.94655 9.15203 9.30629 9.67C9.43149 9.85723 9.46039 10.0787 9.30006 10.2157C8.89783 10.5671 8.18287 11.2139 7.79027 11.5789L7.78574 11.5741ZM5.80064 6.57045C5.80064 7.37015 5.81934 8.03636 5.4324 8.74746C5.11968 9.32449 4.62227 9.68004 4.06934 9.68004C3.31473 9.68004 2.87284 9.08057 2.87284 8.19169C2.87284 6.44347 4.37697 6.12572 5.80064 6.12572V6.57045Z" fill="white"/>
<path fill-rule="evenodd" clip-rule="evenodd" d="M90.5152 15.379C90.5152 15.1121 90.5152 14.8723 90.5152 14.6053C90.5152 14.385 90.6189 14.2332 90.8393 14.2468C91.2506 14.3077 91.8324 14.3685 92.2454 14.2799C92.7847 14.163 93.1717 13.7643 93.4005 13.218C93.7229 12.449 93.9365 11.8288 94.0713 11.4219L89.9759 0.845173C89.9068 0.665626 89.8864 0.33252 90.2303 0.33252H91.6619C91.9349 0.33252 92.046 0.513248 92.1072 0.690432L95.0763 9.28152L97.9106 0.690432C97.9684 0.514429 98.0846 0.33252 98.3553 0.33252H99.7054C100.047 0.33252 100.028 0.665036 99.9597 0.845173L95.8972 11.7521C95.3715 13.2038 94.6712 15.5161 93.094 15.9177C92.3032 16.1332 91.3055 16.0553 90.7197 15.7995C90.5719 15.7222 90.5152 15.5155 90.5152 15.379Z" fill="white"/>
<path fill-rule="evenodd" clip-rule="evenodd" d="M88.6055 10.9559C88.6055 11.1526 88.4509 11.3138 88.2611 11.3138H87.2515C87.0334 11.3138 86.8844 11.1496 86.8567 10.9559L86.7553 10.2395C86.2913 10.6488 85.7219 11.0085 85.1044 11.2589C83.917 11.7397 82.5482 11.8194 81.388 11.0764C80.549 10.5395 80.1037 9.49 80.1037 8.40741C80.1037 7.56991 80.3513 6.73951 80.9002 6.13649C81.6327 5.31258 82.6944 4.90801 83.9765 4.90801C84.7509 4.90801 85.859 5.0031 86.6652 5.27774V3.83605C86.6652 2.37014 86.0732 1.73582 84.5124 1.73582C83.3193 1.73582 82.4066 1.92363 81.1365 2.33529C80.9331 2.34238 80.8141 2.18114 80.8141 1.98447V1.16233C80.8141 0.965065 80.9756 0.774296 81.1506 0.716416C82.0576 0.304167 83.3425 0.0472492 84.7084 0C86.489 0 88.6055 0.418746 88.6055 3.27378V10.9559ZM86.6652 8.85096V6.67572C85.9876 6.48259 84.8665 6.40227 84.4325 6.40227C83.747 6.40227 82.9964 6.57118 82.6043 7.01119C82.3114 7.33367 82.1789 7.79671 82.1789 8.2444C82.1789 8.8232 82.3709 9.40378 82.8196 9.69081C83.3408 10.0599 84.1492 10.0151 84.909 9.79004C85.6392 9.57387 86.3247 9.19174 86.6652 8.85096Z" fill="white"/>
<path fill-rule="evenodd" clip-rule="evenodd" d="M73.7201 1.76815C75.9601 1.76815 76.5702 3.60438 76.5702 5.70697C76.5827 7.12444 76.3329 8.38836 75.6287 9.11186C75.1018 9.65346 74.5132 9.80111 73.6272 9.80111C72.8385 9.80111 71.8012 9.37232 71.0262 8.77521V2.76334C71.833 2.11721 72.8623 1.76815 73.7201 1.76815ZM70.6829 15.7563H69.3306C69.1414 15.7563 68.9868 15.595 68.9868 15.3984C68.9868 10.5022 68.9868 5.60538 68.9868 0.70918C68.9868 0.512505 69.1414 0.351267 69.3306 0.351267H70.3657C70.5832 0.351267 70.7322 0.515458 70.76 0.70918L70.8687 1.47875C71.8381 0.581607 73.0861 0.00634766 74.2753 0.00634766C77.6058 0.00634766 78.7009 2.86729 78.7009 5.84222C78.7009 9.02504 77.0257 11.5824 74.1925 11.5824C72.9994 11.5824 71.884 11.1235 71.0262 10.3262V15.3984C71.0262 15.595 70.8716 15.7563 70.6829 15.7563Z" fill="white"/>
</g>
</g>
<defs>
<clipPath id="clip0_338_2608">
<rect width="100" height="20" fill="white"/>
</clipPath>
</defs>
</svg>
