<svg width="18" height="20" viewBox="0 0 18 20" fill="none" xmlns="http://www.w3.org/2000/svg">
<path d="M16.7969 1.5625H14.0625V0.390625C14.0625 0.287025 14.0213 0.187668 13.9481 0.114411C13.8748 0.0411551 13.7755 0 13.6719 0C13.5683 0 13.4689 0.0411551 13.3957 0.114411C13.3224 0.187668 13.2812 0.287025 13.2812 0.390625V1.5625H4.6875V0.390625C4.6875 0.287025 4.64635 0.187668 4.57309 0.114411C4.49983 0.0411551 4.40048 0 4.29688 0C4.19327 0 4.09392 0.0411551 4.02066 0.114411C3.9474 0.187668 3.90625 0.287025 3.90625 0.390625V1.5625H1.17188C0.861074 1.5625 0.563003 1.68596 0.343234 1.90573C0.123465 2.1255 0 2.42357 0 2.73438V18.3594C0 18.6702 0.123465 18.9682 0.343234 19.188C0.563003 19.4078 0.861074 19.5312 1.17188 19.5312H16.7969C17.1077 19.5312 17.4057 19.4078 17.6255 19.188C17.8453 18.9682 17.9688 18.6702 17.9688 18.3594V2.73438C17.9688 2.42357 17.8453 2.1255 17.6255 1.90573C17.4057 1.68596 17.1077 1.5625 16.7969 1.5625ZM1.17188 2.34375H3.90625V3.51562C3.90625 3.61923 3.9474 3.71858 4.02066 3.79184C4.09392 3.86509 4.19327 3.90625 4.29688 3.90625C4.40048 3.90625 4.49983 3.86509 4.57309 3.79184C4.64635 3.71858 4.6875 3.61923 4.6875 3.51562V2.34375H13.2812V3.51562C13.2812 3.61923 13.3224 3.71858 13.3957 3.79184C13.4689 3.86509 13.5683 3.90625 13.6719 3.90625C13.7755 3.90625 13.8748 3.86509 13.9481 3.79184C14.0213 3.71858 14.0625 3.61923 14.0625 3.51562V2.34375H16.7969C16.9005 2.34375 16.9998 2.38491 17.0731 2.45816C17.1463 2.53142 17.1875 2.63077 17.1875 2.73438V6.25H0.78125V2.73438C0.78125 2.63077 0.822405 2.53142 0.895661 2.45816C0.968918 2.38491 1.06827 2.34375 1.17188 2.34375ZM16.7969 18.75H1.17188C1.06827 18.75 0.968918 18.7088 0.895661 18.6356C0.822405 18.5623 0.78125 18.463 0.78125 18.3594V7.03125H17.1875V18.3594C17.1875 18.463 17.1463 18.5623 17.0731 18.6356C16.9998 18.7088 16.9005 18.75 16.7969 18.75Z" fill="black"/>
</svg>
