<svg width="7" height="13" viewBox="0 0 7 13" fill="none" xmlns="http://www.w3.org/2000/svg">
<path d="M5.61291 11.9839L0.177429 6.56451C0.112913 6.49999 0.0671066 6.4301 0.0400099 6.35483C0.0129132 6.27956 -0.000420026 6.19892 1.00807e-05 6.11289C1.00807e-05 6.02687 0.0133433 5.94623 0.0400099 5.87096C0.0666765 5.79569 0.112483 5.7258 0.177429 5.66128L5.61291 0.225806C5.76344 0.0752686 5.95161 0 6.17742 0C6.40323 0 6.59677 0.080645 6.75807 0.241935C6.91936 0.403225 7 0.591397 7 0.80645C7 1.0215 6.91936 1.20968 6.75807 1.37097L2.01614 6.11289L6.75807 10.8548C6.9086 11.0054 6.98387 11.191 6.98387 11.4116C6.98387 11.6322 6.90323 11.823 6.74194 11.9839C6.58065 12.1451 6.39247 12.2258 6.17742 12.2258C5.96237 12.2258 5.7742 12.1451 5.61291 11.9839Z" fill="#B6B6B6"/>
</svg>
