<svg width="21" height="25" viewBox="0 0 21 25" fill="none" xmlns="http://www.w3.org/2000/svg">
<path d="M5.71032 5.48114C5.60063 3.74306 6.11657 2.26838 7.44975 1.13968C8.33713 0.372375 9.48046 -0.0336046 10.653 0.00217931C12.0918 0.0292626 13.2937 0.591242 14.2483 1.66916C15.203 2.74708 15.5395 4.03895 15.4468 5.48181C16.0595 5.48181 16.6412 5.47369 17.2228 5.48181C17.8168 5.49315 18.3857 5.72395 18.8198 6.12978C19.2539 6.53556 19.5223 7.08765 19.5736 7.67963C19.619 8.25312 19.6413 8.83067 19.6677 9.40348C19.8 12.1768 19.9309 14.9502 20.0604 17.7235C20.1241 19.0844 20.1958 20.446 20.2426 21.8076C20.2954 23.2668 19.2269 24.3806 17.7678 24.3806C12.9773 24.3855 8.18641 24.3855 3.39537 24.3806C1.93558 24.3806 0.854956 23.2688 0.91657 21.8137C1.03912 18.93 1.18334 16.047 1.31808 13.164C1.39324 11.5573 1.46365 9.95057 1.5422 8.34385C1.54762 8.01431 1.57977 7.68572 1.63834 7.3614C1.75508 6.83199 2.04793 6.35789 2.46903 6.01644C2.89013 5.67505 3.41458 5.48657 3.95667 5.48181C4.53016 5.47504 5.10298 5.48114 5.71032 5.48114ZM10.5819 22.7562C12.9689 22.7562 15.3558 22.7562 17.7428 22.7562C18.3095 22.7562 18.6379 22.4109 18.623 21.8442C18.6149 21.5734 18.6047 21.3025 18.5925 21.0317C18.463 18.2836 18.3332 15.5356 18.2032 12.7875C18.1267 11.172 18.0563 9.55718 17.9716 7.94234C17.9405 7.34379 17.6175 7.06958 17.0135 7.07296C15.7609 7.07973 14.5081 7.08447 13.2551 7.08718C10.2082 7.0953 7.16131 7.10275 4.11444 7.10952C3.54365 7.10952 3.23423 7.39051 3.1997 7.96671C3.15907 8.62551 3.13808 9.28567 3.10761 9.94515C2.92209 13.8858 2.73679 17.8262 2.55173 21.7663C2.52058 22.436 2.83069 22.7562 3.49964 22.7569L10.5819 22.7562ZM13.8204 5.46895C13.9369 3.97937 13.4731 2.7728 12.1528 2.03817C10.9584 1.37395 9.75048 1.46468 8.64683 2.27244C7.57298 3.05718 7.22496 4.17166 7.35022 5.46895H13.8204Z" fill="black"/>
</svg>
