<svg width="13" height="18" viewBox="0 0 13 18" fill="none" xmlns="http://www.w3.org/2000/svg">
<path d="M12.1037 8.99774C12.1037 2.33377 12.0979 2.69956 12.083 2.67468C12.068 2.6498 9.55972 0.0270057 9.5506 0.02037C9.53844 0.0101181 9.52333 0.00401361 9.50746 0.00294923C9.43779 -0.00368654 2.61372 0.00294923 2.61206 0.00294923C2.59918 0.0012883 2.5861 0.00267728 2.57385 0.00699939C2.56161 0.0113215 2.55055 0.01846 2.54156 0.0278374C2.50341 0.069311 0.0207969 2.66473 0.0166495 2.68215C-0.0148704 2.74436 0.00835521 15.2611 0.00669627 15.2694C0.00474299 15.288 0.0091243 15.3067 0.0191353 15.3225C0.0191353 15.3332 2.53327 17.961 2.54156 17.9693C2.58221 18.0149 2.19152 17.9925 8.5403 18C8.94508 18 9.36977 18 9.4859 17.9934H9.49087C9.50693 17.9953 9.5232 17.9921 9.53732 17.9842C9.54674 17.9815 9.55512 17.976 9.56138 17.9685C9.63769 17.8855 12.0788 15.3374 12.083 15.3216C12.0871 15.3059 12.1037 15.7024 12.1037 8.99774ZM8.97826 16.8678C8.71449 16.424 8.77836 16.531 8.67965 16.3643L10.4323 14.5295L10.9483 14.8049L8.97826 16.8678ZM0.932384 14.7335L0.166784 15.1416C0.159318 13.885 0.159318 4.10967 0.166784 2.85302L0.932384 3.26195V14.7335ZM8.17119 2.34289L9.69492 3.94045V14.0542L8.17119 15.6518H3.9301L2.40387 14.0542V3.94045L3.9301 2.34289H8.17119ZM2.30433 14.1902L3.78992 15.7438L3.51038 16.2141L1.82158 14.4457C2.11521 14.2923 1.97586 14.3661 2.30433 14.1902ZM1.77347 3.70654L2.24212 3.95538V14.0384L1.77347 14.2873V3.70654ZM2.30848 3.80442L1.82158 3.5506L3.51536 1.77885L3.79323 2.24833L2.30848 3.80442ZM10.3378 14.2881L9.86829 14.0393V3.95704L10.3378 3.7082V14.2881ZM8.59587 1.77885L10.2805 3.5506L9.79778 3.80857L8.31303 2.25248L8.59587 1.77885ZM1.10575 3.34987L1.60758 3.61779V14.3769L1.10575 14.6448V3.34987ZM8.31303 15.7438L9.79778 14.1886L10.2805 14.4457L8.59173 16.2166L8.31303 15.7438ZM11.0005 14.6423L10.5028 14.3744V3.61779L11.0005 3.34987V14.6423ZM10.9483 3.18729L10.4323 3.46765L8.67965 1.63286L8.97826 1.12937L10.9483 3.18729ZM8.1604 2.177H3.94005L3.67213 1.72576H8.43081L8.1604 2.177ZM3.12219 1.12689L3.4208 1.63037L1.66979 3.46765L1.15468 3.19227L3.12219 1.12689ZM1.1522 14.8049L1.6673 14.5295L3.4208 16.3643L3.12219 16.8678L1.1522 14.8049ZM3.93922 15.8185C4.10511 15.8251 4.44935 15.8185 8.1604 15.8185C8.3122 16.0756 8.2533 15.9753 8.42832 16.2705H3.67213C3.88282 15.9155 3.90273 15.8848 3.94171 15.8185H3.93922ZM11.1639 3.26195L11.9304 2.85302C11.937 4.10967 11.937 13.885 11.9304 15.1416L11.1639 14.7335V3.26195ZM8.52869 1.55987H3.57342L3.2856 1.07463H8.81651L8.52869 1.55987ZM3.57342 16.4356H8.52869L8.81651 16.9217H3.2856L3.57342 16.4356ZM11.1108 3.10352C11.0942 3.11181 11.2635 3.27936 9.06618 0.978409C9.30258 0.580262 9.39797 0.420176 9.51659 0.222761L11.8781 2.69376L11.1108 3.10352ZM9.35484 0.167188L8.91522 0.907906H3.18772L2.74561 0.161381C4.01304 0.161381 2.3541 0.167188 9.35484 0.167188ZM2.58718 0.221931L3.03675 0.978409L1.00206 3.10932L0.224017 2.69459L2.58718 0.221931ZM1.00206 14.8862L3.03675 17.0162C2.83519 17.3547 2.72487 17.5396 2.58552 17.7719L0.224017 15.3009L1.00206 14.8862ZM2.74395 17.8275C3.34449 16.8172 3.01519 17.3721 3.1844 17.0876H8.91522L9.35733 17.8341C8.12059 17.8349 10.8247 17.8275 2.74727 17.8275H2.74395ZM9.51244 17.7736L9.06287 17.0162L11.0967 14.8862L11.8748 15.3009L9.51244 17.7736Z" fill="#1D1D1B"/>
</svg>
