<svg width="15" height="15" viewBox="0 0 15 15" fill="none" xmlns="http://www.w3.org/2000/svg">
<path fill-rule="evenodd" clip-rule="evenodd" d="M14.7699 0.168539H0.314326L4.25478 1.76966H10.8278L14.7699 0.168539ZM0.168539 14.7699V0.222472L0.187079 0.270506L1.68539 4.11573V11.0781L0.184551 14.7312L0.168539 14.7699ZM1.85393 10.6677V4.55056L3.07584 7.71067L3.0573 7.74438L1.85393 10.6677ZM3.11798 8.02921L1.85393 11.1118V11.2079H3.81236L3.11798 8.02921ZM3.8764 11.282V11.2079L3.99017 11.2331L7.19747 11.8551L3.8764 13.2042V11.282ZM3.9514 11.0537L3.23848 7.77893L4.0736 4.01124L7.49494 3.24017L11.0393 4.03904L11.8272 7.65674L11.0621 11.1691L7.58006 11.759L3.9514 11.0537ZM3.90337 4.00365L3.15758 7.42921L1.85393 4.08371V3.96067H3.8764V1.9382H4.22191L7.1823 3.14073L3.8764 3.88567V3.96067H3.90337V4.00365ZM7.40815 3.05056L7.49494 3.08498L7.61936 3.05056L10.4149 1.9382H4.66938L7.40815 3.05056ZM11.2272 11.2079L11.9334 7.96517L13.2303 11.1236V11.2079H11.2272ZM7.57837 11.9284L7.65 11.9419L10.8211 13.2303H4.25983L7.38287 11.9612L7.57837 11.9284ZM11.1236 13.1713L7.92135 11.8702L11.1236 11.3301V13.1713ZM11.1236 3.88483V1.9382H10.8624L7.8691 3.15421L11.1236 3.88483ZM11.1952 3.96067L11.9419 7.39129L13.2303 4.08371V3.96067H11.1952ZM12.011 7.70899L12.0067 7.68876L13.2303 4.55056V10.6787L12.011 7.70899ZM3.79214 1.76966H3.8073L0.415449 0.391854L1.74017 3.79214H3.70787V1.76966H3.79214ZM13.3989 4.11573V11.0865L14.8315 14.5736V0.439045L13.3989 4.11573ZM13.3441 3.79214H11.2921V1.76966H11.277L14.6688 0.391854L13.3441 3.79214ZM11.2374 13.3989L14.7632 14.8315H0.319382L3.84522 13.3989H11.2357H11.2374ZM14.6629 14.6098L11.2921 13.2396V11.3764H13.3357L14.6629 14.6098ZM1.74522 11.3764L0.416292 14.6098L3.70787 13.2725V11.3764H1.74522ZM0 0H15V15H0V0Z" fill="black"/>
</svg>
