<svg width="34" height="20" viewBox="0 0 34 20" fill="none" xmlns="http://www.w3.org/2000/svg">
<g clip-path="url(#clip0_338_2940)">
<path d="M14.7116 13.8843H12.7092L13.9617 6.14014H15.964L14.7116 13.8843Z" fill="#00579F"/>
<path d="M21.9696 6.3297C21.5746 6.17301 20.9482 6 20.1736 6C18.1961 6 16.8036 7.05448 16.7951 8.56206C16.7787 9.67435 17.7921 10.2921 18.55 10.663C19.3247 11.042 19.5881 11.2894 19.5881 11.6272C19.5802 12.146 18.9621 12.3851 18.3856 12.3851C17.5861 12.3851 17.1577 12.2618 16.5068 11.9732L16.2431 11.8494L15.9629 13.5878C16.4325 13.8018 17.2978 13.9917 18.1961 14C20.2972 14 21.6651 12.9618 21.6813 11.3553C21.6893 10.4737 21.1541 9.79819 20.0004 9.24621C19.3001 8.89187 18.8712 8.65294 18.8712 8.29039C18.8794 7.9608 19.234 7.62321 20.0245 7.62321C20.6755 7.60668 21.1538 7.76315 21.5161 7.91974L21.6972 8.00197L21.9696 6.3297Z" fill="#00579F"/>
<path d="M24.6313 11.1413C24.7962 10.6964 25.4307 8.97457 25.4307 8.97457C25.4224 8.9911 25.5953 8.52146 25.6942 8.23315L25.8341 8.90044C25.8341 8.90044 26.2133 10.7541 26.2956 11.1413C25.9827 11.1413 25.0268 11.1413 24.6313 11.1413ZM27.103 6.14062H25.5541C25.0765 6.14062 24.7136 6.28056 24.5075 6.78317L21.5332 13.8847H23.6343C23.6343 13.8847 23.9802 12.9289 24.0545 12.7231C24.285 12.7231 26.3289 12.7231 26.6255 12.7231C26.6829 12.9949 26.8644 13.8847 26.8644 13.8847H28.7184L27.103 6.14062Z" fill="#00579F"/>
<path d="M11.0375 6.14062L9.0765 11.4214L8.86221 10.3504C8.49966 9.11462 7.36263 7.77194 6.09375 7.10433L7.88997 13.8766H10.0075L13.1549 6.14062H11.0375Z" fill="#00579F"/>
<path d="M7.25464 6.14014H4.03296L4 6.29661C6.51311 6.93926 8.1775 8.48834 8.86132 10.3503L8.16096 6.79111C8.04566 6.2965 7.69132 6.15645 7.25464 6.14014Z" fill="#FAA61A"/>
</g>
<rect x="0.5" y="0.5" width="33" height="19" rx="1.5" stroke="#D2D1D2"/>
<defs>
<clipPath id="clip0_338_2940">
<rect width="24.719" height="8" fill="white" transform="translate(4 6)"/>
</clipPath>
</defs>
</svg>
