<svg width="17" height="15" viewBox="0 0 17 15" fill="none" xmlns="http://www.w3.org/2000/svg">
<path d="M12.9966 6.85707C8.15944 -0.273056 8.36685 0.0299758 8.34984 0.0170119L8.33121 0.00486125H8.32553L8.30204 0L8.2753 0.00566734C8.23641 0.0210619 3.61155 6.8514 3.60588 6.86031C3.6002 6.86923 -0.000509985 14.2918 0.000300257 14.3267C-0.000100086 14.3296 -0.000100086 14.3326 0.000300257 14.3356C0.00277953 14.3447 0.00575866 14.3536 0.00921667 14.3623C0.00921667 14.3623 0.0140738 14.3688 0.014884 14.3688C0.0246069 14.3826 0.0221782 14.3785 0.0270396 14.3826C0.0683619 14.4239 8.46166 15 8.30366 15C8.31176 15 16.5438 14.4077 16.573 14.3875C16.573 14.3875 16.573 14.3875 16.5851 14.3737V14.3688C16.5895 14.3598 16.5928 14.3503 16.5949 14.3405C16.6103 14.2975 13.0022 6.86517 12.9966 6.85707ZM8.29718 14.8355L3.71364 13.2061L8.29718 12.818L12.8799 13.2061L8.29718 14.8355ZM3.74119 6.94539L7.44318 3.79112C6.94083 4.86307 5.83161 7.22574 5.48969 7.95576L2.86045 11.7299C3.08165 10.5445 3.52647 8.12753 3.74443 6.94539H3.74119ZM12.6538 11.9786L11.3502 8.5918L13.7234 11.9997L12.6538 11.9786ZM12.4861 11.994L8.29799 12.6552L4.10823 11.994L5.63796 8.03679L8.30366 4.74072L10.9685 8.03679L12.4861 11.994ZM7.62468 12.7127L3.48677 13.0627L4.03855 12.1471L7.62468 12.7127ZM13.11 13.0627L8.97454 12.7135L12.559 12.1463C12.8491 12.6219 12.828 12.5936 13.1116 13.0627H13.11ZM8.39765 4.60298L8.91377 3.66553L10.6785 7.42505L8.39765 4.60298ZM7.68463 3.66472L8.20319 4.60298C7.99738 4.8574 6.18406 7.09933 5.92074 7.42586L7.68463 3.66472ZM5.24743 8.5918C5.03028 9.15897 4.27514 11.1035 3.94294 11.9786L2.87342 11.9997L5.24743 8.5918ZM8.83518 3.47674C8.5597 3.97585 8.67313 3.766 8.30042 4.44904L7.76404 3.47674L8.30042 0.53638L8.83518 3.47674ZM2.74702 12.1642L3.85543 12.1463C3.74929 12.323 3.82221 12.2022 3.2834 13.0943L0.469433 14.1014L2.74702 12.1642ZM13.3174 13.0903L12.7454 12.1463L13.853 12.1674L16.1322 14.1006L13.3174 13.0903ZM13.7355 11.7299L11.1063 7.95576C10.7822 7.26301 9.61139 4.76908 9.15198 3.79112L12.8548 6.94539C13.0727 8.12834 13.5176 10.5445 13.7355 11.7299ZM3.33687 13.2434L7.71218 14.7974L0.467811 14.2708L3.33687 13.2434ZM13.2631 13.2434L16.1355 14.2708L8.89189 14.7974L13.2631 13.2434ZM13.9575 12.0402C13.4155 9.09496 13.7145 10.7252 13.1173 7.47691L16.2837 14.0139L13.9575 12.0402ZM12.5258 6.44952L8.99398 3.44109L8.44869 0.4432L12.5258 6.44952ZM7.60442 3.44109L4.07339 6.44952L8.14971 0.4432L7.60442 3.44109ZM2.64007 12.0402L0.314674 14.0139L3.48029 7.47691L2.64007 12.0402Z" fill="#1D1D1B"/>
</svg>
