<svg width="15" height="14" viewBox="0 0 15 14" fill="none" xmlns="http://www.w3.org/2000/svg">
<path d="M14.4969 4.36987C14.6481 2.54779 13.6588 1.05219 12.2373 0.379585C11.3814 -0.023986 10.4096 -0.108704 9.49679 0.140692C8.584 0.390088 7.79026 0.957207 7.25851 1.73991C6.72673 0.957027 5.93285 0.389787 5.01989 0.140383C4.10693 -0.109021 3.13492 -0.0241928 2.27897 0.379585C1.6168 0.692266 1.05415 1.1822 0.65338 1.79508C0.154985 2.55414 -0.0690005 3.46075 0.0185618 4.36458C0.0170753 4.37181 0.0170753 4.37927 0.0185618 4.3865C0.218832 7.12226 2.3553 10.0152 4.60739 11.7375C5.4848 12.4094 6.3675 12.9067 7.23206 13.2158C7.24768 13.2214 7.2648 13.2214 7.28042 13.2158C10.6283 12.0134 14.2332 7.94148 14.4924 4.38574C14.4953 4.38096 14.4969 4.37547 14.4969 4.36987ZM4.62855 8.12134L7.1391 9.4658L6.1045 10.6447L4.62855 8.12134ZM7.25851 9.35848L4.491 7.87648C4.18871 6.94617 3.99373 6.35972 3.59168 5.13392L4.59454 3.20906L7.25851 2.84177L9.92172 3.20906L10.9246 5.13694L10.026 7.87875L7.25851 9.35848ZM11.0432 5.25786L12.3333 6.35519L10.2278 7.74347L11.0432 5.25786ZM10.0827 3.18865L11.9388 2.76015L10.9994 4.95179L10.0827 3.18865ZM4.43357 3.18865L3.51686 4.95103L2.57748 2.7594L4.43357 3.18865ZM4.28922 7.74574L2.18299 6.35519L3.47303 5.25786L4.28922 7.74574ZM8.41176 10.6447L7.37791 9.4658L9.88771 8.12134L8.41176 10.6447ZM12.1224 0.563985L11.9955 2.59238L10.0404 3.04582C9.98822 2.22434 9.99125 2.27119 9.94061 1.46709L12.1224 0.563985ZM9.88998 3.0496L7.50412 2.72312L9.79324 1.53662L9.88998 3.0496ZM4.72302 1.53813L7.01138 2.72464L4.62704 3.05111C4.6618 2.49413 4.70941 1.75125 4.72302 1.53662V1.53813ZM2.41727 2.76998L3.41862 5.10595L2.05829 6.25921L0.205984 4.38196L2.41727 2.76998ZM2.85333 9.87389L2.16787 6.52371L4.3716 7.97926L5.93597 10.6531L2.85333 9.87389ZM8.58029 10.6531L10.1447 7.97926L12.3484 6.52371L11.6629 9.87389L8.58029 10.6531ZM12.4542 6.25694L11.0976 5.10595L12.0997 2.76998L14.3073 4.38196C11.7687 6.95524 12.6439 6.06725 12.4542 6.25921V6.25694ZM4.71168 1.3031L4.51972 0.190652C5.02078 0.261301 5.50246 0.432229 5.93597 0.693218L4.71168 1.3031ZM4.57565 1.46482C4.56431 1.64469 4.49252 2.78282 4.47589 3.04355L2.5208 2.59011L2.39384 0.563985L4.57565 1.46482ZM7.25851 12.9724C6.06293 10.5442 6.30855 11.0476 6.18158 10.7861L7.25851 9.55724L8.33543 10.7846C8.25457 10.9523 8.25003 10.9569 7.25851 12.9724ZM13.5787 7.06331L12.5751 6.35443C15.029 3.86806 13.8478 5.06968 14.3269 4.58147C14.2407 5.36819 13.9898 6.20177 13.5787 7.06331ZM14.3556 4.23308L12.2146 2.66946L13.7722 1.93489C14.2029 2.61998 14.407 3.42324 14.3556 4.23082V4.23308ZM13.6883 1.80793L12.1504 2.5289L12.2736 0.563985C12.8414 0.853238 13.3278 1.28012 13.6883 1.80566V1.80793ZM12.0136 0.447603L9.95951 1.29554C10.0585 0.721933 10.0555 0.739318 10.1537 0.174028C10.7866 0.107616 11.4261 0.200892 12.0136 0.445334V0.447603ZM9.80458 1.30536C9.0035 0.907089 8.69138 0.750651 8.58105 0.695482C9.01538 0.436227 9.49669 0.265432 9.99729 0.192921C9.90812 0.702287 9.95195 0.452138 9.80458 1.3031V1.30536ZM8.4299 0.790706L9.695 1.41948L7.33408 2.6415V1.8971C7.62077 1.45799 7.99356 1.0816 8.4299 0.790706ZM7.18293 1.8971V2.6415L4.82277 1.41721L6.08712 0.790706C6.52386 1.0811 6.89675 1.45759 7.18293 1.8971ZM4.36253 0.171758L4.55675 1.29402L2.50266 0.446091C3.0898 0.200118 3.72938 0.105779 4.36253 0.171758ZM2.24269 0.563985C2.31826 1.75125 2.29106 1.33937 2.36588 2.5289L0.827955 1.80415C1.18868 1.2792 1.67503 0.852867 2.24269 0.563985ZM0.744068 1.93262L2.30164 2.6672C1.25419 3.432 0.261153 4.15448 0.161396 4.2293C0.106823 3.42129 0.310902 2.61689 0.744068 1.93262ZM1.94115 6.35216L0.938292 7.06331C0.526416 6.20253 0.274756 5.3682 0.189358 4.57921L1.94115 6.35216ZM1.0048 7.19935L2.0069 6.49122L2.65759 9.67136C2.00951 8.91662 1.45459 8.08666 1.0048 7.19935ZM3.01279 10.0711L5.90272 10.8019L4.65953 11.5826C4.06906 11.1266 3.51819 10.6215 3.01279 10.0726V10.0711ZM4.78725 11.6809L6.06067 10.8813C6.38866 11.5615 5.38051 9.50434 7.10661 13.0041C6.27739 12.6702 5.49719 12.2256 4.78725 11.6824V11.6809ZM7.40966 13.0057C8.77602 10.2291 8.32636 11.1488 8.45559 10.8828L9.72825 11.6824C9.01867 12.2261 8.23872 12.6713 7.40966 13.0057ZM9.85673 11.5841L8.61354 10.8034L11.5027 10.0726C10.9979 10.6219 10.4475 11.1276 9.85748 11.5841H9.85673ZM12.5094 6.49122L13.5107 7.19935C13.0615 8.0868 12.5068 8.9168 11.8587 9.67136L12.5094 6.49122Z" fill="#1D1D1B"/>
</svg>
