<svg width="35" height="34" viewBox="0 0 35 34" fill="none" xmlns="http://www.w3.org/2000/svg">
<path d="M34.7652 31.2543C32.2847 26.9812 28.3142 23.7741 23.6151 22.2478C25.8675 20.9084 27.6179 18.8665 28.5973 16.4359C29.5767 14.0052 29.731 11.3202 29.0365 8.79337C28.3419 6.26652 26.837 4.03758 24.7528 2.44898C22.6686 0.860387 20.1206 0 17.5 0C14.8794 0 12.3313 0.860387 10.2472 2.44898C8.16302 4.03758 6.65808 6.26652 5.96354 8.79337C5.269 11.3202 5.42329 14.0052 6.40271 16.4359C7.38213 18.8665 9.13249 20.9084 11.3849 22.2478C6.68575 23.7741 2.71533 26.9812 0.234834 31.2543C0.130793 31.4052 0.0590949 31.576 0.024244 31.756C-0.010607 31.936 -0.00785725 32.1212 0.0323204 32.3001C0.072498 32.479 0.149235 32.6476 0.25771 32.7954C0.366185 32.9431 0.504052 33.0669 0.66265 33.1588C0.821247 33.2508 0.997146 33.3089 1.17929 33.3296C1.36144 33.3503 1.5459 33.3331 1.72108 33.2791C1.89626 33.2251 2.05838 33.1354 2.19724 33.0157C2.3361 32.896 2.44871 32.7489 2.52799 32.5836C4.04743 29.9581 6.23059 27.7783 8.85846 26.2629C11.4863 24.7475 14.4665 23.9498 17.5 23.9498C20.5335 23.9498 23.5137 24.7475 26.1415 26.2629C28.7694 27.7783 30.9526 29.9581 32.472 32.5836C32.5513 32.7489 32.6639 32.896 32.8028 33.0157C32.9416 33.1354 33.1037 33.2251 33.2789 33.2791C33.4541 33.3331 33.6386 33.3503 33.8207 33.3296C34.0029 33.3089 34.1788 33.2508 34.3373 33.1588C34.4959 33.0669 34.6338 32.9431 34.7423 32.7954C34.8508 32.6476 34.9275 32.479 34.9677 32.3001C35.0079 32.1212 35.0106 31.936 34.9758 31.756C34.9409 31.576 34.8692 31.4052 34.7652 31.2543ZM8.19442 11.9784C8.19442 10.138 8.74019 8.33884 9.7627 6.80854C10.7852 5.27825 12.2385 4.08553 13.9389 3.38121C15.6393 2.6769 17.5103 2.49262 19.3154 2.85167C21.1205 3.21073 22.7786 4.097 24.08 5.39841C25.3814 6.69982 26.2677 8.35791 26.6268 10.163C26.9858 11.9681 26.8015 13.8392 26.0972 15.5395C25.3929 17.2399 24.2002 18.6932 22.6699 19.7157C21.1396 20.7383 19.3405 21.284 17.5 21.284C15.032 21.284 12.6651 20.3036 10.92 18.5585C9.17483 16.8133 8.19442 14.4464 8.19442 11.9784Z" fill="black"/>
</svg>
