<svg width="25" height="25" viewBox="0 0 25 25" fill="none" xmlns="http://www.w3.org/2000/svg">
<path d="M23.8379 11.7188C23.8401 11.6955 23.8368 11.6721 23.8281 11.6504V11.6309C23.8262 11.6101 23.8195 11.5901 23.8086 11.5723L22.4414 8.16406C22.3556 7.94621 22.2064 7.75908 22.0132 7.62679C21.82 7.4945 21.5916 7.42313 21.3574 7.42188H17.5879V6.25C17.5879 6.1464 17.5467 6.04704 17.4735 5.97379C17.4002 5.90053 17.3009 5.85938 17.1973 5.85938H2.35352C2.04272 5.85938 1.74464 5.98284 1.52487 6.20261C1.30511 6.42238 1.18164 6.72045 1.18164 7.03125V17.9688C1.18164 18.2796 1.30511 18.5776 1.52487 18.7974C1.74464 19.0172 2.04272 19.1406 2.35352 19.1406H3.94531C4.04109 19.7896 4.36701 20.3826 4.8636 20.8113C5.36019 21.2399 5.99436 21.4758 6.65039 21.4758C7.30642 21.4758 7.94059 21.2399 8.43718 20.8113C8.93378 20.3826 9.25969 19.7896 9.35547 19.1406H15.6641C15.7598 19.7896 16.0858 20.3826 16.5823 20.8113C17.0789 21.2399 17.7131 21.4758 18.3691 21.4758C19.0252 21.4758 19.6593 21.2399 20.1559 20.8113C20.6525 20.3826 20.9784 19.7896 21.0742 19.1406H22.666C22.9768 19.1406 23.2749 19.0172 23.4947 18.7974C23.7144 18.5776 23.8379 18.2796 23.8379 17.9688V11.7188ZM21.3574 8.20312C21.4351 8.20328 21.511 8.22659 21.5753 8.27008C21.6397 8.31357 21.6896 8.37526 21.7187 8.44727L22.8711 11.3281H17.5879V8.20312H21.3574ZM2.35352 6.64062H16.8066V14H1.96289V7.03125C1.96289 6.92765 2.00405 6.82829 2.0773 6.75504C2.15056 6.68178 2.24992 6.64062 2.35352 6.64062ZM1.96289 17.9688V14H16.8066V16.5039C16.5 16.7192 16.2405 16.9948 16.044 17.3138C15.8476 17.6329 15.7183 17.9886 15.6641 18.3594H9.35547C9.25969 17.7104 8.93378 17.1174 8.43718 16.6887C7.94059 16.2601 7.30642 16.0242 6.65039 16.0242C5.99436 16.0242 5.36019 16.2601 4.8636 16.6887C4.36701 17.1174 4.04109 17.7104 3.94531 18.3594H2.35352C2.24992 18.3594 2.15056 18.3182 2.0773 18.245C2.00405 18.1717 1.96289 18.0724 1.96289 17.9688ZM6.65039 20.7031C6.2641 20.7031 5.88648 20.5886 5.56529 20.374C5.2441 20.1594 4.99377 19.8543 4.84594 19.4974C4.69811 19.1405 4.65943 18.7478 4.73479 18.369C4.81016 17.9901 4.99617 17.6421 5.26932 17.3689C5.54247 17.0958 5.89049 16.9098 6.26936 16.8344C6.64822 16.759 7.04093 16.7977 7.39782 16.9455C7.75471 17.0934 8.05974 17.3437 8.27435 17.6649C8.48897 17.9861 8.60352 18.3637 8.60352 18.75C8.60095 19.2672 8.39435 19.7625 8.02862 20.1282C7.6629 20.494 7.1676 20.7006 6.65039 20.7031ZM18.3691 20.7031C17.9828 20.7031 17.6052 20.5886 17.284 20.374C16.9629 20.1594 16.7125 19.8543 16.5647 19.4974C16.4169 19.1405 16.3782 18.7478 16.4535 18.369C16.5289 17.9901 16.7149 17.6421 16.9881 17.3689C17.2612 17.0958 17.6092 16.9098 17.9881 16.8344C18.367 16.759 18.7597 16.7977 19.1166 16.9455C19.4735 17.0934 19.7785 17.3437 19.9931 17.6649C20.2077 17.9861 20.3223 18.3637 20.3223 18.75C20.3197 19.2672 20.1131 19.7625 19.7474 20.1282C19.3816 20.494 18.8864 20.7006 18.3691 20.7031ZM23.0566 17.9688C23.0566 18.0724 23.0155 18.1717 22.9422 18.245C22.869 18.3182 22.7696 18.3594 22.666 18.3594H21.0742C20.9823 17.708 20.6577 17.1118 20.1605 16.681C19.6633 16.2502 19.027 16.0139 18.3691 16.0156C18.1042 16.0142 17.8407 16.0537 17.5879 16.1328V12.1094H23.0566V17.9688Z" fill="black"/>
</svg>
