<svg width="22" height="22" viewBox="0 0 22 22" fill="none" xmlns="http://www.w3.org/2000/svg">
<circle cx="11" cy="11" r="10.5" transform="matrix(1 0 0 -1 0 22)" fill="white" stroke="#A0A0A1"/>
<path d="M10.1889 16.046L14.8479 11.4009C14.9032 11.3456 14.9425 11.2857 14.9657 11.2212C14.9889 11.1567 15.0004 11.0875 15 11.0138C15 10.9401 14.9886 10.8709 14.9657 10.8064C14.9428 10.7419 14.9036 10.682 14.8479 10.6267L10.1889 5.96772C10.0599 5.83869 9.89862 5.77417 9.70507 5.77417C9.51152 5.77417 9.34562 5.84329 9.20737 5.98154C9.06912 6.11979 9 6.28108 9 6.46541C9 6.64974 9.06912 6.81103 9.20737 6.94928L13.2719 11.0138L9.20737 15.0783C9.07834 15.2073 9.01382 15.3664 9.01382 15.5555C9.01382 15.7447 9.08295 15.9082 9.2212 16.046C9.35945 16.1843 9.52074 16.2534 9.70507 16.2534C9.8894 16.2534 10.0507 16.1843 10.1889 16.046Z" fill="#B6B6B6"/>
</svg>
