<svg width="38" height="50" viewBox="0 0 38 50" fill="none" xmlns="http://www.w3.org/2000/svg">
<path d="M23.5824 0C24.4426 1.05208 25.3068 2.10373 26.1748 3.15495C26.6162 3.69662 27.0446 4.2487 27.4769 4.79427C28.0681 5.53646 28.0576 5.69792 27.3819 6.39193L21.2621 12.6771C21.1631 12.7799 21.0668 12.8841 20.9274 13.0326C26.9574 14.0208 31.5733 17.0378 34.6084 22.3034C36.8402 26.1771 37.5407 30.3763 36.7048 34.7591C34.9496 43.9661 26.9392 50.2891 17.6332 49.8997C8.60583 49.5221 1.11103 42.4922 0.113632 33.4049C-1.03871 22.9297 6.73473 14.0664 16.1058 13.0391C15.9756 12.8945 15.8702 12.7786 15.766 12.6758L9.57848 6.32161C8.98604 5.71354 8.97952 5.51563 9.52249 4.83333C10.6071 3.47526 11.6852 2.11328 12.7777 0.757813C12.9886 0.497397 13.2243 0.252604 13.4483 0H23.5824ZM18.5407 14.2578C9.07718 14.2578 1.36364 21.9401 1.36364 31.3763C1.36364 40.8411 9.05374 48.556 18.4808 48.5469C23.034 48.5452 27.4005 46.7368 30.6217 43.5188C33.8429 40.3007 35.6556 35.936 35.6618 31.3828C35.68 21.987 27.9457 14.2565 18.5407 14.2578ZM17.1996 12.1914C17.2347 12.1107 17.2491 12.0924 17.2452 12.0807C16.6045 10.2096 15.9639 8.33984 15.3103 6.47266C15.2864 6.41984 15.2503 6.37343 15.2051 6.33722C15.1598 6.30101 15.1066 6.27603 15.0498 6.26432C13.8884 6.25 12.7256 6.25391 11.4261 6.25391L17.1996 12.1914ZM25.5733 6.28906C25.3519 6.27214 25.2178 6.25391 25.0824 6.25391C24.1254 6.25391 23.1683 6.26823 22.2178 6.24479C21.8871 6.23698 21.7386 6.33724 21.6319 6.65625C21.0576 8.375 20.46 10.0846 19.8649 11.7982C19.8285 11.9049 19.809 12.0182 19.7816 12.1289L19.8571 12.1654L25.5733 6.28906ZM15.3441 1.375L18.4222 4.32292L21.5655 1.375H15.3441ZM18.4574 11.3398L18.5733 11.3281C19.1527 9.65625 19.7308 7.98307 20.3181 6.28385H16.7048C17.3011 8.0013 17.8793 9.66927 18.4574 11.3385V11.3398ZM11.2556 4.84896H16.8467L13.6748 1.80859L11.2556 4.84896ZM25.7816 4.85938L23.3806 1.85156L20.2139 4.85938H25.7816Z" fill="#5C5C5C"/>
</svg>
