<svg width="49" height="20" viewBox="0 0 49 20" fill="none" xmlns="http://www.w3.org/2000/svg">
<g clip-path="url(#clip0_338_2910)">
<path d="M8.90608 2.5785C8.3352 3.25404 7.42178 3.78687 6.50837 3.71075C6.39419 2.79734 6.84138 1.82683 7.36469 1.2274C7.93558 0.532826 8.93463 0.038059 9.74338 0C9.83853 0.951475 9.46745 1.88392 8.90608 2.5785ZM9.73386 3.89153C8.41132 3.81541 7.27906 4.6432 6.65109 4.6432C6.0136 4.6432 5.05261 3.92959 4.00599 3.94862C2.64538 3.96765 1.37992 4.73834 0.68534 5.96575C-0.741872 8.42055 0.314265 12.0552 1.6939 14.0533C2.36945 15.0428 3.1782 16.1275 4.24386 16.0894C5.25242 16.0514 5.65204 15.4329 6.86993 15.4329C8.09733 15.4329 8.44937 16.0894 9.51503 16.0704C10.6187 16.0514 11.3133 15.0809 11.9889 14.0913C12.7596 12.9686 13.0735 11.8744 13.0926 11.8173C13.0735 11.7983 10.9613 10.9895 10.9422 8.55376C10.9232 6.5176 12.6073 5.5471 12.6834 5.49001C11.732 4.08183 10.2477 3.92959 9.73386 3.89153ZM17.3742 1.13226V15.9657H19.6768V10.8944H22.8642C25.7757 10.8944 27.8214 8.89629 27.8214 6.00381C27.8214 3.11132 25.8138 1.13226 22.9403 1.13226H17.3742ZM19.6768 3.07326H22.3314C24.3295 3.07326 25.4713 4.13892 25.4713 6.01332C25.4713 7.88773 24.3295 8.96289 22.3219 8.96289H19.6768V3.07326ZM32.0269 16.0799C33.4732 16.0799 34.8147 15.3473 35.4237 14.1865H35.4713V15.9657H37.6026V8.5823C37.6026 6.44148 35.8899 5.06185 33.2543 5.06185C30.809 5.06185 29.0012 6.46051 28.9346 8.38249H31.0088C31.1801 7.46908 32.0269 6.86965 33.1877 6.86965C34.5959 6.86965 35.3856 7.52617 35.3856 8.73454V9.55281L32.5122 9.72407C29.8385 9.88582 28.3923 10.98 28.3923 12.883C28.3923 14.8049 29.8861 16.0799 32.0269 16.0799ZM32.6454 14.3197C31.418 14.3197 30.6378 13.7298 30.6378 12.8259C30.6378 11.8934 31.3894 11.3511 32.8262 11.2655L35.3856 11.1037V11.941C35.3856 13.3302 34.2058 14.3197 32.6454 14.3197ZM40.4475 20C42.6929 20 43.7491 19.1437 44.672 16.5461L48.7158 5.20457H46.3752L43.6635 13.9677H43.6159L40.9042 5.20457H38.4969L42.398 16.0038L42.1887 16.6603C41.8366 17.7736 41.2657 18.2017 40.2477 18.2017C40.0669 18.2017 39.7148 18.1827 39.5721 18.1637V19.9429C39.7053 19.981 40.2762 20 40.4475 20Z" fill="black"/>
</g>
<defs>
<clipPath id="clip0_338_2910">
<rect width="48.7155" height="20" fill="white"/>
</clipPath>
</defs>
</svg>
