<svg width="7" height="7" viewBox="0 0 7 7" fill="none" xmlns="http://www.w3.org/2000/svg">
<path fill-rule="evenodd" clip-rule="evenodd" d="M6.54556 0.318504C6.30592 0.0788644 5.91738 0.0788639 5.67774 0.318504L3.36345 2.6328L1.04899 0.318336C0.809348 0.0786967 0.420815 0.0786968 0.181175 0.318337C-0.0584649 0.557977 -0.0584653 0.946509 0.181175 1.18615L2.49564 3.50061L0.181594 5.81465C-0.0580458 6.05429 -0.0580458 6.44283 0.181594 6.68247C0.421234 6.92211 0.809767 6.92211 1.04941 6.68247L3.36345 4.36842L5.67732 6.6823C5.91696 6.92194 6.3055 6.92194 6.54514 6.6823C6.78478 6.44266 6.78478 6.05413 6.54514 5.81448L4.23126 3.50061L6.54556 1.18632C6.7852 0.946677 6.78519 0.558144 6.54556 0.318504Z" fill="#4D4D4D" style="mix-blend-mode:color-burn"/>
<path fill-rule="evenodd" clip-rule="evenodd" d="M6.54556 0.318504C6.30592 0.0788644 5.91738 0.0788639 5.67774 0.318504L3.36345 2.6328L1.04899 0.318336C0.809348 0.0786967 0.420815 0.0786968 0.181175 0.318337C-0.0584649 0.557977 -0.0584653 0.946509 0.181175 1.18615L2.49564 3.50061L0.181594 5.81465C-0.0580458 6.05429 -0.0580458 6.44283 0.181594 6.68247C0.421234 6.92211 0.809767 6.92211 1.04941 6.68247L3.36345 4.36842L5.67732 6.6823C5.91696 6.92194 6.3055 6.92194 6.54514 6.6823C6.78478 6.44266 6.78478 6.05413 6.54514 5.81448L4.23126 3.50061L6.54556 1.18632C6.7852 0.946677 6.78519 0.558144 6.54556 0.318504Z" fill="#B6B6B6"/>
</svg>
