<svg width="15" height="15" viewBox="0 0 15 15" fill="none" xmlns="http://www.w3.org/2000/svg">
<path d="M14.5083 3.57914C14.3096 2.79631 14.059 2.0276 13.7581 1.27811V1.26986C13.7553 1.26578 13.7523 1.26191 13.749 1.25832C13.745 1.2545 13.7406 1.25118 13.7358 1.24843C13.5709 1.15032 12.3095 0.715832 11.4273 0.493231C8.85801 -0.16441 6.16443 -0.16441 3.59509 0.493231C2.80805 0.689258 2.03515 0.938259 1.28169 1.23853C1.27306 1.24268 1.26502 1.24795 1.25778 1.2542C1.25476 1.25784 1.252 1.2617 1.24953 1.26574C1.15637 1.41084 0.716937 2.68956 0.493512 3.57419C-0.16452 6.14348 -0.16452 8.83716 0.493512 11.4064C0.692016 12.1894 0.942948 12.9582 1.24459 13.7075C1.24413 13.7102 1.24413 13.713 1.24459 13.7157L1.25283 13.7256V13.7297C1.31302 13.7891 2.58596 14.2467 3.57777 14.4965C6.14706 15.1545 8.84074 15.1545 11.41 14.4965C12.1943 14.2998 12.9637 14.0482 13.7127 13.7438C13.7199 13.7407 13.7266 13.7366 13.7325 13.7314C13.8009 13.663 14.2659 12.3348 14.4992 11.4064C15.1598 8.83954 15.1629 6.14757 14.5083 3.57914ZM14.369 11.2885L13.3054 11.0099L14.8331 7.8605C14.8037 9.01667 14.648 10.1662 14.369 11.2885ZM0.167034 7.8605L1.69556 11.0099L0.632023 11.2885C0.353395 10.1672 0.197482 9.01886 0.167034 7.86379V7.8605ZM0.632023 3.69703L1.69556 3.97652L0.167034 7.12509C0.197773 5.97114 0.353683 4.82393 0.632023 3.70363V3.69703ZM14.8331 7.12509L13.3054 3.97652L14.369 3.69703C14.6482 4.82051 14.8038 5.97111 14.8331 7.12839V7.12509ZM1.91586 3.83368L1.4202 1.41332L3.87705 1.89293L1.91586 3.83368ZM11.1734 1.89293L13.58 1.41249L13.1181 3.84326L12.2025 2.92761L11.1734 1.89293ZM13.082 4.01115C12.5387 6.38391 12.6986 5.68395 12.3458 7.2265L11.0407 4.15213C11.2385 4.14224 11.4174 4.1274 13.082 4.01527V4.01115ZM7.2342 12.3381L4.01885 13.0743L4.15654 11.0321L7.2342 12.3381ZM4.14499 10.8483L2.72117 7.49609L4.14499 4.14141L7.5005 2.71677L10.8552 4.14141L12.2798 7.49609L10.8552 10.8516L7.5005 12.2779L4.14499 10.8483ZM10.8453 3.95674L7.76845 2.65081L10.9838 1.91458L10.8453 3.95674ZM4.15819 3.95674L4.01885 1.91458L7.2342 2.65081L4.15819 3.95674ZM10.8453 11.0354L10.983 13.0776L7.76762 12.3414L10.8453 11.0354ZM3.96197 4.15543L2.65687 7.22979L1.92064 4.01445C3.3898 4.11585 3.81686 4.14553 3.96032 4.15543H3.96197ZM1.73101 4.28074L2.55217 7.49197L1.73101 10.7114V4.28074ZM1.92394 10.9736L2.66016 7.75826L3.96444 10.8326C3.81027 10.8466 3.53655 10.8681 1.91899 10.9777L1.92394 10.9736ZM11.0456 10.8326L12.3507 7.75826C12.6995 9.28349 12.5527 8.6396 13.0869 10.9736C11.5749 10.8763 11.1668 10.845 11.0407 10.8368L11.0456 10.8326ZM13.2692 10.7114L12.4538 7.49609L13.2692 4.28074V10.7114ZM13.0029 3.85121L11.0102 3.98971L11.1734 1.89293C11.819 2.54204 12.4499 3.17495 13.1181 3.84326L13.0029 3.85121ZM7.50297 2.53869C7.50297 2.53869 5.54329 2.04274 4.28762 1.72496H7.95394L10.7158 1.72578L7.50297 2.53869ZM3.87705 1.89293L3.99577 3.98559L1.91586 3.83368L3.87705 1.89293ZM1.73101 4.28074V10.7114L0.171985 7.49609L1.73101 4.28074ZM1.93744 11.1713L3.9933 10.9992L3.83367 13.1087L1.93744 11.1713ZM7.5005 12.4461L10.7125 13.2639H4.28185L7.5005 12.4461ZM11.1413 12.9927L11.0102 11.0025L13.0692 11.1797C12.4101 11.8308 11.8092 12.4249 11.1497 13.0776L11.1413 12.9927ZM13.2692 10.7114V4.28074L14.829 7.49609L13.2692 10.7114ZM4.28762 1.72496C5.54329 1.11612 7.50297 0.165926 7.50297 0.165926L10.7183 1.72496C8.20697 1.72496 6.09893 1.72496 4.28762 1.72496ZM3.83367 13.1087L1.4202 13.5739L1.93744 11.1713C3.05265 12.3107 2.63582 11.8848 3.83367 13.1087ZM10.7125 13.2639L7.4972 14.823L4.28185 13.2639H10.7125ZM11.1497 13.0776L12.1276 12.1098L13.0692 11.1797L13.5816 13.5731L11.1497 13.0776ZM13.2922 3.81328L13.7111 1.61036C13.9535 2.24169 14.1597 2.88636 14.3286 3.54121L13.2922 3.81328ZM11.1841 1.70517L11.4562 0.668839C12.111 0.837856 12.7557 1.04403 13.387 1.28635L11.1841 1.70517ZM11.2963 0.628441L11.0168 1.69198L7.8682 0.163452C9.02433 0.193445 10.1738 0.349081 11.2963 0.627617V0.628441ZM7.13527 0.162628L3.98588 1.69115L3.70639 0.627617C4.82911 0.34875 5.97883 0.192837 7.13527 0.162628ZM3.54727 0.668014L3.81934 1.70435L1.61147 1.28553C2.24357 1.04288 2.88907 0.836701 3.54479 0.668014H3.54727ZM1.28911 1.60953L1.70793 3.81246L0.671595 3.53874C0.841186 2.88463 1.04735 2.24055 1.28911 1.60953ZM1.70793 11.1797C1.64857 11.4922 1.38969 12.855 1.28911 13.3826C1.04735 12.7516 0.841186 12.1076 0.671595 11.4534L1.70793 11.1797ZM3.81687 13.2887L3.54479 14.3242C2.88991 14.1554 2.24524 13.9492 1.61394 13.7067L3.81687 13.2887ZM3.70392 14.3646L3.98341 13.301L7.13527 14.8337C5.97785 14.8023 4.82729 14.645 3.70392 14.3646ZM7.8682 14.8296L11.0168 13.301L11.2963 14.3646C10.174 14.6448 9.02452 14.8021 7.8682 14.8337V14.8296ZM11.4562 14.3242L11.1841 13.2887L13.387 13.7075C12.7555 13.9492 12.1109 14.1551 11.4562 14.3242ZM13.7111 13.3826L13.2922 11.1797L14.3286 11.4518C14.1594 12.1066 13.9533 12.7512 13.7111 13.3826Z" fill="#1D1D1B"/>
</svg>
