<svg width="16" height="16" viewBox="0 0 16 16" fill="none" xmlns="http://www.w3.org/2000/svg">
<path fill-rule="evenodd" clip-rule="evenodd" d="M11.5744 6.63584C11.5744 7.26258 11.451 7.88318 11.2111 8.46221C10.9713 9.04125 10.6197 9.56737 10.1766 10.0105C9.73338 10.4537 9.20726 10.8053 8.62823 11.0451C8.0492 11.2849 7.42859 11.4084 6.80185 11.4084C6.17511 11.4084 5.55451 11.2849 4.97548 11.0451C4.39645 10.8053 3.87033 10.4537 3.42715 10.0105C2.98398 9.56737 2.63244 9.04125 2.3926 8.46221C2.15275 7.88318 2.02931 7.26258 2.02931 6.63584C2.02931 5.37008 2.53213 4.15617 3.42715 3.26114C4.32218 2.36611 5.5361 1.86329 6.80185 1.86329C8.06761 1.86329 9.28153 2.36611 10.1766 3.26114C11.0716 4.15617 11.5744 5.37008 11.5744 6.63584ZM10.6322 11.4302C9.40687 12.4091 7.85326 12.8817 6.29042 12.7509C4.72758 12.6201 3.27413 11.8959 2.22858 10.7269C1.18303 9.55799 0.624752 8.03308 0.668394 6.46538C0.712036 4.89768 1.35429 3.40619 2.46325 2.29723C3.57221 1.18827 5.0637 0.546021 6.6314 0.502379C8.1991 0.458737 9.724 1.01702 10.8929 2.06257C12.0619 3.10811 12.7861 4.56156 12.9169 6.1244C13.0477 7.68725 12.5751 9.24085 11.5962 10.4661L15.4661 14.3346C15.5295 14.398 15.5797 14.4733 15.6141 14.5561C15.6484 14.6389 15.666 14.7277 15.666 14.8173C15.666 14.907 15.6484 14.9958 15.6141 15.0786C15.5797 15.1614 15.5295 15.2367 15.4661 15.3001C15.4027 15.3634 15.3274 15.4137 15.2446 15.448C15.1618 15.4823 15.073 15.5 14.9834 15.5C14.8937 15.5 14.8049 15.4823 14.7221 15.448C14.6393 15.4137 14.564 15.3634 14.5007 15.3001L10.6335 11.4302H10.6322Z" fill="#716965"/>
</svg>
