<svg width="370" height="212" viewBox="0 0 370 212" fill="none" xmlns="http://www.w3.org/2000/svg">
<path d="M100.639 106C100.639 133.332 94.783 157.541 85.8431 174.522C76.6361 192.011 65.8077 199.189 56.752 199.189C47.6963 199.189 36.8679 192.011 27.6611 174.522C18.721 157.541 12.8652 133.332 12.8652 106C12.8652 78.6676 18.721 54.4592 27.6611 37.4777C36.8679 19.9897 47.6963 12.8113 56.752 12.8113C65.8077 12.8113 76.6361 19.9897 85.8432 37.4778C94.783 54.4592 100.639 78.6676 100.639 106ZM56.752 211C69.7651 211 81.5963 202.685 90.9281 189.051C99.55 176.455 106.131 159.201 109.648 139.33C120.123 180.809 149.71 211 184.876 211C220.206 211 249.905 180.527 260.25 138.747C263.72 158.749 270.29 176.132 278.923 188.832C288.278 202.596 300.166 211 313.248 211C328.923 211 342.875 198.95 352.848 180.005C362.846 161.014 369 134.848 369 106C369 77.1522 362.846 50.9858 352.848 31.995C342.875 13.0504 328.923 1 313.248 1C300.166 1 288.278 9.40395 278.923 23.1675C270.29 35.8677 263.72 53.2513 260.25 73.2533C249.905 31.4726 220.206 1 184.876 1C149.71 1 120.123 31.1908 109.648 72.6704C106.131 52.7995 99.55 35.5452 90.9281 22.9489C81.5963 9.3154 69.7651 1 56.752 1C41.0768 1 27.1253 13.0504 17.1516 31.995C7.1537 50.9858 1 77.1522 1 106C1 134.848 7.1537 161.014 17.1516 180.005C27.1253 198.95 41.0768 211 56.752 211ZM252.316 106C252.316 132.609 244.181 156.281 231.55 173.057C218.922 189.829 202.309 199.189 184.876 199.189C167.444 199.189 150.83 189.829 138.202 173.057C125.571 156.281 117.437 132.609 117.437 106C117.437 79.3914 125.571 55.7193 138.202 38.9432C150.83 22.1711 167.444 12.8113 184.876 12.8113C202.309 12.8113 218.922 22.1711 231.55 38.9432C244.181 55.7193 252.316 79.3914 252.316 106ZM357.135 106C357.135 133.332 351.279 157.541 342.339 174.522C333.132 192.011 322.304 199.189 313.248 199.189C304.192 199.189 293.364 192.011 284.157 174.522C275.217 157.541 269.361 133.332 269.361 106C269.361 78.6676 275.217 54.4592 284.157 37.4777C293.364 19.9897 304.192 12.8113 313.248 12.8113C322.304 12.8113 333.132 19.9897 342.339 37.4777C351.279 54.4592 357.135 78.6676 357.135 106Z" fill="#E4BD59" stroke="#E4BD59" stroke-width="2"/>
</svg>
