<svg width="11" height="19" viewBox="0 0 11 19" fill="none" xmlns="http://www.w3.org/2000/svg">
<path d="M5.17012 0.0141492L5.15944 0.00921703C5.14775 0.00316312 5.13478 0 5.12162 0C5.10846 0 5.09549 0.00316312 5.08381 0.00921703H5.07969C3.69478 0.903136 2.52586 2.09368 1.65747 3.49474C0.840921 4.81592 0.310794 6.29379 0.10136 7.83276C-0.108074 9.37172 0.00785523 10.9375 0.441652 12.4288C0.72114 13.3914 1.13133 14.3111 1.66076 15.1622C2.52838 16.5628 3.69612 17.7532 5.07969 18.6477C5.09052 18.654 5.10255 18.658 5.115 18.6594C5.12746 18.6608 5.14006 18.6596 5.15203 18.6559C5.22026 18.6321 6.20591 17.9884 7.11428 17.0546C8.25894 15.8783 9.12791 14.4624 9.65834 12.9091C10.1888 11.3559 10.3674 9.70424 10.1814 8.07352C9.99533 6.44281 9.44922 4.87381 8.58256 3.47999C7.71589 2.08617 6.55031 0.902354 5.17012 0.0141492ZM9.62978 12.4593C9.38437 13.282 9.04191 14.0727 8.60961 14.8145L8.65318 12.0704L9.62978 12.4593ZM8.65318 6.59143L8.60961 3.8474C9.04164 4.58934 9.38409 5.37993 9.62978 6.20259L8.65318 6.59143ZM6.43938 15.6998L5.12409 18.3896C4.76156 17.6448 5.14793 18.443 3.80879 15.6998L5.12409 15.2066L6.43938 15.6998ZM5.12409 3.45939L3.80879 2.96615L5.12409 0.276386C5.18081 0.391474 5.47675 0.992395 6.43938 2.96615L5.12409 3.45939ZM10.0696 9.33134L8.5981 11.749C8.22324 10.483 8.25202 10.5817 7.88209 9.33134L8.5981 6.91285L10.0696 9.33134ZM6.80108 5.58523L7.7111 9.33134L6.80108 13.0766C6.70244 13.1893 5.19314 14.9115 5.12409 14.9912C5.06983 14.9304 3.45366 13.0849 3.44626 13.0766L2.53625 9.33134L3.44626 5.58523L5.12409 3.67066L6.80108 5.58523ZM5.26548 3.58187C5.37399 3.54241 5.52032 3.48569 6.48377 3.1207L6.7608 5.28929C6.05219 4.48038 5.36741 3.69614 5.2663 3.58187H5.26548ZM4.98352 3.58187C4.90131 3.67805 4.87911 3.70025 3.48737 5.28929L3.7644 3.1207L4.98352 3.58187ZM4.98352 15.0792C4.73032 15.1729 5.18574 15.0044 3.76605 15.5412L3.48901 13.3726L4.98352 15.0792ZM6.76245 13.3726L6.48541 15.5412C4.89062 14.9378 5.57539 15.1934 5.26712 15.0783C5.37317 14.9583 5.68884 14.5983 6.76163 13.3726H6.76245ZM7.80564 9.64701L8.47808 11.9167L7.00907 12.9262C7.42585 11.2048 7.3831 11.3807 7.80481 9.64701H7.80564ZM8.47808 6.74597L7.80564 9.01485L7.00907 5.73649L8.47808 6.74597ZM3.2424 5.73649L2.44583 9.01485L1.77338 6.74597C2.53789 6.21985 2.47459 6.2626 3.24157 5.73649H3.2424ZM1.65172 6.91285L2.36773 9.33134C1.71583 11.5312 1.84983 11.0799 1.65172 11.749L0.181057 9.33134L1.65172 6.91285ZM1.77338 11.9167L2.44583 9.64701L3.2424 12.9262L1.77338 11.9167ZM8.44108 3.60407C8.46246 4.94896 8.45013 4.15074 8.48795 6.55197L6.95399 5.49809C6.87671 4.89141 6.72709 3.72162 6.64982 3.11412L8.44108 3.60407ZM3.59999 3.11741C3.52189 3.72327 3.3731 4.89141 3.29501 5.50138L1.76187 6.55526C1.79969 4.15321 1.78736 4.94895 1.80791 3.60736L3.59999 3.11741ZM1.59664 6.58978L0.620855 6.20095C0.865878 5.37818 1.20808 4.58754 1.64021 3.84576L1.59664 6.58978ZM0.574825 6.35961L1.55553 6.75008L0.169547 9.02965C0.19365 8.12683 0.329788 7.23051 0.574825 6.36125V6.35961ZM1.55553 11.9085L0.574825 12.299C0.329712 11.4294 0.193574 10.5328 0.169547 9.62975C0.887202 10.8102 0.8387 10.7255 1.55553 11.9068V11.9085ZM1.59664 12.0729L1.64021 14.8161C1.20793 14.0744 0.865724 13.2837 0.620855 12.4609L1.59664 12.0729ZM1.80791 15.0578C1.78654 13.7113 1.79969 14.5021 1.76187 12.1099L3.29501 13.1638C3.3731 13.7713 3.52272 14.9402 3.59999 15.5477L1.80791 15.0578ZM6.64982 15.5444C6.72709 14.9386 6.87671 13.7704 6.95399 13.1605L8.48795 12.1066C8.44931 14.5177 8.46246 13.7096 8.44108 15.0545L6.64982 15.5444ZM8.69346 6.75337L9.67993 6.36289C9.92467 7.23275 10.0605 8.12961 10.0844 9.03293L8.69346 6.75337ZM6.66133 2.953L7.08634 1.81692C7.55197 2.30829 7.9716 2.8413 8.33997 3.40924L6.66133 2.953ZM6.95974 1.68621L6.54296 2.80092L5.33207 0.315843C5.91744 0.718594 6.46253 1.17697 6.95974 1.68457V1.68621ZM4.91775 0.315843L3.70686 2.79599L3.29007 1.68128C3.78725 1.17463 4.33236 0.717346 4.91775 0.315843ZM3.16348 1.81199L3.58848 2.94807L1.90738 3.4076C2.27619 2.83931 2.69668 2.30627 3.16348 1.81527V1.81199ZM3.58848 15.7047L3.16348 16.8408C2.69658 16.352 2.27607 15.8209 1.90738 15.2543L3.58848 15.7047ZM3.29007 16.9715C3.40434 16.6649 3.6189 16.0919 3.70686 15.8568L4.91775 18.337C4.33243 17.9375 3.78731 17.4822 3.29007 16.9773V16.9715ZM5.33207 18.337L6.54296 15.8568L6.95974 16.9715C6.46286 17.4802 5.91775 17.9394 5.33207 18.3427V18.337ZM7.08634 16.8408L6.66133 15.7047L8.33997 15.2485C7.97189 15.8184 7.55225 16.3534 7.08634 16.8466V16.8408ZM9.67581 12.2949L8.68935 11.9044L10.0762 9.62481C10.0541 10.5299 9.91964 11.4287 9.67581 12.3006V12.2949Z" fill="#1D1D1B"/>
</svg>
