<svg width="87" height="21" viewBox="0 0 87 21" fill="none" xmlns="http://www.w3.org/2000/svg">
<g clip-path="url(#clip0_338_2896)">
<path fill-rule="evenodd" clip-rule="evenodd" d="M7.563 4.94336H13.4861C16.6663 4.94336 17.8635 6.55333 17.6785 8.91861C17.3727 12.8235 15.012 14.9839 11.8807 14.9839H10.2998C9.87018 14.9839 9.58121 15.2683 9.46501 16.0389L8.7938 20.5187C8.74946 20.8092 8.59657 20.9774 8.36723 21.0003H4.64579C4.29566 21.0003 4.17181 20.7327 4.26355 20.1533L6.5325 5.79192C6.62118 5.21704 6.93614 4.94336 7.563 4.94336Z" fill="#009EE3"/>
<path fill-rule="evenodd" clip-rule="evenodd" d="M33.279 4.67725C35.2773 4.67725 37.1212 5.76127 36.8689 8.4629C36.5631 11.6737 34.8431 13.4503 32.1292 13.458H29.7578C29.4169 13.458 29.2517 13.7362 29.1631 14.3065L28.7044 17.2222C28.6356 17.6625 28.4093 17.8796 28.076 17.8796H25.8697C25.5181 17.8796 25.3958 17.6549 25.4737 17.1519L27.2947 5.46618C27.3849 4.8913 27.6005 4.67725 27.9934 4.67725H33.2744H33.279ZM29.686 10.9337H31.4825C32.6062 10.8909 33.3524 10.1126 33.4273 8.70906C33.4731 7.84215 32.8876 7.2214 31.9564 7.22599L30.2654 7.23364L29.686 10.9337ZM42.867 16.9852C43.0688 16.8017 43.2737 16.707 43.2446 16.9332L43.1727 17.4745C43.1361 17.7573 43.2477 17.9072 43.5106 17.9072H45.4707C45.801 17.9072 45.9615 17.7742 46.0426 17.2635L47.2504 9.683C47.3116 9.30229 47.2183 9.11576 46.9294 9.11576H44.7735C44.5794 9.11576 44.4846 9.22431 44.4341 9.52093L44.3546 9.98725C44.3133 10.2304 44.2017 10.2732 44.0978 10.0285C43.7323 9.16316 42.7997 8.77481 41.4986 8.80539C38.4758 8.86807 36.4378 11.163 36.2191 14.1047C36.0509 16.3798 37.6808 18.1671 39.8305 18.1671C41.39 18.1671 42.0872 17.7084 42.8731 16.9898L42.867 16.9852ZM41.2249 15.8186C39.9237 15.8186 39.0171 14.7805 39.2051 13.5084C39.3932 12.2363 40.6102 11.1982 41.9114 11.1982C43.2125 11.1982 44.1192 12.2363 43.9311 13.5084C43.743 14.7805 42.5275 15.8186 41.2249 15.8186ZM51.0865 9.0913H49.0989C48.6892 9.0913 48.5225 9.39708 48.6525 9.7732L51.1202 16.999L48.6999 20.4376C48.4965 20.725 48.654 20.9865 48.9399 20.9865H51.1737C51.3039 21.0015 51.4357 20.9788 51.5533 20.9211C51.6709 20.8633 51.7695 20.773 51.8373 20.6608L59.4269 9.77473C59.6608 9.4399 59.5508 9.08824 59.167 9.08824H57.0525C56.6901 9.08824 56.5449 9.23196 56.3369 9.53316L53.172 14.12L51.7577 9.52246C51.6752 9.24419 51.4688 9.0913 51.0881 9.0913H51.0865Z" fill="#113984"/>
<path fill-rule="evenodd" clip-rule="evenodd" d="M67.3224 4.67689C69.3207 4.67689 71.1646 5.76091 70.9123 8.46255C70.6065 11.6733 68.8865 13.4499 66.1726 13.4576H63.8027C63.4618 13.4576 63.2967 13.7359 63.208 14.3062L62.7493 17.2218C62.6805 17.6622 62.4542 17.8793 62.1209 17.8793H59.9146C59.563 17.8793 59.4407 17.6545 59.5187 17.1515L61.3427 5.46276C61.4329 4.88788 61.6485 4.67383 62.0414 4.67383H67.3224V4.67689ZM63.7294 10.9333H65.5259C66.6496 10.8905 67.3958 10.1123 67.4707 8.7087C67.5165 7.8418 66.931 7.22104 65.9998 7.22563L64.3088 7.23328L63.7294 10.9333ZM76.9104 16.9849C77.1122 16.8014 77.317 16.7066 77.288 16.9329L77.2161 17.4741C77.1794 17.757 77.2911 17.9068 77.554 17.9068H79.5141C79.8444 17.9068 80.0049 17.7738 80.086 17.2631L81.2938 9.68264C81.355 9.30193 81.2617 9.1154 80.9727 9.1154H78.82C78.6258 9.1154 78.531 9.22396 78.4806 9.52057L78.4011 9.9869C78.3598 10.23 78.2482 10.2728 78.1442 10.0282C77.7788 9.1628 76.8461 8.77445 75.545 8.80503C72.5223 8.86772 70.4842 11.1627 70.2656 14.1043C70.0974 16.3794 71.7272 18.1667 73.8769 18.1667C75.4364 18.1667 76.1337 17.708 76.9195 16.9894L76.9104 16.9849ZM75.2698 15.8183C73.9687 15.8183 73.062 14.7801 73.2501 13.5081C73.4381 12.236 74.6552 11.1978 75.9563 11.1978C77.2574 11.1978 78.1641 12.236 77.976 13.5081C77.788 14.7801 76.5709 15.8183 75.2698 15.8183ZM84.3104 17.919H82.0476C82.0082 17.9208 81.969 17.9138 81.9326 17.8987C81.8962 17.8835 81.8637 17.8605 81.8372 17.8313C81.8108 17.8021 81.7912 17.7674 81.7797 17.7297C81.7682 17.692 81.7652 17.6522 81.7709 17.6133L83.7585 5.0209C83.7774 4.93496 83.8249 4.85797 83.8932 4.80245C83.9615 4.74693 84.0466 4.71615 84.1346 4.71511H86.3974C86.4368 4.71335 86.476 4.7203 86.5124 4.73547C86.5488 4.75065 86.5813 4.77366 86.6078 4.80287C86.6342 4.83208 86.6539 4.86677 86.6653 4.90446C86.6768 4.94215 86.6798 4.98191 86.6742 5.0209L84.6865 17.6133C84.6682 17.6998 84.6209 17.7774 84.5526 17.8336C84.4842 17.8897 84.3988 17.9209 84.3104 17.9221V17.919Z" fill="#009EE3"/>
<path fill-rule="evenodd" clip-rule="evenodd" d="M3.85879 0H9.78802C11.4576 0 13.4391 0.0535129 14.7632 1.22315C15.6484 2.00444 16.1132 3.24747 16.0062 4.58682C15.6423 9.11402 12.9346 11.6505 9.30182 11.6505H6.37848C5.88005 11.6505 5.55133 11.9808 5.41066 12.8737L4.59421 18.0721C4.5407 18.4084 4.39545 18.6072 4.13553 18.6317H0.476773C0.0716033 18.6317 -0.0721185 18.3259 0.0333784 17.6501L2.66316 0.987694C2.76865 0.318018 3.13713 0 3.85879 0Z" fill="#113984"/>
<path fill-rule="evenodd" clip-rule="evenodd" d="M5.49609 12.3461L6.53119 5.7915C6.62139 5.21662 6.93636 4.94141 7.56322 4.94141H13.4863C14.4664 4.94141 15.2599 5.0943 15.8807 5.37716C15.2859 9.40744 12.6791 11.6458 9.26646 11.6458H6.34771C5.95631 11.6473 5.66886 11.843 5.49609 12.3461Z" fill="#172C70"/>
</g>
<defs>
<clipPath id="clip0_338_2896">
<rect width="86.6802" height="21" fill="white"/>
</clipPath>
</defs>
</svg>
