<svg width="16" height="16" viewBox="0 0 16 16" fill="none" xmlns="http://www.w3.org/2000/svg">
<path d="M15.0023 7.50924C15.0023 2.1827 9.57193 -1.47053 4.62951 0.57782C2.79247 1.34128 1.33254 2.80121 0.56908 4.63825C-0.189693 6.47705 -0.189693 8.54144 0.56908 10.3802C2.61166 15.307 9.02378 16.5953 12.8056 12.8135C13.5033 12.1178 14.0565 11.291 14.4335 10.3807C14.8105 9.47037 15.0038 8.49452 15.0023 7.50924ZM2.44763 12.8267C4.48032 12.7163 4.97736 12.6915 5.27163 12.675L4.61632 14.2568C3.81377 13.9136 3.07925 13.4292 2.44763 12.8267ZM2.18386 12.5629C1.58129 11.9312 1.09666 11.1967 0.752896 10.3942L2.33882 9.73481L2.18386 12.5629ZM14.7963 7.50924L12.5971 9.47929L11.5255 7.50924L12.5971 5.5392L14.7963 7.50924ZM10.1539 4.58632L7.69256 3.56751L9.55215 2.55776L10.1539 4.58632ZM10.2215 4.7891L11.3466 7.50924C10.9295 8.51652 11.1752 7.92139 10.2215 10.2294L7.50133 11.3545L4.78118 10.2294C3.82666 7.92551 4.07312 8.51899 3.65521 7.50924C4.07312 6.50196 3.82666 7.0971 4.78118 4.7891L7.50133 3.66312L10.2215 4.7891ZM10.1564 10.4289L9.55462 12.4583L7.69503 11.4477L10.1564 10.4289ZM3.56206 7.31471L2.54901 5.45842L4.57923 4.85669C4.21819 5.72878 3.947 6.38409 3.55959 7.31801L3.56206 7.31471ZM4.5817 10.1585L2.55149 9.55677L3.56206 7.69718L4.5817 10.1585ZM5.45297 2.55446L7.31256 3.56421L4.85207 4.58303C5.58898 2.08791 5.34911 2.90313 5.4505 2.55776L5.45297 2.55446ZM5.45297 12.4583C5.35901 12.1368 5.4472 12.4401 4.85207 10.4289L7.31256 11.4477L5.45297 12.4583ZM12.4553 9.55677L10.4267 10.1585C10.7828 9.29712 11.0861 8.55773 11.4455 7.69718C11.7975 8.35166 12.0563 8.8281 12.4528 9.56007L12.4553 9.55677ZM11.4455 7.31471L10.4267 4.85422L12.4553 5.45512L11.4455 7.31471ZM12.4998 5.29603L10.3509 4.65969L9.71371 2.50995L12.6622 2.34509C12.5798 3.80408 12.5863 3.68785 12.4973 5.29933L12.4998 5.29603ZM3.47551 7.50924L2.40394 9.47929L0.206394 7.50924L2.40559 5.5392L3.47551 7.50924ZM4.65507 10.3563C5.14964 12.0173 4.80261 10.8509 5.29141 12.5061L2.34294 12.6709L2.5078 9.72245L4.65507 10.3563ZM7.50133 11.5351L9.47137 12.6066L7.50133 14.8042L5.53046 12.6058L7.50133 11.5351ZM10.3484 10.3563L12.4973 9.71915C12.5847 11.3043 12.5798 11.2482 12.6622 12.6676L9.71371 12.5028L10.3484 10.3563ZM12.6638 5.28367L12.8196 2.45719C13.4212 3.08877 13.9052 3.82262 14.2489 4.62424L12.6638 5.28367ZM9.47137 2.41433L7.50133 3.4859C4.30722 1.7549 6.10911 2.71767 5.53211 2.41433L7.50133 0.21431L9.47137 2.41433ZM5.29141 2.51242L4.65507 4.66298L2.5045 5.29933L2.33965 2.35086L5.29141 2.51242ZM2.33882 5.28367L0.752896 4.62424C1.09666 3.82175 1.58129 3.08727 2.18386 2.45554C2.25722 3.79995 2.26464 3.92854 2.33882 5.28367ZM5.42577 12.7369L7.31504 14.8454C6.44174 14.8253 5.57922 14.648 4.76882 14.322L5.42577 12.7369ZM12.6638 9.73481L14.2489 10.3942C13.9057 11.1969 13.4216 11.9316 12.8196 12.5638L12.6638 9.73481ZM14.3124 10.2393L12.7265 9.57985L14.8375 7.69553C14.8166 8.56862 14.6387 9.43083 14.3124 10.2409V10.2393ZM12.7265 5.43287L14.3124 4.77344C14.6392 5.58483 14.8171 6.44847 14.8375 7.32295L12.7265 5.43287ZM9.7269 2.34674L10.3863 0.761636C11.1896 1.10458 11.9247 1.58898 12.5567 2.19177L9.7269 2.34674ZM10.2314 0.698166L9.57193 2.28327L7.68844 0.173096C8.56135 0.193974 9.42334 0.372124 10.233 0.69899L10.2314 0.698166ZM5.42577 2.28327L4.76634 0.69899C5.57739 0.371899 6.44077 0.19375 7.31504 0.173096L5.42577 2.28327ZM4.61632 0.761636L5.27575 2.34674L2.44763 2.19177C3.07925 1.58929 3.81377 1.10491 4.61632 0.761636ZM0.69025 4.77756L2.27535 5.43699L0.16518 7.32295C0.185913 6.44984 0.363777 5.5876 0.69025 4.77756ZM2.27535 9.58397L0.69025 10.2434C0.363417 9.4326 0.185545 8.56949 0.16518 7.69553L2.27535 9.58397ZM9.57688 12.7352L10.2363 14.3203C9.42544 14.6469 8.56237 14.8248 7.68844 14.8454L9.57688 12.7352ZM10.3863 14.2568L9.7269 12.6726L12.5534 12.8267C11.9225 13.4294 11.1885 13.9138 10.3863 14.2568Z" fill="#1D1D1B"/>
</svg>
