<svg width="15" height="18" viewBox="0 0 15 18" fill="none" xmlns="http://www.w3.org/2000/svg">
<path d="M3.54051 4.04607C3.45954 2.76306 3.84039 1.67447 4.82452 0.841289C5.47957 0.27488 6.32355 -0.0248062 7.18912 0.00160872C8.25121 0.0216011 9.13837 0.436443 9.84311 1.23214C10.5478 2.02784 10.7962 2.98148 10.7278 4.04657C11.1801 4.04657 11.6094 4.04057 12.0388 4.04657C12.4773 4.05494 12.8972 4.22531 13.2177 4.52489C13.5381 4.82442 13.7363 5.23197 13.7741 5.66895C13.8076 6.09229 13.8241 6.51863 13.8436 6.94147C13.9412 8.98869 14.0379 11.0359 14.1335 13.0831C14.1805 14.0878 14.2334 15.0929 14.2679 16.098C14.3069 17.1751 13.5182 17.9973 12.4411 17.9973C8.90481 18.0009 5.36831 18.0009 1.83166 17.9973C0.754065 17.9973 -0.0436314 17.1766 0.00185127 16.1025C0.0923168 13.9738 0.198776 11.8456 0.298239 9.71741C0.353717 8.53137 0.405698 7.34532 0.463676 6.15927C0.467679 5.91601 0.491415 5.67345 0.534649 5.43404C0.620821 5.04324 0.836998 4.69327 1.14785 4.44122C1.4587 4.18921 1.84583 4.05008 2.246 4.04657C2.66934 4.04157 3.09218 4.04607 3.54051 4.04607ZM7.13664 16.7982C8.89862 16.7982 10.6606 16.7982 12.4226 16.7982C12.841 16.7982 13.0834 16.5433 13.0724 16.125C13.0664 15.9251 13.0589 15.7251 13.0499 15.5252C12.9543 13.4966 12.8585 11.4681 12.7625 9.43952C12.706 8.24697 12.654 7.05493 12.5916 5.86288C12.5686 5.42105 12.3302 5.21862 11.8843 5.22112C10.9597 5.22612 10.0349 5.22962 9.10989 5.23162C6.86074 5.23762 4.6116 5.24312 2.36245 5.24811C1.94111 5.24811 1.7127 5.45553 1.68721 5.88087C1.65722 6.36719 1.64173 6.8545 1.61924 7.34132C1.48229 10.2502 1.34551 13.159 1.20889 16.0675C1.1859 16.5618 1.41481 16.7982 1.90863 16.7987L7.13664 16.7982ZM9.52723 4.03707C9.61319 2.93749 9.27082 2.04683 8.29619 1.50454C7.41453 1.01422 6.52287 1.0812 5.70818 1.67747C4.91548 2.25675 4.65858 3.07944 4.75104 4.03707H9.52723Z" fill="#3D3937"/>
</svg>
