<svg width="40" height="40" viewBox="0 0 40 40" fill="none" xmlns="http://www.w3.org/2000/svg">
<path d="M8.33334 36.6663C7.41667 36.6663 6.63167 36.3397 5.97834 35.6863C5.325 35.033 4.99889 34.2486 5 33.333V9.99967C5 9.08301 5.32667 8.29801 5.98 7.64467C6.63334 6.99134 7.41778 6.66523 8.33334 6.66634H10V3.33301H13.3333V6.66634H26.6667V3.33301H30V6.66634H31.6667C32.5833 6.66634 33.3683 6.99301 34.0217 7.64634C34.675 8.29967 35.0011 9.08412 35 9.99967V33.333C35 34.2497 34.6733 35.0347 34.02 35.688C33.3667 36.3413 32.5822 36.6674 31.6667 36.6663H8.33334ZM8.33334 33.333H31.6667V16.6663H8.33334V33.333ZM8.33334 13.333H31.6667V9.99967H8.33334V13.333ZM20 23.333C19.5278 23.333 19.1317 23.173 18.8117 22.853C18.4917 22.533 18.3322 22.1375 18.3333 21.6663C18.3333 21.1941 18.4933 20.798 18.8133 20.478C19.1333 20.158 19.5289 19.9986 20 19.9997C20.4722 19.9997 20.8683 20.1597 21.1883 20.4797C21.5083 20.7997 21.6678 21.1952 21.6667 21.6663C21.6667 22.1386 21.5067 22.5347 21.1867 22.8547C20.8667 23.1747 20.4711 23.3341 20 23.333ZM13.3333 23.333C12.8611 23.333 12.465 23.173 12.145 22.853C11.825 22.533 11.6656 22.1375 11.6667 21.6663C11.6667 21.1941 11.8267 20.798 12.1467 20.478C12.4667 20.158 12.8622 19.9986 13.3333 19.9997C13.8056 19.9997 14.2017 20.1597 14.5217 20.4797C14.8417 20.7997 15.0011 21.1952 15 21.6663C15 22.1386 14.84 22.5347 14.52 22.8547C14.2 23.1747 13.8044 23.3341 13.3333 23.333ZM26.6667 23.333C26.1944 23.333 25.7983 23.173 25.4783 22.853C25.1583 22.533 24.9989 22.1375 25 21.6663C25 21.1941 25.16 20.798 25.48 20.478C25.8 20.158 26.1956 19.9986 26.6667 19.9997C27.1389 19.9997 27.535 20.1597 27.855 20.4797C28.175 20.7997 28.3344 21.1952 28.3333 21.6663C28.3333 22.1386 28.1733 22.5347 27.8533 22.8547C27.5333 23.1747 27.1378 23.3341 26.6667 23.333ZM20 29.9997C19.5278 29.9997 19.1317 29.8397 18.8117 29.5197C18.4917 29.1997 18.3322 28.8041 18.3333 28.333C18.3333 27.8608 18.4933 27.4647 18.8133 27.1447C19.1333 26.8247 19.5289 26.6652 20 26.6663C20.4722 26.6663 20.8683 26.8263 21.1883 27.1463C21.5083 27.4663 21.6678 27.8619 21.6667 28.333C21.6667 28.8052 21.5067 29.2013 21.1867 29.5213C20.8667 29.8413 20.4711 30.0008 20 29.9997ZM13.3333 29.9997C12.8611 29.9997 12.465 29.8397 12.145 29.5197C11.825 29.1997 11.6656 28.8041 11.6667 28.333C11.6667 27.8608 11.8267 27.4647 12.1467 27.1447C12.4667 26.8247 12.8622 26.6652 13.3333 26.6663C13.8056 26.6663 14.2017 26.8263 14.5217 27.1463C14.8417 27.4663 15.0011 27.8619 15 28.333C15 28.8052 14.84 29.2013 14.52 29.5213C14.2 29.8413 13.8044 30.0008 13.3333 29.9997ZM26.6667 29.9997C26.1944 29.9997 25.7983 29.8397 25.4783 29.5197C25.1583 29.1997 24.9989 28.8041 25 28.333C25 27.8608 25.16 27.4647 25.48 27.1447C25.8 26.8247 26.1956 26.6652 26.6667 26.6663C27.1389 26.6663 27.535 26.8263 27.855 27.1463C28.175 27.4663 28.3344 27.8619 28.3333 28.333C28.3333 28.8052 28.1733 29.2013 27.8533 29.5213C27.5333 29.8413 27.1378 30.0008 26.6667 29.9997Z" fill="#A0A0A1"/>
</svg>
