<svg width="20" height="20" viewBox="0 0 20 20" fill="none" xmlns="http://www.w3.org/2000/svg">
<path fill-rule="evenodd" clip-rule="evenodd" d="M19.6933 0.224719H0.419101L5.67303 2.35955H14.4371L19.6933 0.224719ZM0.224719 19.6933V0.296629L0.249438 0.360674L2.24719 5.48764V14.7708L0.246067 19.6416L0.224719 19.6933ZM2.47191 14.2236V6.06742L4.10112 10.2809L4.0764 10.3258L2.47191 14.2236ZM4.1573 10.7056L2.47191 14.8157V14.9438H5.08315L4.1573 10.7056ZM5.16854 15.0427V14.9438L5.32022 14.9775L9.59663 15.8067L5.16854 17.6056V15.0427ZM5.26854 14.7382L4.31798 10.3719L5.43146 5.34831L9.99326 4.32022L14.7191 5.38539L15.7697 10.209L14.7494 14.8921L10.1067 15.6787L5.26854 14.7382ZM5.20449 5.3382L4.21011 9.90562L2.47191 5.44494V5.2809H5.16854V2.58427H5.62921L9.57641 4.18764L5.16854 5.1809V5.2809H5.20449V5.3382ZM9.87753 4.06742L9.99326 4.1133L10.1591 4.06742L13.8865 2.58427H6.22584L9.87753 4.06742ZM14.9697 14.9438L15.9112 10.6202L17.6404 14.8315V14.9438H14.9697ZM10.1045 15.9045L10.2 15.9225L14.4281 17.6404H5.67978L9.84382 15.9483L10.1045 15.9045ZM14.8315 17.5618L10.5618 15.827L14.8315 15.1067V17.5618ZM14.8315 5.17978V2.58427H14.4831L10.4921 4.20562L14.8315 5.17978ZM14.927 5.2809L15.9225 9.85506L17.6404 5.44494V5.2809H14.927ZM16.0146 10.2787L16.009 10.2517L17.6404 6.06742V14.2382L16.0146 10.2787ZM5.05618 2.35955H5.0764L0.553933 0.522472L2.32022 5.05618H4.94382V2.35955H5.05618ZM17.8652 5.48764V14.782L19.7753 19.4315V0.585393L17.8652 5.48764ZM17.7921 5.05618H15.0562V2.35955H15.036L19.5584 0.522472L17.7921 5.05618ZM14.9831 17.8652L19.6843 19.7753H0.425843L5.12697 17.8652H14.9809H14.9831ZM19.5506 19.4798L15.0562 17.6528V15.1685H17.7809L19.5506 19.4798ZM2.32697 15.1685L0.555056 19.4798L4.94382 17.6966V15.1685H2.32697ZM0 0H20V20H0V0Z" fill="black"/>
</svg>
