<svg width="104" height="20" viewBox="0 0 104 20" fill="none" xmlns="http://www.w3.org/2000/svg">
<mask id="mask0_338_2916" style="mask-type:luminance" maskUnits="userSpaceOnUse" x="0" y="0" width="104" height="20">
<path d="M103.75 0H0V20H103.75V0Z" fill="white"/>
</mask>
<g mask="url(#mask0_338_2916)">
<path fill-rule="evenodd" clip-rule="evenodd" d="M40.9393 15.6449C37.1053 18.4881 31.5468 20.0001 26.76 20.0001C20.0518 20.0001 14.0107 17.5083 9.43904 13.3604C9.0805 13.0344 9.40024 12.5896 9.83167 12.8418C14.7636 15.7258 20.8635 17.4628 27.1626 17.4628C31.4122 17.4628 36.0838 16.5763 40.3821 14.7442C41.0304 14.4684 41.5741 15.1736 40.9393 15.6449Z" fill="#F79C34"/>
<path fill-rule="evenodd" clip-rule="evenodd" d="M42.535 13.8137C42.0442 13.1829 39.2934 13.5148 38.0574 13.6637C37.683 13.7091 37.6248 13.3802 37.9621 13.1422C40.1569 11.593 43.7534 12.0401 44.1713 12.5592C44.5922 13.0819 44.0602 16.7053 42.0042 18.4341C41.6874 18.6998 41.3865 18.5581 41.527 18.2073C41.9901 17.0455 43.0258 14.4456 42.535 13.8137Z" fill="#F79C34"/>
<path fill-rule="evenodd" clip-rule="evenodd" d="M38.1444 2.19941V0.694526C38.1455 0.465367 38.3172 0.312988 38.5241 0.313579L45.2375 0.312988C45.4521 0.312988 45.6249 0.469501 45.6249 0.692754V1.98325C45.6225 2.2 45.4409 2.48232 45.1194 2.93059L41.6416 7.92011C42.9323 7.88999 44.2977 8.0843 45.4709 8.74638C45.7354 8.89581 45.8065 9.11729 45.8271 9.33404V10.9399C45.8271 11.1614 45.5861 11.4171 45.3322 11.2843C43.2662 10.1963 40.5242 10.0776 38.239 11.2972C38.0056 11.4225 37.7617 11.1697 37.7617 10.9482V9.42145C37.7617 9.17753 37.7664 8.75938 38.0115 8.38729L42.0401 2.57918L38.5323 2.57859C38.3177 2.57859 38.1455 2.42503 38.1444 2.19941Z" fill="#333E47"/>
<path fill-rule="evenodd" clip-rule="evenodd" d="M13.6556 11.6002H11.6132C11.4186 11.5878 11.2634 11.4413 11.2476 11.2535L11.2493 0.719899C11.2493 0.50964 11.4257 0.341314 11.6437 0.341314L13.5457 0.340724C13.7444 0.350764 13.9043 0.501962 13.9166 0.694502V2.06945H13.9554C14.4509 0.739389 15.3849 0.118652 16.6433 0.118652C17.9205 0.118652 18.7216 0.739389 19.2935 2.06945C19.789 0.739389 20.914 0.118652 22.1148 0.118652C22.973 0.118652 23.9069 0.473612 24.4788 1.27153C25.1271 2.15864 24.9943 3.44382 24.9943 4.57425L24.9919 11.2216C24.9919 11.4313 24.8162 11.6002 24.5981 11.6002H22.5586C22.3529 11.5872 22.1918 11.4242 22.1918 11.2222L22.1912 5.63795C22.1912 5.19499 22.2294 4.087 22.1336 3.66589C21.9814 2.95597 21.5241 2.75634 20.9334 2.75634C20.4373 2.75634 19.9224 3.08886 19.7126 3.62041C19.5028 4.15314 19.5222 5.03907 19.5222 5.63795V11.2216C19.5222 11.4313 19.3458 11.6002 19.1284 11.6002H17.0882C16.8831 11.5872 16.7214 11.4242 16.7214 11.2222L16.7191 5.63795C16.7191 4.46322 16.9101 2.73508 15.4613 2.73508C13.993 2.73508 14.0506 4.41892 14.0506 5.63795L14.0495 11.2216C14.0495 11.4313 13.8731 11.6002 13.6556 11.6002Z" fill="#333E47"/>
<path fill-rule="evenodd" clip-rule="evenodd" d="M51.4227 2.26908C49.9169 2.26908 49.8216 4.32974 49.8216 5.61551C49.8216 6.90128 49.8028 9.65 51.4045 9.65C52.9868 9.65 53.0632 7.43342 53.0632 6.0815C53.0632 5.19499 53.0244 4.1307 52.7575 3.28848C52.5289 2.55671 52.071 2.26908 51.4227 2.26908ZM51.4045 0.118652C54.4356 0.118652 56.0749 2.73508 56.0749 6.05965C56.0749 9.2726 54.264 11.8223 51.4045 11.8223C48.4298 11.8223 46.8093 9.20645 46.8093 5.94861C46.8093 2.66775 48.4486 0.118652 51.4045 0.118652Z" fill="#333E47"/>
<path fill-rule="evenodd" clip-rule="evenodd" d="M60.0065 11.6002H57.971C57.7671 11.5872 57.6048 11.4242 57.6048 11.2222L57.6013 0.685052C57.619 0.491921 57.7882 0.341314 57.9939 0.341314L59.8883 0.340724C60.067 0.350174 60.214 0.47184 60.2516 0.635441V2.24664H60.2898C60.8623 0.805538 61.6622 0.118652 63.0729 0.118652C63.988 0.118652 64.8844 0.451169 65.4563 1.36013C65.99 2.20234 65.99 3.62041 65.99 4.6404V11.2689C65.9676 11.4555 65.8007 11.6002 65.5985 11.6002H63.5513C63.362 11.5884 63.2098 11.4484 63.1875 11.2689V5.54995C63.1875 4.39707 63.3215 2.71204 61.9103 2.71204C61.4148 2.71204 60.9569 3.04456 60.7282 3.55426C60.442 4.19744 60.4038 4.84003 60.4038 5.54995V11.2216C60.4003 11.4313 60.2239 11.6002 60.0065 11.6002Z" fill="#333E47"/>
<path fill-rule="evenodd" clip-rule="evenodd" d="M34.851 11.5741C34.7164 11.6958 34.5219 11.7041 34.3691 11.622C33.6908 11.0556 33.5691 10.7939 33.1982 10.2541C32.0774 11.4017 31.2833 11.746 29.8309 11.746C28.1117 11.746 26.7739 10.6794 26.7739 8.54724C26.7739 6.88112 27.6726 5.74832 28.9522 5.19314C30.0601 4.70411 31.6077 4.61552 32.7927 4.48204V4.21567C32.7927 3.72605 32.8309 3.14961 32.5441 2.72732C32.2954 2.34933 31.8182 2.19399 31.3979 2.19399C30.6185 2.19399 29.9267 2.59502 29.7563 3.42602C29.7204 3.61088 29.5864 3.79456 29.4018 3.80401L27.4216 3.58844C27.2547 3.55005 27.069 3.41539 27.1166 3.15906C27.5662 0.779472 29.681 0.037659 31.603 0.0175781H31.7547C32.7386 0.029981 33.9953 0.301073 34.7605 1.03875C35.7544 1.97192 35.6581 3.21576 35.6581 4.57122V7.76822C35.6581 8.73033 36.056 9.15203 36.4292 9.67C36.5603 9.85723 36.5891 10.0787 36.4227 10.2157C36.0054 10.5671 35.2642 11.2139 34.8569 11.5789L34.851 11.5741ZM32.7927 6.57045C32.7927 7.37015 32.8115 8.03636 32.4106 8.74746C32.0856 9.32449 31.5695 9.68004 30.9965 9.68004C30.2135 9.68004 29.7551 9.08057 29.7551 8.19169C29.7551 6.44347 31.315 6.12572 32.7927 6.12572V6.57045Z" fill="#333E47"/>
<path fill-rule="evenodd" clip-rule="evenodd" d="M8.07771 11.5741C7.94252 11.6958 7.74738 11.7041 7.59515 11.622C6.91627 11.0556 6.79461 10.7939 6.42431 10.2541C5.30285 11.4017 4.50936 11.746 3.05699 11.746C1.33776 11.746 0 10.6794 0 8.54724C0 6.88112 0.897523 5.74832 2.17827 5.19314C3.28622 4.70411 4.83381 4.61552 6.01816 4.48204V4.21567C6.01816 3.72605 6.05696 3.14961 5.77013 2.72732C5.5215 2.34933 5.04364 2.19399 4.62398 2.19399C3.8446 2.19399 3.15162 2.59502 2.98234 3.42602C2.94707 3.61088 2.81247 3.79456 2.62733 3.80401L0.647721 3.58844C0.480207 3.55005 0.294472 3.41539 0.342669 3.15906C0.791137 0.779472 2.90652 0.037659 4.82911 0.0175781H4.98075C5.96468 0.029981 7.22133 0.301073 7.9866 1.03875C8.97993 1.97192 8.88412 3.21576 8.88412 4.57122V7.76822C8.88412 8.73033 9.28204 9.15203 9.65528 9.67C9.78517 9.85723 9.81515 10.0787 9.64881 10.2157C9.2315 10.5671 8.48973 11.2139 8.08241 11.5789L8.07771 11.5741ZM6.01816 6.57045C6.01816 7.37015 6.03756 8.03636 5.63611 8.74746C5.31167 9.32449 4.79561 9.68004 4.22194 9.68004C3.43903 9.68004 2.98058 9.08057 2.98058 8.19169C2.98058 6.44347 4.5411 6.12572 6.01816 6.12572V6.57045Z" fill="#333E47"/>
<path fill-rule="evenodd" clip-rule="evenodd" d="M93.9097 15.379C93.9097 15.1121 93.9097 14.8723 93.9097 14.6053C93.9097 14.385 94.0172 14.2332 94.2459 14.2468C94.6726 14.3077 95.2762 14.3685 95.7047 14.2799C96.2643 14.163 96.6657 13.7643 96.9032 13.218C97.2376 12.449 97.4592 11.8288 97.5991 11.4219L93.3501 0.845173C93.2784 0.665626 93.2573 0.33252 93.614 0.33252H95.0993C95.3826 0.33252 95.4978 0.513248 95.5613 0.690432L98.6418 9.28152L101.582 0.690432C101.642 0.514429 101.763 0.33252 102.044 0.33252H103.444C103.799 0.33252 103.779 0.665036 103.708 0.845173L99.4935 11.7521C98.948 13.2038 98.2215 15.5161 96.5852 15.9177C95.7647 16.1332 94.7296 16.0553 94.1219 15.7995C93.9685 15.7222 93.9097 15.5155 93.9097 15.379Z" fill="#333E47"/>
<path fill-rule="evenodd" clip-rule="evenodd" d="M91.9283 10.9559C91.9283 11.1526 91.7679 11.3138 91.5709 11.3138H90.5235C90.2972 11.3138 90.1427 11.1496 90.1139 10.9559L90.0087 10.2395C89.5273 10.6488 88.9366 11.0085 88.2959 11.2589C87.0639 11.7397 85.6439 11.8194 84.4401 11.0764C83.5697 10.5395 83.1077 9.49 83.1077 8.40741C83.1077 7.56991 83.3645 6.73951 83.9341 6.13649C84.694 5.31258 85.7955 4.90801 87.1257 4.90801C87.9291 4.90801 89.0788 5.0031 89.9152 5.27774V3.83605C89.9152 2.37014 89.301 1.73582 87.6817 1.73582C86.4438 1.73582 85.4969 1.92363 84.1792 2.33529C83.9682 2.34238 83.8447 2.18114 83.8447 1.98447V1.16233C83.8447 0.965065 84.0122 0.774296 84.1939 0.716416C85.1349 0.304167 86.4679 0.0472492 87.885 0C89.7324 0 91.9283 0.418746 91.9283 3.27378V10.9559ZM89.9152 8.85096V6.67572C89.2122 6.48259 88.049 6.40227 87.5988 6.40227C86.8876 6.40227 86.1088 6.57118 85.7021 7.01119C85.3982 7.33367 85.2607 7.79671 85.2607 8.2444C85.2607 8.8232 85.4599 9.40378 85.9254 9.69081C86.4662 10.0599 87.3049 10.0151 88.0931 9.79004C88.8508 9.57387 89.562 9.19174 89.9152 8.85096Z" fill="#333E47"/>
<path fill-rule="evenodd" clip-rule="evenodd" d="M76.4845 1.76815C78.8086 1.76815 79.4416 3.60438 79.4416 5.70696C79.4545 7.12444 79.1953 8.38836 78.4647 9.11186C77.9181 9.65346 77.3074 9.80111 76.3881 9.80111C75.57 9.80111 74.4938 9.37232 73.6897 8.77521V2.76334C74.5267 2.11721 75.5947 1.76815 76.4845 1.76815ZM73.3335 15.7563H71.9305C71.7342 15.7563 71.5737 15.595 71.5737 15.3984C71.5737 10.5022 71.5737 5.60538 71.5737 0.70918C71.5737 0.512505 71.7342 0.351267 71.9305 0.351267H73.0044C73.2301 0.351267 73.3846 0.515458 73.4134 0.70918L73.5263 1.47875C74.532 0.581607 75.8268 0.00634766 77.0605 0.00634766C80.516 0.00634766 81.6522 2.86729 81.6522 5.84222C81.6522 9.02504 79.9142 11.5824 76.9747 11.5824C75.7369 11.5824 74.5796 11.1235 73.6897 10.3262V15.3984C73.6897 15.595 73.5292 15.7563 73.3335 15.7563Z" fill="#333E47"/>
</g>
</svg>
