<svg width="13" height="23" viewBox="0 0 13 23" fill="none" xmlns="http://www.w3.org/2000/svg">
<path d="M12.7775 0.112036C12.7775 0.112036 12.7775 0.0987038 12.7775 0.0898167C12.773 0.0686713 12.7624 0.0493176 12.747 0.0341227C12.7316 0.0189277 12.7121 0.00855702 12.6909 0.00428223C12.6798 0.00428223 0.105538 -0.00905233 0.0611017 0.0142765C0.0413107 0.0240185 0.0252932 0.040036 0.0155512 0.0598271C-0.00888853 0.105374 0.00222315 22.8954 0.00444494 22.9065C0.00671365 22.9199 0.011613 22.9326 0.01886 22.9441C0.026107 22.9555 0.0355575 22.9654 0.0466595 22.9732C0.095539 23.0109 12.6831 23.0021 12.7209 22.9821C12.8086 22.9332 12.7775 24.5229 12.7775 0.112036ZM12.5553 22.6166C12.2054 22.2678 11.5444 21.6068 11.1945 21.2557V1.74061L12.5553 0.379766V22.6166ZM0.2244 0.379766L1.58525 1.74061V21.2557L0.2244 22.6166V0.379766ZM10.8201 1.80504L10.0236 2.60267H2.76057L1.96296 1.80504H10.8201ZM2.82168 20.1715V2.82485H9.95363V20.1715H2.82168ZM1.80298 21.0324V1.96391L2.5995 2.76042V20.237L1.80298 21.0324ZM1.95851 21.1913L2.75614 20.3937H10.0192L10.8157 21.1913H1.95851ZM10.1791 2.76042L10.9757 1.96391V21.0324L10.1791 20.237V2.76042ZM12.4009 0.223126L11.0401 1.58286H1.74078L0.379928 0.223126H12.4009ZM1.73633 21.4135H11.0356C11.3867 21.7634 12.0477 22.4244 12.3965 22.7743H0.376593L1.73633 21.4135Z" fill="#1D1D1B"/>
</svg>
