<svg width="22" height="22" viewBox="0 0 22 22" fill="none" xmlns="http://www.w3.org/2000/svg">
<circle cx="11" cy="11" r="10.5" transform="matrix(1 0 0 -1 0 22)" fill="white" stroke="#A0A0A1"/>
<path d="M10.1889 16.0463L14.8479 11.4011C14.9032 11.3458 14.9425 11.2859 14.9657 11.2214C14.9889 11.1569 15.0004 11.0878 15 11.014C15 10.9403 14.9886 10.8712 14.9657 10.8067C14.9428 10.7421 14.9036 10.6822 14.8479 10.6269L10.1889 5.96796C10.0599 5.83893 9.89862 5.77441 9.70507 5.77441C9.51152 5.77441 9.34562 5.84354 9.20737 5.98179C9.06912 6.12004 9 6.28133 9 6.46566C9 6.64999 9.06912 6.81128 9.20737 6.94953L13.2719 11.014L9.20737 15.0785C9.07834 15.2076 9.01382 15.3667 9.01382 15.5558C9.01382 15.7449 9.08295 15.9084 9.2212 16.0463C9.35945 16.1845 9.52074 16.2537 9.70507 16.2537C9.8894 16.2537 10.0507 16.1845 10.1889 16.0463Z" fill="#B6B6B6"/>
</svg>
