<svg width="16" height="16" viewBox="0 0 16 16" fill="none" xmlns="http://www.w3.org/2000/svg">
<path fill-rule="evenodd" clip-rule="evenodd" d="M8.00107 0C7.39857 0 6.91016 0.488417 6.91016 1.09091V6.90954H1.09091C0.488417 6.90954 0 7.39796 0 8.00045C0 8.60295 0.488417 9.09136 1.09091 9.09136H6.91016V14.9091C6.91016 15.5116 7.39857 16 8.00107 16C8.60356 16 9.09197 15.5116 9.09197 14.9091V9.09136H14.9091C15.5116 9.09136 16 8.60295 16 8.00045C16 7.39796 15.5116 6.90954 14.9091 6.90954H9.09197V1.09091C9.09197 0.488417 8.60356 0 8.00107 0Z" fill="#4D4D4D" style="mix-blend-mode:color-burn"/>
<path fill-rule="evenodd" clip-rule="evenodd" d="M8.00107 0C7.39857 0 6.91016 0.488417 6.91016 1.09091V6.90954H1.09091C0.488417 6.90954 0 7.39796 0 8.00045C0 8.60295 0.488417 9.09136 1.09091 9.09136H6.91016V14.9091C6.91016 15.5116 7.39857 16 8.00107 16C8.60356 16 9.09197 15.5116 9.09197 14.9091V9.09136H14.9091C15.5116 9.09136 16 8.60295 16 8.00045C16 7.39796 15.5116 6.90954 14.9091 6.90954H9.09197V1.09091C9.09197 0.488417 8.60356 0 8.00107 0Z" fill="#A3A3A3"/>
</svg>
