<svg width="24" height="42" viewBox="0 0 24 42" fill="none" xmlns="http://www.w3.org/2000/svg">
<path id="Marquise" d="M12.4689 0.031847L12.4449 0.0207457C12.4186 0.00711956 12.3894 0 12.3598 0C12.3302 0 12.301 0.00711956 12.2747 0.0207457H12.2654C9.14826 2.03278 6.51724 4.71246 4.56267 7.86596C2.72478 10.8397 1.53157 14.1661 1.06017 17.63C0.588777 21.0939 0.849712 24.6182 1.8261 27.9749C2.45518 30.1414 3.37843 32.2115 4.57007 34.1271C6.52292 37.2795 9.15126 39.9591 12.2654 41.9723C12.2898 41.9865 12.3169 41.9955 12.3449 41.9987C12.3729 42.0019 12.4013 41.9992 12.4282 41.9908C12.5818 41.9372 14.8003 40.4884 16.8449 38.3865C19.4213 35.7389 21.3772 32.5519 22.5711 29.0559C23.765 25.5599 24.1671 21.8423 23.7483 18.1719C23.3296 14.5015 22.1004 10.97 20.1497 7.83277C18.199 4.69555 15.5755 2.03102 12.4689 0.031847ZM22.5068 28.0434C21.9544 29.8952 21.1836 31.6748 20.2106 33.3444L20.3086 27.1682L22.5068 28.0434ZM20.3086 14.836L20.2106 8.65974C21.183 10.3297 21.9538 12.1092 22.5068 13.9608L20.3086 14.836ZM15.3258 35.3372L12.3653 41.3913C11.5494 39.715 12.419 41.5116 9.40488 35.3372L12.3653 34.227L15.3258 35.3372ZM12.3653 7.7864L9.40488 6.67623L12.3653 0.62209C12.493 0.88113 13.1591 2.23369 15.3258 6.67623L12.3653 7.7864ZM23.4967 21.003L20.1847 26.4447C19.3409 23.5953 19.4057 23.8173 18.5731 21.003L20.1847 15.5595L23.4967 21.003ZM16.1399 12.5712L18.1882 21.003L16.1399 29.4329C15.9179 29.6864 12.5208 33.5628 12.3653 33.7423C12.2432 33.6053 8.60555 29.4514 8.5889 29.4329L6.54064 21.003L8.5889 12.5712L12.3653 8.26193L16.1399 12.5712ZM12.6836 8.06209C12.9278 7.97328 13.2572 7.84561 15.4257 7.02408L16.0493 11.9051C14.4543 10.0845 12.913 8.31928 12.6854 8.06209H12.6836ZM12.049 8.06209C11.8639 8.27858 11.814 8.32854 8.68141 11.9051L9.30496 7.02408L12.049 8.06209ZM12.049 33.9402C11.4791 34.1512 12.5041 33.7719 9.30866 34.9801L8.68512 30.099L12.049 33.9402ZM16.053 30.099L15.4294 34.9801C11.8398 33.622 13.3811 34.1974 12.6873 33.9384C12.926 33.6682 13.6365 32.8578 16.0511 30.099H16.053ZM18.401 21.7135L19.9145 26.8222L16.6081 29.0943C17.5462 25.2198 17.4499 25.6158 18.3991 21.7135H18.401ZM19.9145 15.1839L18.401 20.2907L16.6081 12.9117L19.9145 15.1839ZM8.13003 12.9117L6.33711 20.2907L4.82356 15.1839C6.54433 13.9997 6.40186 14.0959 8.12818 12.9117H8.13003ZM4.54972 15.5595L6.16132 21.003C4.69404 25.9544 4.99564 24.9386 4.54972 26.4447L1.23955 21.003L4.54972 15.5595ZM4.82356 26.8222L6.33711 21.7135L8.13003 29.0943L4.82356 26.8222ZM19.8313 8.11205C19.8794 11.1391 19.8516 9.34249 19.9367 14.7472L16.4841 12.3751C16.3102 11.0096 15.9734 8.37664 15.7995 7.00928L19.8313 8.11205ZM8.9349 7.01669C8.75912 8.38035 8.42423 11.0096 8.24845 12.3825L4.79766 14.7546C4.88277 9.34805 4.85503 11.1391 4.90128 8.11945L8.9349 7.01669ZM4.42575 14.8323L2.22945 13.9571C2.78095 12.1052 3.55117 10.3257 4.52382 8.65604L4.42575 14.8323ZM2.12585 14.3142L4.33323 15.1931L1.21365 20.324C1.2679 18.2919 1.57432 16.2744 2.12585 14.3179V14.3142ZM4.33323 26.8037L2.12585 27.6826C1.57415 25.7254 1.26773 23.7073 1.21365 21.6747C2.82895 24.3317 2.71978 24.1411 4.33323 26.8V26.8037ZM4.42575 27.1737L4.52382 33.3481C3.55084 31.6787 2.78061 29.8991 2.22945 28.0471L4.42575 27.1737ZM4.90128 33.8921C4.85318 30.8614 4.88277 32.6413 4.79766 27.257L8.24845 29.6291C8.42423 30.9964 8.76097 33.6275 8.9349 34.9949L4.90128 33.8921ZM15.7995 34.9875C15.9734 33.6238 16.3102 30.9946 16.4841 29.6217L19.9367 27.2496C19.8498 32.6765 19.8794 30.8577 19.8313 33.8847L15.7995 34.9875ZM20.3993 15.2005L22.6197 14.3216C23.1705 16.2795 23.4763 18.2982 23.53 20.3314L20.3993 15.2005ZM15.8254 6.64663L16.782 4.08953C17.83 5.19552 18.7745 6.3952 19.6037 7.67354L15.8254 6.64663ZM16.497 3.79533L15.5589 6.30432L12.8335 0.7109C14.151 1.61741 15.3779 2.64912 16.497 3.79164V3.79533ZM11.9009 0.7109L9.17545 6.29322L8.23734 3.78423C9.35639 2.64386 10.5833 1.61461 11.9009 0.7109ZM7.95241 4.07843L8.90899 6.63553L5.12516 7.66983C5.9553 6.39072 6.90173 5.19096 7.95241 4.08582V4.07843ZM8.90899 35.3483L7.95241 37.9054C6.9015 36.8051 5.95502 35.6096 5.12516 34.3343L8.90899 35.3483ZM8.23734 38.1996C8.49453 37.5094 8.97747 36.2198 9.17545 35.6906L11.9009 41.2729C10.5835 40.3739 9.35651 39.3489 8.23734 38.2126V38.1996ZM12.8335 41.2729L15.5589 35.6906L16.497 38.1996C15.3787 39.3446 14.1517 40.3782 12.8335 41.2859V41.2729ZM16.782 37.9054L15.8254 35.3483L19.6037 34.3214C18.7752 35.6042 17.8307 36.8083 16.782 37.9184V37.9054ZM22.6104 27.6733L20.39 26.7944L23.5115 21.6636C23.4619 23.7007 23.1592 25.7238 22.6104 27.6863V27.6733Z" fill="black"/>
</svg>
