<svg width="44" height="40" viewBox="0 0 44 40" fill="none" xmlns="http://www.w3.org/2000/svg">
<path id="Heart" d="M43.8637 13.222C44.321 7.7089 41.3278 3.18363 37.0266 1.14852C34.437 -0.072575 31.4965 -0.328907 28.7346 0.425695C25.9728 1.1803 23.5711 2.89624 21.9622 5.26448C20.3532 2.89569 17.9511 1.17939 15.1888 0.424759C12.4264 -0.329867 9.48539 -0.0732005 6.89551 1.14852C4.89198 2.0946 3.18956 3.577 1.97694 5.4314C0.468942 7.72811 -0.208776 10.4713 0.0561627 13.206C0.051665 13.2279 0.051665 13.2504 0.0561627 13.2723C0.662123 21.55 7.12646 30.3032 13.9407 35.5145C16.5955 37.5473 19.2663 39.0519 21.8822 39.9872C21.9295 40.0043 21.9812 40.0043 22.0285 39.9872C32.1583 36.3491 43.0656 24.0287 43.8499 13.27C43.8588 13.2555 43.8635 13.2389 43.8637 13.222ZM14.0047 24.5729L21.6009 28.6408L18.4705 32.208L14.0047 24.5729ZM21.9622 28.3161L13.5885 23.832C12.6739 21.0172 12.0839 19.2427 10.8674 15.5338L13.9018 9.70971L21.9622 8.59841L30.0203 9.70971L33.0547 15.5429L30.3359 23.8389L21.9622 28.3161ZM33.4137 15.9088L37.317 19.229L30.9464 23.4296L33.4137 15.9088ZM30.5074 9.64797L36.1234 8.35145L33.2811 14.9827L30.5074 9.64797ZM13.4147 9.64797L10.641 14.9804L7.79874 8.34916L13.4147 9.64797ZM12.978 23.4364L6.60511 19.229L10.5084 15.9088L12.978 23.4364ZM25.4516 32.208L22.3235 28.6408L29.9174 24.5729L25.4516 32.208ZM36.679 1.70646L36.2949 7.84382L30.3793 9.2158C30.2216 6.73022 30.2307 6.87199 30.0775 4.439L36.679 1.70646ZM29.9243 9.22723L22.7054 8.2394L29.6316 4.64937L29.9243 9.22723ZM14.2905 4.65395L21.2145 8.24398L14.0001 9.2318C14.1053 7.54654 14.2494 5.29878 14.2905 4.64937V4.65395ZM7.31397 8.38117L10.3438 15.4492L6.22781 18.9386L0.623251 13.2586L7.31397 8.38117ZM8.63336 29.8756L6.55938 19.7389L13.2272 24.143L17.9606 32.2332L8.63336 29.8756ZM25.9615 32.2332L30.6949 24.143L37.3627 19.7389L35.2888 29.8756L25.9615 32.2332ZM37.6829 18.9317L33.5784 15.4492L36.6104 8.38117L43.2897 13.2586C35.6089 21.0446 38.2568 18.3578 37.6829 18.9386V18.9317ZM14.2562 3.9428L13.6754 0.576858C15.1915 0.790624 16.6489 1.3078 17.9606 2.09748L14.2562 3.9428ZM13.8446 4.43214C13.8103 4.97636 13.5931 8.42004 13.5428 9.20894L7.62724 7.83695L7.24308 1.70646L13.8446 4.43214ZM21.9622 39.2508C18.3447 31.9039 19.0879 33.4268 18.7037 32.6356L21.9622 28.9175L25.2207 32.631C24.976 33.1387 24.9623 33.1524 21.9622 39.2508ZM41.0854 21.3716L38.0487 19.2267C45.4735 11.7037 41.8994 15.3394 43.3492 13.8622C43.0885 16.2426 42.3293 18.7648 41.0854 21.3716ZM43.4361 12.8081L36.958 8.07704L41.6708 5.85443C42.9739 7.92731 43.5915 10.3578 43.4361 12.8013V12.8081ZM41.417 5.47028L36.7636 7.65173L37.1364 1.70646C38.8546 2.58166 40.3262 3.87328 41.417 5.46341V5.47028ZM36.3498 1.35432L30.1347 3.91993C30.4342 2.18437 30.4251 2.23697 30.7223 0.526559C32.6373 0.325615 34.572 0.607841 36.3498 1.34746V1.35432ZM29.6659 3.94966C27.2421 2.7446 26.2977 2.27126 25.9638 2.10433C27.278 1.3199 28.7343 0.803122 30.249 0.583725C29.9792 2.12492 30.1118 1.36804 29.6659 3.9428V3.94966ZM25.5065 2.39245L29.3343 4.29494L22.1909 7.99244V5.7401C23.0583 4.41146 24.1863 3.2726 25.5065 2.39245ZM21.7335 5.7401V7.99244L14.5924 4.28808L18.4179 2.39245C19.7394 3.27112 20.8676 4.41025 21.7335 5.7401ZM13.1998 0.519692L13.7875 3.91535L7.57236 1.34974C9.34887 0.6055 11.2841 0.320058 13.1998 0.519692ZM6.78575 1.70646C7.01442 5.29878 6.9321 4.05256 7.15848 7.65173L2.50516 5.45884C3.59662 3.8705 5.06817 2.58054 6.78575 1.70646ZM2.25134 5.84757L6.96411 8.07019C3.79483 10.3843 0.790175 12.5703 0.488338 12.7967C0.323216 10.3519 0.940701 7.91797 2.25134 5.84757ZM5.87338 19.2199L2.83901 21.3716C1.59279 18.7671 0.831335 16.2427 0.572945 13.8554L5.87338 19.2199ZM3.04023 21.7832L6.07232 19.6406L8.04112 29.2628C6.0802 26.9792 4.40117 24.468 3.04023 21.7832ZM9.11584 30.4724L17.86 32.6836L14.0984 35.0457C12.3118 33.6659 10.645 32.1375 9.11584 30.477V30.4724ZM14.4849 35.343L18.3379 32.9237C19.3303 34.9817 16.2799 28.7574 21.5026 39.3469C18.9936 38.3365 16.6329 36.9912 14.4849 35.3476V35.343ZM22.4195 39.3515C26.5538 30.9503 25.1932 33.7332 25.5842 32.9283L29.4349 35.3476C27.288 36.9928 24.9281 38.3397 22.4195 39.3515ZM29.8237 35.0503L26.0622 32.6882L34.804 30.477C33.2765 32.139 31.6112 33.6689 29.826 35.0503H29.8237ZM37.8498 19.6406L40.8796 21.7832C39.5203 24.4684 37.842 26.9797 35.881 29.2628L37.8498 19.6406Z" fill="#1D1D1B"/>
</svg>
