<svg width="29" height="42" viewBox="0 0 29 42" fill="none" xmlns="http://www.w3.org/2000/svg">
<path id="Emerald" d="M28.242 20.9947C28.242 5.44545 28.2284 6.29898 28.1936 6.24092C28.1588 6.18286 22.306 0.0630134 22.2847 0.0475299C22.2564 0.0236089 22.2211 0.00936509 22.1841 0.00688154C22.0215 -0.00860193 6.09869 0.00688154 6.09482 0.00688154C6.06476 0.00300604 6.03423 0.006247 6.00565 0.0163319C5.97708 0.0264168 5.95127 0.0430733 5.93031 0.064954C5.84128 0.161726 0.0485261 6.2177 0.0388489 6.25834C-0.0346976 6.4035 0.0194955 35.6092 0.0156246 35.6286C0.011067 35.6719 0.02129 35.7156 0.044649 35.7524C0.044649 35.7776 5.91096 41.909 5.93031 41.9284C6.02515 42.0348 5.11356 41.9826 19.9274 42C20.8719 42 21.8628 42 22.1338 41.9845H22.1454C22.1828 41.9891 22.2208 41.9816 22.2538 41.9632C22.2757 41.9569 22.2953 41.9441 22.3099 41.9265C22.4879 41.7329 28.1839 35.7873 28.1936 35.7505C28.2033 35.7137 28.242 36.6388 28.242 20.9947ZM20.9493 39.3581C20.3338 38.3227 20.4828 38.5723 20.2525 38.1833L24.3421 33.9021L25.5459 34.5447L20.9493 39.3581ZM2.17556 34.3783L0.389162 35.3305C0.371743 32.3983 0.371743 9.58922 0.389162 6.65704L2.17556 7.61121V34.3783ZM19.0661 5.46674L22.6215 9.19439V32.7931L19.0661 36.5208H9.17023L5.60902 32.7931V9.19439L9.17023 5.46674H19.0661ZM5.37678 33.1106L8.84314 36.7356L8.1909 37.833L4.25035 33.7067C4.9355 33.3486 4.61035 33.5209 5.37678 33.1106ZM4.1381 8.6486L5.23162 9.22923V32.7564L4.1381 33.337V8.6486ZM5.38645 8.87698L4.25035 8.28474L8.20251 4.15065L8.85087 5.2461L5.38645 8.87698ZM24.1215 33.3389L23.026 32.7583V9.2331L24.1215 8.65247V33.3389ZM20.057 4.15065L23.9879 8.28474L22.8615 8.88665L19.3971 5.25578L20.057 4.15065ZM2.58007 7.81637L3.75101 8.44151V33.546L2.58007 34.1712V7.81637ZM19.3971 36.7356L22.8615 33.1067L23.9879 33.7067L20.0474 37.8388L19.3971 36.7356ZM25.6679 34.1654L24.5066 33.5402V8.44151L25.6679 7.81637V34.1654ZM25.5459 7.43702L24.3421 8.09119L20.2525 3.81001L20.9493 2.6352L25.5459 7.43702ZM19.0409 5.07966H9.19345L8.56831 4.02678H19.6719L19.0409 5.07966ZM7.28511 2.6294L7.98187 3.8042L3.89617 8.09119L2.69426 7.44863L7.28511 2.6294ZM2.68846 34.5447L3.89036 33.9021L7.98187 38.1833L7.28511 39.3581L2.68846 34.5447ZM9.19151 36.9098C9.5786 36.9253 10.3818 36.9098 19.0409 36.9098C19.3951 37.5098 19.2577 37.2756 19.6661 37.9646H8.56831C9.05991 37.1362 9.10636 37.0646 9.19732 36.9098H9.19151ZM26.0491 7.61121L27.8375 6.65704C27.853 9.58922 27.853 32.3983 27.8375 35.3305L26.0491 34.3783V7.61121ZM19.9003 3.63969H8.33799L7.66639 2.50747H20.5719L19.9003 3.63969ZM8.33799 38.3498H19.9003L20.5719 39.4839H7.66639L8.33799 38.3498ZM25.9253 7.24154C25.8866 7.26089 26.2814 7.65185 21.1544 2.28295C21.706 1.35395 21.9286 0.98041 22.2054 0.519776L27.7156 6.28543L25.9253 7.24154ZM21.828 0.390106L20.8022 2.11845H7.43801L6.40642 0.376556C9.36376 0.376556 5.4929 0.390106 21.828 0.390106ZM6.03676 0.517839L7.08576 2.28295L2.33815 7.25508L0.522707 6.28737L6.03676 0.517839ZM2.33815 34.7344L7.08576 39.7046C6.61545 40.4942 6.35803 40.9258 6.03288 41.4678L0.522707 35.7021L2.33815 34.7344ZM6.40256 41.5974C7.80381 39.2401 7.03544 40.5349 7.43027 39.871H20.8022L21.8338 41.6129C18.948 41.6148 25.2575 41.5974 6.41029 41.5974H6.40256ZM22.1957 41.4716L21.1467 39.7046L25.8924 34.7344L27.7078 35.7021L22.1957 41.4716Z" fill="#1D1D1B"/>
</svg>
