<svg width="40" height="40" viewBox="0 0 40 40" fill="none" xmlns="http://www.w3.org/2000/svg">
<path d="M39.9796 20.0113C39.9796 5.81667 25.5081 -3.9188 12.3371 1.53983C7.44162 3.57437 3.55108 7.46491 1.51654 12.3604C-0.505512 17.2606 -0.505512 22.762 1.51654 27.6622C6.95979 40.7914 24.0474 44.2248 34.1255 34.1466C35.9847 32.2925 37.459 30.0892 38.4636 27.6634C39.4683 25.2375 39.9835 22.637 39.9796 20.0113ZM6.52266 34.1818C11.9396 33.8874 13.2641 33.8215 14.0483 33.7776L12.302 37.9929C10.1633 37.0781 8.20587 35.7873 6.52266 34.1818ZM5.81974 33.4789C4.21395 31.7954 2.92247 29.8381 2.00638 27.6995L6.2327 25.9422L5.81974 33.4789ZM39.4304 20.0113L33.5698 25.2613L30.7142 20.0113L33.5698 14.7614L39.4304 20.0113ZM27.059 12.222L20.4998 9.50701L25.4554 6.81614L27.059 12.222ZM27.2391 12.7624L30.2375 20.0113C29.126 22.6956 29.7806 21.1096 27.2391 27.2602L19.9902 30.2586L12.7413 27.2602C10.1976 21.1206 10.8544 22.7022 9.74072 20.0113C10.8544 17.327 10.1976 18.913 12.7413 12.7624L19.9902 9.76182L27.2391 12.7624ZM27.0656 27.7918L25.462 33.1999L20.5064 30.5068L27.0656 27.7918ZM9.49251 19.4929L6.79284 14.5461L12.2031 12.9425C11.241 15.2666 10.5183 17.0129 9.48592 19.5017L9.49251 19.4929ZM12.2097 27.0713L6.79943 25.4677L9.49251 20.5121L12.2097 27.0713ZM14.5316 6.80735L19.4872 9.49823L12.9302 12.2133C14.894 5.56406 14.2548 7.73653 14.525 6.81614L14.5316 6.80735ZM14.5316 33.1999C14.2812 32.3432 14.5162 33.1516 12.9302 27.7918L19.4872 30.5068L14.5316 33.1999ZM33.192 25.4677L27.7861 27.0713C28.735 24.7758 29.5434 22.8054 30.5011 20.5121C31.4391 22.2563 32.1288 23.5259 33.1854 25.4765L33.192 25.4677ZM30.5011 19.4929L27.7861 12.936L33.192 14.5373L30.5011 19.4929ZM33.3106 14.1133L27.584 12.4175L25.886 6.68873L33.7433 6.24941C33.5237 10.1374 33.5412 9.82772 33.304 14.1221L33.3106 14.1133ZM9.26186 20.0113L6.40624 25.2613L0.550018 20.0113L6.41063 14.7614L9.26186 20.0113ZM12.4052 27.5985C13.7232 32.0247 12.7984 28.9164 14.101 33.3273L6.24369 33.7666L6.68301 25.9093L12.4052 27.5985ZM19.9902 30.7397L25.2402 33.5953L19.9902 39.4515L14.7381 33.5931L19.9902 30.7397ZM27.5774 27.5985L33.304 25.9005C33.5368 30.1246 33.5237 29.9752 33.7433 33.7578L25.886 33.3185L27.5774 27.5985ZM33.7477 14.0804L34.1629 6.54815C35.7659 8.23122 37.0558 10.1869 37.9718 12.3231L33.7477 14.0804ZM25.2402 6.43392L19.9902 9.28955C11.4783 4.67662 16.2801 7.24228 14.7425 6.43392L19.9902 0.571113L25.2402 6.43392ZM14.101 6.69532L12.4052 12.4263L6.67423 14.1221L6.2349 6.26478L14.101 6.69532ZM6.2327 14.0804L2.00638 12.3231C2.92247 10.1845 4.21395 8.22723 5.81974 6.54376C6.01524 10.1265 6.03501 10.4691 6.2327 14.0804ZM14.4591 33.9423L19.4938 39.5613C17.1665 39.5078 14.868 39.0353 12.7084 38.1665L14.4591 33.9423ZM33.7477 25.9422L37.9718 27.6995C37.057 29.8384 35.7671 31.7964 34.1629 33.4811L33.7477 25.9422ZM38.141 27.2865L33.9147 25.5292L39.5402 20.5077C39.4845 22.8344 39.0105 25.1321 38.141 27.2909V27.2865ZM33.9147 14.478L38.141 12.7207C39.0118 14.8829 39.4858 17.1845 39.5402 19.5149L33.9147 14.478ZM25.9211 6.2538L27.6784 2.02968C29.8189 2.94359 31.7779 4.23446 33.4622 5.84083L25.9211 6.2538ZM27.2655 1.86054L25.5081 6.08466L20.4888 0.461281C22.8151 0.51692 25.1122 0.991669 27.2698 1.86273L27.2655 1.86054ZM14.4591 6.08466L12.7018 1.86273C14.8631 0.991069 17.1639 0.516322 19.4938 0.461281L14.4591 6.08466ZM12.302 2.02968L14.0593 6.2538L6.52266 5.84083C8.20587 4.23528 10.1633 2.94447 12.302 2.02968ZM1.83944 12.7317L6.06356 14.489L0.440186 19.5149C0.495437 17.1881 0.969426 14.8903 1.83944 12.7317ZM6.06356 25.5402L1.83944 27.2975C0.968466 25.1368 0.494456 22.8367 0.440186 20.5077L6.06356 25.5402ZM25.5213 33.938L27.2786 38.1621C25.1178 39.0324 22.8178 39.5064 20.4888 39.5613L25.5213 33.938ZM27.6784 37.9929L25.9211 33.771L33.4534 34.1818C31.7723 35.7879 29.8162 37.0788 27.6784 37.9929Z" fill="#1D1D1B"/>
</svg>
