<svg width="40" height="40" viewBox="0 0 40 40" fill="none" xmlns="http://www.w3.org/2000/svg">
<path id="princess" fill-rule="evenodd" clip-rule="evenodd" d="M39.3865 0.449438H0.838202L11.3461 4.7191H28.8742L39.3865 0.449438ZM0.449438 39.3865V0.593258L0.498876 0.721348L4.49438 10.9753V29.5416L0.492135 39.2831L0.449438 39.3865ZM4.94382 28.4472V12.1348L8.20225 20.5618L8.15281 20.6517L4.94382 28.4472ZM8.31461 21.4112L4.94382 29.6315V29.8876H10.1663L8.31461 21.4112ZM10.3371 30.0854V29.8876L10.6404 29.9551L19.1933 31.6135L10.3371 35.2112V30.0854ZM10.5371 29.4764L8.63596 20.7438L10.8629 10.6966L19.9865 8.64045L29.4382 10.7708L31.5393 20.418L29.4989 29.7843L20.2135 31.3573L10.5371 29.4764ZM10.409 10.6764L8.42023 19.8112L4.94382 10.8899V10.5618H10.3371V5.16854H11.2584L19.1528 8.37528L10.3371 10.3618V10.5618H10.409V10.6764ZM19.7551 8.13483L19.9865 8.2266L20.3183 8.13483L27.773 5.16854H12.4517L19.7551 8.13483ZM29.9393 29.8876L31.8225 21.2404L35.2809 29.6629V29.8876H29.9393ZM20.209 31.809L20.4 31.8449L28.8562 35.2809H11.3596L19.6876 31.8966L20.209 31.809ZM29.6629 35.1236L21.1236 31.6539L29.6629 30.2135V35.1236ZM29.6629 10.3596V5.16854H28.9663L20.9843 8.41124L29.6629 10.3596ZM29.8539 10.5618L31.8449 19.7101L35.2809 10.8899V10.5618H29.8539ZM32.0292 20.5573L32.018 20.5034L35.2809 12.1348V28.4764L32.0292 20.5573ZM10.1124 4.7191H10.1528L1.10787 1.04494L4.64045 10.1124H9.88764V4.7191H10.1124ZM35.7303 10.9753V29.564L39.5506 38.8629V1.17079L35.7303 10.9753ZM35.5843 10.1124H30.1124V4.7191H30.0719L39.1169 1.04494L35.5843 10.1124ZM29.9663 35.7303L39.3685 39.5506H0.851685L10.2539 35.7303H29.9618H29.9663ZM39.1011 38.9595L30.1124 35.3056V30.3371H35.5618L39.1011 38.9595ZM4.65393 30.3371L1.11011 38.9595L9.88764 35.3933V30.3371H4.65393ZM0 0H40V40H0V0Z" fill="black"/>
</svg>
