<svg width="12" height="12" viewBox="0 0 12 12" fill="none" xmlns="http://www.w3.org/2000/svg">
<path d="M11.0234 3.58229C10.9745 3.82959 10.8197 4.00816 10.6467 4.18086C8.84049 5.98367 7.03581 7.78803 5.23267 9.59394C4.98927 9.83856 4.70577 9.94399 4.37284 9.82706C4.24803 9.78155 4.13443 9.70982 4.03968 9.61669C3.11699 8.70346 2.19797 7.78575 1.28262 6.86355C0.912276 6.49174 0.943587 5.95848 1.34598 5.64341C1.66006 5.3988 2.10257 5.44283 2.41544 5.75496C3.12286 6.46059 3.82939 7.16728 4.53502 7.87503C4.56218 7.90243 4.58028 7.93888 4.61844 7.99465C4.64424 7.95512 4.67233 7.91714 4.70259 7.8809C6.34314 6.23937 7.98401 4.59801 9.62522 2.9568C9.86323 2.71879 10.1389 2.61875 10.4687 2.72198C10.7563 2.81224 10.9283 3.01551 11.0036 3.30391C11.0092 3.32544 11.0168 3.34648 11.0234 3.36776V3.58229Z" fill="white"/>
</svg>
