<svg width="41" height="40" viewBox="0 0 41 40" fill="none" xmlns="http://www.w3.org/2000/svg">
<path d="M38.7146 9.55074C38.1844 7.46181 37.5156 5.41054 36.7126 3.41056V3.38856C36.7054 3.37765 36.6973 3.36735 36.6884 3.35775C36.6778 3.34757 36.666 3.33871 36.6532 3.33136C36.2132 3.06956 32.8472 1.91016 30.4933 1.31616C23.6371 -0.43872 16.4494 -0.43872 9.59331 1.31616C7.49313 1.83925 5.43068 2.50369 3.42012 3.30496C3.3971 3.31602 3.37564 3.33008 3.35631 3.34676C3.34825 3.35649 3.34091 3.36678 3.33431 3.37756C3.08571 3.76475 1.91311 7.17694 1.31691 9.53754C-0.439013 16.3935 -0.439013 23.5815 1.31691 30.4375C1.84661 32.5268 2.51621 34.5782 3.32113 36.5777C3.3199 36.5849 3.3199 36.5924 3.32113 36.5997L3.34312 36.6261V36.6371C3.50372 36.7955 6.9005 38.0165 9.54709 38.6831C16.4031 40.439 23.591 40.439 30.447 38.6831C32.5397 38.1581 34.593 37.4869 36.5916 36.6745C36.6109 36.6664 36.6287 36.6553 36.6444 36.6415C36.827 36.4589 38.0678 32.9147 38.6904 30.4375C40.4531 23.5878 40.4615 16.4044 38.7146 9.55074ZM38.3428 30.1229L35.5048 29.3793L39.5814 20.9753C39.5028 24.0605 39.0875 27.1279 38.3428 30.1229ZM0.44572 20.9753L4.52452 29.3793L1.68652 30.1229C0.943016 27.1306 0.526971 24.0663 0.44572 20.9841V20.9753ZM1.68652 9.86534L4.52452 10.6111L0.44572 19.0129C0.527745 15.9337 0.943784 12.8724 1.68652 9.88294V9.86534ZM39.5814 19.0129L35.5048 10.6111L38.3428 9.86534C39.0878 12.8633 39.5031 15.9336 39.5814 19.0217V19.0129ZM5.11238 10.23L3.78973 3.77135L10.3457 5.05119L5.11238 10.23ZM29.8156 5.05119L36.2374 3.76915L35.005 10.2555L32.5618 7.81218L29.8156 5.05119ZM34.9086 10.7035C33.4588 17.0351 33.8856 15.1673 32.944 19.2835L29.4614 11.0797C29.9894 11.0533 30.4668 11.0137 34.9086 10.7145V10.7035ZM19.3041 32.9235L10.7241 34.8881L11.0915 29.4387L19.3041 32.9235ZM11.0607 28.9481L7.2613 20.0029L11.0607 11.0511L20.0147 7.24954L28.9664 11.0511L32.768 20.0029L28.9664 28.9569L20.0147 32.7629L11.0607 28.9481ZM28.94 10.5583L20.7297 7.07355L29.3097 5.10895L28.94 10.5583ZM11.0959 10.5583L10.7241 5.10895L19.3041 7.07355L11.0959 10.5583ZM28.94 29.4475L29.3075 34.8969L20.7275 32.9323L28.94 29.4475ZM10.5723 11.0885L7.08972 19.2923L5.12511 10.7123C9.0455 10.9829 10.1851 11.0621 10.5679 11.0885H10.5723ZM4.6191 11.4229L6.81031 19.9919L4.6191 28.5829V11.4229ZM5.13392 29.2825L7.0985 20.7025L10.5789 28.9063C10.1675 28.9437 9.4371 29.0009 5.12071 29.2935L5.13392 29.2825ZM29.4747 28.9063L32.9572 20.7025C33.8878 24.7725 33.4962 23.0543 34.9218 29.2825C30.887 29.0229 29.798 28.9393 29.4614 28.9173L29.4747 28.9063ZM35.408 28.5829L33.2322 20.0029L35.408 11.4229V28.5829ZM34.6974 10.2767L29.38 10.6463L29.8156 5.05119C31.5384 6.78329 33.2218 8.47218 35.005 10.2555L34.6974 10.2767ZM20.0213 6.77435C20.0213 6.77435 14.792 5.45093 11.4413 4.60295H21.2246L28.5946 4.60516L20.0213 6.77435ZM10.3457 5.05119L10.6625 10.6353L5.11238 10.23L10.3457 5.05119ZM4.6191 11.4229V28.5829L0.458933 20.0029L4.6191 11.4229ZM5.16995 29.8099L10.6559 29.3507L10.2299 34.9799L5.16995 29.8099ZM20.0147 33.2117L28.5858 35.3941H11.4259L20.0147 33.2117ZM29.7298 34.6703L29.38 29.3595L34.8744 29.8325C33.1156 31.5699 31.5123 33.1552 29.7523 34.8969L29.7298 34.6703ZM35.408 28.5829V11.4229L39.5704 20.0029L35.408 28.5829ZM11.4413 4.60295C14.792 2.9783 20.0213 0.442763 20.0213 0.442763L28.6012 4.60295C21.8999 4.60295 16.2747 4.60295 11.4413 4.60295ZM10.2299 34.9799L3.78973 36.2213L5.16995 29.8099C8.14583 32.8505 7.03355 31.714 10.2299 34.9799ZM28.5858 35.3941L20.0059 39.5543L11.4259 35.3941H28.5858ZM29.7523 34.8969L32.362 32.3144L34.8744 29.8325L36.2418 36.2191L29.7523 34.8969ZM35.4696 10.1755L36.5872 4.29715C37.2342 5.98183 37.7843 7.7021 38.235 9.44954L35.4696 10.1755ZM29.8442 4.55015L30.5702 1.78476C32.3176 2.23577 34.0378 2.78593 35.7226 3.43256L29.8442 4.55015ZM30.1434 1.67696L29.3976 4.51495L20.9959 0.436164C24.0809 0.516196 27.1482 0.931504 30.1434 1.67476V1.67696ZM19.0401 0.433965L10.6361 4.51275L9.89031 1.67476C12.8862 0.930622 15.9542 0.514576 19.0401 0.433965ZM9.46569 1.78256L10.1917 4.54795L4.30011 3.43036C5.98684 2.78286 7.70932 2.23269 9.45909 1.78256H9.46569ZM3.43991 4.29495L4.55752 10.1733L1.79212 9.44294C2.24466 7.69747 2.79479 5.97878 3.43991 4.29495ZM4.55752 29.8325C4.39912 30.6663 3.70831 34.3029 3.43991 35.7109C2.79479 34.027 2.24466 32.3083 1.79212 30.5629L4.55752 29.8325ZM10.1851 35.4601L9.45909 38.2233C7.71155 37.7729 5.99129 37.2227 4.30672 36.5755L10.1851 35.4601ZM9.8837 38.3311L10.6295 35.4931L19.0401 39.5829C15.9516 39.4991 12.8814 39.0794 9.8837 38.3311ZM20.9959 39.5719L29.3976 35.4931L30.1434 38.3311C27.1486 39.0788 24.0814 39.4985 20.9959 39.5829V39.5719ZM30.5702 38.2233L29.8442 35.4601L35.7226 36.5777C34.0374 37.2226 32.3173 37.772 30.5702 38.2233ZM36.5872 35.7109L35.4696 29.8325L38.235 30.5585C37.7836 32.3057 37.2335 34.0259 36.5872 35.7109Z" fill="#1D1D1B"/>
</svg>
