<svg width="45" height="40" viewBox="0 0 45 40" fill="none" xmlns="http://www.w3.org/2000/svg">
<path d="M44.7855 13.222C45.2429 7.7089 42.2497 3.18363 37.9485 1.14852C35.3589 -0.072575 32.4183 -0.328907 29.6565 0.425695C26.8947 1.1803 24.493 2.89624 22.8841 5.26448C21.2751 2.89569 18.873 1.17939 16.1107 0.424759C13.3483 -0.329867 10.4073 -0.0732005 7.81739 1.14852C5.81386 2.0946 4.11143 3.577 2.89882 5.4314C1.39082 7.72811 0.713099 10.4713 0.978038 13.206C0.97354 13.2279 0.97354 13.2504 0.978038 13.2723C1.584 21.55 8.04834 30.3032 14.8625 35.5145C17.5173 37.5473 20.1881 39.0519 22.804 39.9872C22.8513 40.0043 22.9031 40.0043 22.9504 39.9872C33.0802 36.3491 43.9875 24.0287 44.7718 13.27C44.7807 13.2555 44.7854 13.2389 44.7855 13.222ZM14.9266 24.5729L22.5228 28.6408L19.3924 32.208L14.9266 24.5729ZM22.8841 28.3161L14.5104 23.832C13.5957 21.0172 13.0058 19.2427 11.7893 15.5338L14.8237 9.70971L22.8841 8.59841L30.9422 9.70971L33.9766 15.5429L31.2578 23.8389L22.8841 28.3161ZM34.3356 15.9088L38.2389 19.229L31.8683 23.4296L34.3356 15.9088ZM31.4293 9.64797L37.0453 8.35144L34.203 14.9827L31.4293 9.64797ZM14.3366 9.64797L11.5629 14.9804L8.72061 8.34916L14.3366 9.64797ZM13.8999 23.4364L7.52698 19.229L11.4303 15.9088L13.8999 23.4364ZM26.3735 32.208L23.2454 28.6408L30.8393 24.5729L26.3735 32.208ZM37.6009 1.70646L37.2168 7.84382L31.3012 9.2158C31.1434 6.73022 31.1526 6.87199 30.9994 4.439L37.6009 1.70646ZM30.8462 9.22723L23.6272 8.2394L30.5535 4.64937L30.8462 9.22723ZM15.2124 4.65395L22.1363 8.24398L14.922 9.2318C15.0272 7.54654 15.1712 5.29878 15.2124 4.64937V4.65395ZM8.23584 8.38117L11.2656 15.4492L7.14969 18.9386L1.54513 13.2586L8.23584 8.38117ZM9.55524 29.8756L7.48125 19.7389L14.1491 24.143L18.8825 32.2331L9.55524 29.8756ZM26.8834 32.2331L31.6168 24.143L38.2846 19.7389L36.2106 29.8756L26.8834 32.2331ZM38.6047 18.9317L34.5002 15.4492L37.5323 8.38117L44.2116 13.2586C36.5308 21.0446 39.1787 18.3578 38.6047 18.9386V18.9317ZM15.1781 3.9428L14.5973 0.576858C16.1133 0.790624 17.5708 1.3078 18.8825 2.09748L15.1781 3.9428ZM14.7665 4.43214C14.7322 4.97636 14.515 8.42004 14.4647 9.20894L8.54911 7.83695L8.16496 1.70646L14.7665 4.43214ZM22.8841 39.2508C19.2666 31.9039 20.0098 33.4268 19.6256 32.6356L22.8841 28.9175L26.1425 32.631C25.8979 33.1387 25.8842 33.1524 22.8841 39.2508ZM42.0073 21.3716L38.9706 19.2267C46.3953 11.7037 42.8213 15.3394 44.2711 13.8622C44.0104 16.2426 43.2512 18.7648 42.0073 21.3716ZM44.3579 12.8081L37.8799 8.07704L42.5927 5.85443C43.8957 7.92731 44.5134 10.3578 44.3579 12.8013V12.8081ZM42.3388 5.47028L37.6855 7.65173L38.0582 1.70646C39.7765 2.58166 41.2481 3.87328 42.3388 5.46341V5.47028ZM37.2716 1.35432L31.0565 3.91993C31.3561 2.18437 31.3469 2.23697 31.6442 0.526559C33.5591 0.325615 35.4939 0.607841 37.2716 1.34746V1.35432ZM30.5878 3.94966C28.1639 2.7446 27.2196 2.27126 26.8857 2.10433C28.1999 1.3199 29.6562 0.803122 31.1709 0.583725C30.901 2.12492 31.0337 1.36804 30.5878 3.9428V3.94966ZM26.4284 2.39245L30.2562 4.29494L23.1127 7.99244V5.7401C23.9802 4.41146 25.1081 3.2726 26.4284 2.39245ZM22.6554 5.7401V7.99244L15.5142 4.28808L19.3398 2.39245C20.6613 3.27112 21.7895 4.41025 22.6554 5.7401ZM14.1217 0.519692L14.7093 3.91535L8.49423 1.34974C10.2707 0.6055 12.2059 0.320058 14.1217 0.519692ZM7.70763 1.70646C7.93629 5.29878 7.85397 4.05256 8.08035 7.65173L3.42703 5.45884C4.51849 3.8705 5.99005 2.58054 7.70763 1.70646ZM3.17322 5.84757L7.88599 8.07019C4.7167 10.3843 1.71205 12.5703 1.41021 12.7967C1.24509 10.3519 1.86258 7.91797 3.17322 5.84757ZM6.79526 19.2199L3.76088 21.3716C2.51466 18.7671 1.75321 16.2427 1.49482 13.8554L6.79526 19.2199ZM3.96211 21.7832L6.9942 19.6406L8.963 29.2628C7.00208 26.9792 5.32305 24.468 3.96211 21.7832ZM10.0377 30.4724L18.7818 32.6836L15.0203 35.0457C13.2337 33.6659 11.5669 32.1375 10.0377 30.477V30.4724ZM15.4068 35.343L19.2597 32.9237C20.2522 34.9817 17.2018 28.7574 22.4245 39.3469C19.9155 38.3365 17.5548 36.9912 15.4068 35.3476V35.343ZM23.3414 39.3515C27.4757 30.9503 26.1151 33.7332 26.5061 32.9283L30.3568 35.3476C28.2098 36.9928 25.8499 38.3397 23.3414 39.3515ZM30.7456 35.0503L26.984 32.6882L35.7259 30.477C34.1984 32.139 32.5331 33.6689 30.7478 35.0503H30.7456ZM38.7717 19.6406L41.8015 21.7832C40.4422 24.4684 38.7639 26.9797 36.8029 29.2628L38.7717 19.6406Z" fill="#1D1D1B"/>
</svg>
