<svg width="34" height="20" viewBox="0 0 34 20" fill="none" xmlns="http://www.w3.org/2000/svg">
<path d="M19.2895 6.17627H14.4766V14.8232H19.2895V6.17627Z" fill="#FF5A00"/>
<path d="M14.7994 10.5C14.7994 8.7432 15.6252 7.18398 16.8926 6.17654C15.9599 5.4432 14.7833 5 13.5 5C10.4599 5 8 7.45987 8 10.5C8 13.5401 10.4599 16 13.5 16C14.7833 16 15.9599 15.5568 16.8926 14.8235C15.6235 13.8303 14.7994 12.2568 14.7994 10.5Z" fill="#EB001B"/>
<path d="M25.7849 10.5C25.7849 13.5401 23.325 16 20.2849 16C19.0016 16 17.825 15.5568 16.8923 14.8235C18.1757 13.8142 18.9855 12.2568 18.9855 10.5C18.9855 8.7432 18.1596 7.18398 16.8923 6.17654C17.8232 5.4432 18.9998 5 20.2831 5C23.325 5 25.7849 7.47589 25.7849 10.5Z" fill="#F79E1B"/>
<rect x="0.5" y="0.5" width="33" height="19" rx="1.5" stroke="#D2D1D2"/>
</svg>
