<svg width="17" height="23" viewBox="0 0 17 23" fill="none" xmlns="http://www.w3.org/2000/svg">
<path d="M14.1306 3.38301C10.8998 -1.12767 5.64254 -1.12767 2.41174 3.38301C-1.74786 9.18911 -0.316884 18.9893 5.09148 22.1201C7.11573 23.2922 9.42439 23.2944 11.4486 22.1201C16.8726 18.9815 18.2769 9.16689 14.1306 3.38301ZM2.40396 19.2159C1.72932 18.197 1.20999 17.0835 0.862995 15.9118L2.57283 14.923C2.55283 15.4163 2.44284 18.206 2.40396 19.2159ZM0.79745 15.6918C0.440584 14.4317 0.24863 13.1306 0.226392 11.8211L2.52395 14.6941L0.79745 15.6918ZM14.1439 3.78408C14.8179 4.80373 15.3372 5.91755 15.6849 7.08931L13.9795 8.07477C14.004 7.42484 13.9417 8.76027 14.1439 3.78408ZM11.5075 15.5763L12.6185 11.8433L13.7162 14.6641L11.5075 15.5763ZM12.4774 11.5C12.1086 12.7399 11.7986 13.7876 11.232 15.694L8.26895 17.4072L5.30479 15.694C5.00037 14.6686 4.63041 13.4231 4.06047 11.5C4.42043 10.2846 5.0737 8.087 5.30479 7.30596L8.26895 5.59279L11.232 7.30596C11.4709 8.10366 12.1197 10.2901 12.4774 11.5ZM3.93047 11.1578L2.8328 8.33697C3.7316 7.97256 1.20408 9.00913 5.03816 7.42373L3.93047 11.1578ZM8.46894 5.45169L10.5065 3.9074C10.7654 5.15839 10.031 1.66428 11.1664 7.01154L8.46894 5.45169ZM8.06787 5.45169L5.37146 7.0071L6.03361 3.9074L8.06787 5.45169ZM2.65727 8.50029L3.82716 11.5L2.65727 14.5053L0.256391 11.5L2.65727 8.50029ZM6.0325 19.0993L5.37368 15.9951L8.07008 17.5505L6.0325 19.0993ZM8.47671 17.5539L11.1742 15.9985L10.5154 19.1026L8.47671 17.5539ZM12.6152 11.1634C12.3697 10.3368 12.5485 10.9412 11.5042 7.42928C14.305 8.58695 13.424 8.22698 13.7095 8.34253L12.6152 11.1634ZM13.7518 8.11699L11.4309 7.15709C11.4309 7.13709 10.7276 3.84185 10.722 3.82407L13.9217 3.56854L13.7518 8.11699ZM8.27672 5.3306L6.11471 3.69187L8.27672 0.323302L10.4365 3.68964C9.7077 4.21293 11.8442 2.61197 8.27117 5.32504L8.27672 5.3306ZM2.83948 14.6697C3.62384 12.6566 3.36831 13.3132 3.93826 11.8489C4.09158 12.3677 4.89706 15.0797 5.04926 15.5818L2.83948 14.6697ZM8.27672 17.6805L10.4387 19.3192L8.27672 22.6878L6.11471 19.3192L8.27672 17.6805ZM13.884 8.50029L16.2882 11.5L13.884 14.5053L12.7141 11.5C13.5884 9.25911 13.3507 9.86682 13.884 8.50029ZM10.5443 3.44856L8.47671 0.226644C9.45619 0.265772 10.4117 0.540961 11.262 1.02879C11.0865 1.62318 10.7298 2.82306 10.5443 3.44856ZM5.99695 3.44856L5.27924 1.02879C6.12983 0.540789 7.08578 0.265595 8.06564 0.226644L5.99695 3.44856ZM5.82474 3.81408C5.79141 3.97073 5.14592 7.01043 5.11703 7.14709L2.79614 8.10699L2.61727 3.5641L5.82474 3.81408ZM2.56728 8.07477L0.862995 7.08931C1.20976 5.9172 1.72911 4.80324 2.40396 3.78408C2.6106 9.07357 2.54395 7.54483 2.56728 8.07477ZM0.79745 7.30818L2.52395 8.30809L0.226392 11.1811C0.248514 9.8709 0.440468 8.56905 0.79745 7.30818ZM2.61727 19.4326C2.67949 17.8661 2.75837 15.8562 2.79614 14.8897L5.11703 15.8485C5.14592 15.9896 5.79141 19.0293 5.82474 19.1815L2.61727 19.4326ZM5.99695 19.5514L8.06564 22.7734C7.08569 22.7349 6.12962 22.4597 5.27924 21.9712L5.99695 19.5514ZM10.5443 19.5514L11.262 21.9712C10.4119 22.4595 9.45628 22.7348 8.47671 22.7734L10.5443 19.5514ZM10.7165 19.1859C10.7798 18.8904 11.3453 16.224 11.4253 15.8529L13.7451 14.8941L13.9217 19.4326L10.7165 19.1859ZM13.9695 14.923L15.6793 15.9118C15.3334 17.0829 14.816 18.1963 14.1439 19.2159C14.1039 18.3482 14.0328 16.4229 13.9695 14.923ZM14.0184 8.30586L15.7438 7.30596C16.1009 8.56607 16.2933 9.86715 16.316 11.1767C16.0471 10.8423 14.4883 8.8947 14.0184 8.30586ZM13.8329 3.3519L10.7343 3.58965L11.4597 1.14544C12.3858 1.72082 13.1917 2.4701 13.8329 3.3519ZM5.08149 1.14433L5.80696 3.58854L2.70948 3.35079C3.34986 2.46869 4.15544 1.71933 5.08149 1.14433ZM2.70948 19.6481L5.81141 19.4103L5.08592 21.8546C4.15852 21.2797 3.35146 20.5304 2.70948 19.6481ZM11.4597 21.8557L10.7343 19.4115L13.8329 19.6492C13.1921 20.5313 12.3861 21.2807 11.4597 21.8557ZM15.7438 15.6918L14.0173 14.6919L16.316 11.8189C16.2935 13.1292 16.1012 14.431 15.7438 15.6918Z" fill="#1D1D1B"/>
</svg>
