<svg width="20" height="20" viewBox="0 0 20 20" fill="none" xmlns="http://www.w3.org/2000/svg">
<path d="M4.16679 15.8332H5.33346L12.521 8.64567L11.3543 7.479L4.16679 14.6665V15.8332ZM16.0835 7.43734L12.5418 3.93734L13.7085 2.77067C14.0279 2.45123 14.4204 2.2915 14.886 2.2915C15.3515 2.2915 15.7437 2.45123 16.0626 2.77067L17.2293 3.93734C17.5487 4.25678 17.7154 4.64234 17.7293 5.094C17.7432 5.54567 17.5904 5.93095 17.271 6.24984L16.0835 7.43734ZM14.8751 8.6665L6.04179 17.4998H2.50012V13.9582L11.3335 5.12484L14.8751 8.6665ZM11.9376 8.06234L11.3543 7.479L12.521 8.64567L11.9376 8.06234Z" fill="#B6B6B6"/>
</svg>
