<svg width="20" height="20" viewBox="0 0 20 20" fill="none" xmlns="http://www.w3.org/2000/svg">
<path d="M7.5 14.9998C7.04167 14.9998 6.64917 14.8365 6.3225 14.5098C5.99583 14.1832 5.83278 13.791 5.83333 13.3332V3.33317C5.83333 2.87484 5.99667 2.48234 6.32333 2.15567C6.65 1.82901 7.04222 1.66595 7.5 1.66651H15C15.4583 1.66651 15.8508 1.82984 16.1775 2.15651C16.5042 2.48317 16.6672 2.87539 16.6667 3.33317V13.3332C16.6667 13.7915 16.5033 14.184 16.1767 14.5107C15.85 14.8373 15.4578 15.0004 15 14.9998H7.5ZM7.5 13.3332H15V3.33317H7.5V13.3332ZM4.16667 18.3332C3.70833 18.3332 3.31583 18.1698 2.98917 17.8432C2.6625 17.5165 2.49945 17.1243 2.5 16.6665V5.83317C2.5 5.59706 2.58 5.39901 2.74 5.23901C2.9 5.07901 3.09778 4.99928 3.33333 4.99984C3.56945 4.99984 3.7675 5.07984 3.9275 5.23984C4.0875 5.39984 4.16722 5.59762 4.16667 5.83317V16.6665H12.5C12.7361 16.6665 12.9342 16.7465 13.0942 16.9065C13.2542 17.0665 13.3339 17.2643 13.3333 17.4998C13.3333 17.736 13.2533 17.934 13.0933 18.094C12.9333 18.254 12.7356 18.3337 12.5 18.3332H4.16667Z" fill="black"/>
</svg>
