<svg width="46" height="48" viewBox="0 0 46 48" fill="none" xmlns="http://www.w3.org/2000/svg">
<path d="M33.9372 15.4101C32.8421 14.6015 32.5049 13.7786 32.7861 12.7161C32.8507 12.4295 32.9787 12.161 33.1608 11.9305C33.3429 11.7 33.5744 11.5132 33.8382 11.3841C34.1299 11.2447 34.1807 11.0677 34.1794 10.7812C34.1663 8.82025 34.8213 7.17312 36.4072 5.92963C37.1885 5.31765 37.5101 4.42572 37.4398 3.46348C37.3486 2.22781 35.9606 1.32156 34.6637 1.57156C33.8252 1.73301 33.2119 2.19135 32.8643 2.98041C32.297 4.24034 31.5065 5.38727 30.5309 6.36583C30.1234 6.78119 29.7145 6.84239 29.3799 6.54552C29.014 6.2226 29.0231 5.82286 29.4489 5.35932C30.3336 4.4081 31.0618 3.32256 31.6064 2.14317C32.2458 0.742129 33.7471 -0.0417251 35.2848 0.0884832C36.9775 0.23041 38.2887 1.26817 38.7653 2.83588C39.2419 4.40359 38.7835 6.07416 37.4906 7.03249C36.1976 7.99083 35.7145 9.26036 35.7484 10.7916C35.7553 10.88 35.7808 10.9659 35.8232 11.0438C35.8656 11.1216 35.924 11.1897 35.9945 11.2434C37.5869 12.2578 37.6559 14.1184 36.1247 15.2148C36.0869 15.2421 36.0544 15.2786 35.984 15.345C36.4228 16.4101 36.863 17.4869 37.3083 18.5611C39.8491 24.7035 42.3903 30.8459 44.932 36.9882C45.2275 37.7018 45.2106 37.7942 44.652 38.3528L35.6598 47.3437C35.0739 47.9296 34.7757 47.9309 34.1976 47.3515C31.1768 44.3324 28.1542 41.3146 25.1299 38.2981C24.7393 37.9075 24.6611 37.5703 24.8799 37.0494C27.8426 30.0121 30.7939 22.9687 33.734 15.9192C33.8031 15.7591 33.8656 15.5937 33.9372 15.4101ZM34.9268 16.7825C34.8276 17.0139 34.7407 17.2503 34.6663 17.4908C33.1906 23.5056 31.7228 29.5221 30.2627 35.5403C30.2475 35.6422 30.2542 35.7461 30.2825 35.8452C30.3108 35.9442 30.36 36.0361 30.4268 36.1145C31.8486 37.5637 33.2913 38.9934 34.7236 40.427C34.7887 40.4921 34.8617 40.5468 34.9528 40.6236C36.4463 39.1275 37.9072 37.651 39.3877 36.1966C39.496 36.1043 39.574 35.9815 39.6114 35.8442C39.6488 35.7069 39.6439 35.5615 39.5973 35.427C38.1364 29.4921 36.6789 23.5564 35.2249 17.6197C35.1624 17.3749 35.0557 17.1445 34.9268 16.7812V16.7825ZM26.652 37.5351L34.5518 45.4361C34.5518 44.1809 34.5518 42.871 34.5426 41.5611C34.5271 41.4206 34.4631 41.2898 34.3617 41.1913C32.8643 39.6827 31.3599 38.1801 29.8486 36.6835C29.7861 36.6305 29.7124 36.5924 29.633 36.5718C29.5537 36.5513 29.4707 36.549 29.3903 36.565C28.4554 36.8762 27.5309 37.2239 26.652 37.5351ZM43.2314 37.5442C42.3851 37.2408 41.501 36.94 40.6273 36.6041C40.5075 36.5416 40.3697 36.5231 40.2377 36.5516C40.1057 36.5802 39.9879 36.654 39.9046 36.7604C38.4723 38.2174 37.0127 39.6536 35.5804 41.1132C35.4241 41.2853 35.3321 41.5061 35.32 41.7382C35.2939 42.8749 35.307 44.0104 35.3096 45.1471C35.3145 45.241 35.3258 45.3346 35.3434 45.427L43.2314 37.5442ZM26.5843 36.763C27.4958 36.427 28.2848 36.1562 29.0583 35.8346C29.1589 35.7867 29.2488 35.719 29.3226 35.6355C29.3965 35.5521 29.4527 35.4546 29.488 35.3489C30.1208 32.8684 30.7275 30.3815 31.3395 27.8945C31.7926 26.0568 32.2449 24.2196 32.6963 22.3828L32.609 22.3515L26.5843 36.763ZM37.2614 22.3932L37.1676 22.427C37.3994 23.3671 37.6307 24.3081 37.8616 25.2499C38.6846 28.6032 39.5092 31.9552 40.3356 35.3059C40.3747 35.4648 40.4502 35.6966 40.5687 35.7434C41.4294 36.0911 42.3044 36.401 43.264 36.7565L37.2614 22.3932ZM35.6585 13.3801C35.666 13.2789 35.6532 13.1772 35.6211 13.0809C35.589 12.9846 35.5381 12.8956 35.4714 12.8191C35.4047 12.7425 35.3235 12.68 35.2325 12.6351C35.1414 12.5901 35.0424 12.5637 34.9411 12.5572C34.7373 12.5623 34.5435 12.6469 34.4012 12.7928C34.2589 12.9388 34.1793 13.1346 34.1794 13.3385C34.1869 13.5339 34.2656 13.7198 34.4006 13.8613C34.5356 14.0028 34.7176 14.09 34.9124 14.1067C35.0095 14.1091 35.1061 14.0922 35.1965 14.0568C35.2869 14.0214 35.3693 13.9683 35.4389 13.9006C35.5085 13.8329 35.5639 13.752 35.6019 13.6627C35.6398 13.5733 35.6595 13.4772 35.6598 13.3801H35.6585Z" fill="#5C5C5C"/>
<path d="M9.36444 15.3242C8.35533 14.6966 7.94257 13.8346 8.19256 12.6966C8.24707 12.3983 8.37171 12.1172 8.55623 11.8766C8.74074 11.6359 8.97983 11.4426 9.25377 11.3125C9.57148 11.1641 9.61184 10.9674 9.60533 10.6719C9.57668 9.30078 9.90611 8.02734 10.759 6.9349C11.0826 6.55094 11.4395 6.19627 11.8254 5.875C12.5949 5.1862 12.9061 4.33073 12.6926 3.33333C12.4946 2.42187 11.8892 1.83203 10.979 1.58724C10.4259 1.42737 9.83342 1.47585 9.31367 1.72349C8.79391 1.97113 8.38299 2.40074 8.15871 2.93099C7.58528 4.20722 6.78749 5.37018 5.80325 6.36458C5.39439 6.77995 4.98944 6.84375 4.6535 6.55078C4.31757 6.25781 4.31757 5.80599 4.72382 5.35937C5.598 4.42026 6.31826 3.34889 6.85793 2.18489C7.58189 0.58854 9.2746 -0.173179 11.091 0.170571C11.9105 0.32826 12.6563 0.748523 13.2156 1.36779C13.775 1.98706 14.1175 2.77164 14.1913 3.60286C14.3124 5.0612 13.8228 6.25651 12.6483 7.13542C11.3762 8.08464 10.9751 9.39192 11.0298 10.8997C11.0355 10.9598 11.0531 11.0181 11.0814 11.0713C11.1098 11.1245 11.1485 11.1715 11.1952 11.2096C12.9426 12.4974 12.979 14.0182 11.2577 15.3464C11.9903 17.1172 12.7251 18.8941 13.4621 20.6771L20.1926 36.9531C20.5129 37.7266 20.5038 37.7786 19.9322 38.3568L10.9738 47.3151C10.3423 47.9466 10.0624 47.9466 9.44127 47.3151L0.447776 38.3268C-0.0847756 37.793 -0.103005 37.6979 0.18736 37.0013C3.18128 29.9397 6.17608 22.8785 9.17173 15.8177C9.22772 15.6693 9.28632 15.5182 9.36444 15.3242ZM10.1991 40.6484C11.703 39.1406 13.1405 37.6862 14.5988 36.25C14.8697 35.9896 14.953 35.7526 14.8592 35.3672C13.3922 29.4505 11.9348 23.5312 10.4868 17.6094C10.4282 17.3724 10.3319 17.1445 10.2525 16.9128C10.0834 17.1269 9.96294 17.3752 9.8996 17.6406C9.5207 19.168 9.1522 20.6966 8.7772 22.224C7.69473 26.6328 6.60966 31.0408 5.52199 35.4479C5.47608 35.575 5.47084 35.7132 5.507 35.8434C5.54317 35.9736 5.61894 36.0893 5.72382 36.1745C6.32799 36.7409 6.89569 37.3398 7.48554 37.9258L10.1991 40.6484ZM18.5467 37.5547C17.6587 37.2396 16.772 36.9401 15.8996 36.6042C15.5949 36.4857 15.4061 36.5312 15.1795 36.763C14.1118 37.8542 13.0871 38.9987 11.9243 39.9857C10.8605 40.8971 10.3618 41.8984 10.5545 43.3008C10.6561 44.0234 10.5728 44.7708 10.5728 45.5143C13.2394 42.8542 15.8657 40.2305 18.5467 37.5547ZM1.96991 37.5208L9.82278 45.3789C9.82278 44.1667 9.82278 42.8698 9.81496 41.5729C9.80364 41.4313 9.74224 41.2984 9.64178 41.1979C8.14439 39.6892 6.64005 38.1866 5.12877 36.6901C5.06779 36.6355 4.99521 36.5954 4.9165 36.5728C4.83779 36.5503 4.755 36.5458 4.67434 36.5599C3.73294 36.875 2.80846 37.224 1.96471 37.5208H1.96991ZM12.5012 22.2995C12.466 22.3802 12.4517 22.3971 12.4543 22.4089C13.5211 26.7682 14.5893 31.1267 15.6587 35.4844C15.6695 35.5374 15.6907 35.5877 15.7211 35.6324C15.7515 35.6771 15.7905 35.7153 15.8358 35.7448C16.6991 36.0781 17.5689 36.3958 18.5428 36.7539C16.4959 31.8711 14.5103 27.1081 12.496 22.2995H12.5012ZM1.85663 36.763C2.7108 36.4492 3.43085 36.1536 4.17303 35.9258C4.591 35.7956 4.73814 35.5469 4.8345 35.151C5.55194 32.1732 6.29283 29.2005 7.0246 26.2253C7.3371 24.9562 7.64786 23.6853 7.95689 22.4128L7.86965 22.3802L1.85663 36.763ZM10.1822 14.1068C10.3794 14.1099 10.57 14.0354 10.7128 13.8992C10.8556 13.763 10.939 13.5761 10.9452 13.3789C10.9539 13.1739 10.8831 12.9735 10.7474 12.8196C10.6117 12.6658 10.4218 12.5703 10.2173 12.5534C10.1156 12.5543 10.0151 12.5757 9.92182 12.6163C9.82854 12.6568 9.74435 12.7157 9.67427 12.7895C9.60419 12.8632 9.54964 12.9502 9.51387 13.0455C9.47809 13.1407 9.46181 13.2421 9.46601 13.3438C9.46074 13.4416 9.47528 13.5395 9.50876 13.6316C9.54223 13.7237 9.59395 13.808 9.66083 13.8797C9.7277 13.9513 9.80834 14.0086 9.89793 14.0483C9.98751 14.088 10.0842 14.1092 10.1822 14.1107V14.1068Z" fill="#5C5C5C"/>
</svg>
