<svg width="13" height="24" viewBox="0 0 13 24" fill="none" xmlns="http://www.w3.org/2000/svg">
<path d="M6.55544 0.0179404L6.5419 0.0116867C6.52709 0.00401067 6.51063 0 6.49395 0C6.47726 0 6.46082 0.00401067 6.446 0.0116867H6.44079C4.68479 1.14513 3.20266 2.65468 2.10158 4.43114C1.06624 6.10634 0.39407 7.9802 0.128519 9.93153C-0.137033 11.8829 0.00996003 13.8682 0.559992 15.7591C0.914369 16.9796 1.43447 18.1457 2.10576 19.2249C3.20585 21.0007 4.68648 22.5102 6.44079 23.6443C6.45452 23.6523 6.46977 23.6574 6.48556 23.6592C6.50135 23.661 6.51734 23.6595 6.53251 23.6548C6.61903 23.6245 7.86877 22.8084 9.02054 21.6243C10.4719 20.1329 11.5737 18.3375 12.2463 16.3681C12.9188 14.3987 13.1454 12.3045 12.9095 10.2368C12.6736 8.16915 11.9811 6.17974 10.8822 4.41245C9.78335 2.64515 8.30546 1.14414 6.55544 0.0179404ZM12.2101 15.7977C11.8989 16.8409 11.4647 17.8434 10.9165 18.784L10.9718 15.3047L12.2101 15.7977ZM10.9718 8.35759L10.9165 4.87831C11.4643 5.81905 11.8985 6.82148 12.2101 7.86457L10.9718 8.35759ZM8.1648 19.9066L6.49708 23.317C6.03741 22.3727 6.5273 23.3848 4.82936 19.9066L6.49708 19.2812L8.1648 19.9066ZM6.49708 4.38633L4.82936 3.76093L6.49708 0.350443C6.569 0.496368 6.94423 1.25831 8.1648 3.76093L6.49708 4.38633ZM12.7677 11.8317L10.9019 14.8971C10.4266 13.292 10.4631 13.417 9.99409 11.8317L10.9019 8.76514L12.7677 11.8317ZM8.62342 7.08178L9.77727 11.8317L8.62342 16.5805C8.49835 16.7233 6.58463 18.907 6.49708 19.0081C6.42828 18.9309 4.37907 16.5909 4.36969 16.5805L3.21584 11.8317L4.36969 7.08178L6.49708 4.6542L8.62342 7.08178ZM6.67635 4.54163C6.81394 4.4916 6.99948 4.41968 8.22109 3.95689L8.57235 6.70654C7.67387 5.68089 6.8056 4.68651 6.6774 4.54163H6.67635ZM6.31884 4.54163C6.21461 4.66358 6.18646 4.69173 4.4218 6.70654L4.77307 3.95689L6.31884 4.54163ZM6.31884 19.1196C5.99781 19.2384 6.57525 19.0248 4.77515 19.7054L4.42389 16.9557L6.31884 19.1196ZM8.57444 16.9557L8.22316 19.7054C6.20105 18.9403 7.06931 19.2645 6.67844 19.1186C6.8129 18.9664 7.21316 18.5098 8.57339 16.9557H8.57444ZM9.89714 12.2319L10.7498 15.1098L8.88714 16.3898C9.4156 14.2071 9.36139 14.4302 9.8961 12.2319H9.89714ZM10.7498 8.55354L9.89714 11.4304L8.88714 7.27357L10.7498 8.55354ZM4.11119 7.27357L3.10118 11.4304L2.24856 8.55354C3.21792 7.88645 3.13766 7.94066 4.11015 7.27357H4.11119ZM2.09429 8.76514L3.00215 11.8317C2.17559 14.6209 2.34549 14.0487 2.09429 14.8971L0.22957 11.8317L2.09429 8.76514ZM2.24856 15.1098L3.10118 12.2319L4.11119 16.3898L2.24856 15.1098ZM10.7029 4.56978C10.73 6.27502 10.7143 5.26292 10.7623 8.30756L8.8173 6.97129C8.71932 6.20206 8.52961 4.71883 8.43163 3.94855L10.7029 4.56978ZM4.5646 3.95272C4.46558 4.72091 4.27692 6.20206 4.1779 6.97547L2.23396 8.31173C2.28191 5.26605 2.26628 6.27502 2.29234 4.57394L4.5646 3.95272ZM2.02445 8.3555L0.787212 7.86249C1.09789 6.81926 1.53178 5.81677 2.0797 4.87622L2.02445 8.3555ZM0.728849 8.06365L1.97234 8.55876L0.214976 11.4491C0.245538 10.3044 0.418154 9.16791 0.728849 8.06573V8.06365ZM1.97234 15.0994L0.728849 15.5945C0.418058 14.4919 0.245441 13.3551 0.214976 12.21C1.12493 13.7068 1.06343 13.5994 1.97234 15.0973V15.0994ZM2.02445 15.3078L2.0797 18.7861C1.53159 17.8456 1.09769 16.8431 0.787212 15.7998L2.02445 15.3078ZM2.29234 19.0925C2.26524 17.3852 2.28191 18.3879 2.23396 15.3547L4.1779 16.691C4.27692 17.4613 4.46662 18.9434 4.5646 19.7137L2.29234 19.0925ZM8.43163 19.7096C8.52961 18.9414 8.71932 17.4602 8.8173 16.6868L10.7623 15.3506C10.7133 18.4077 10.73 17.3831 10.7029 19.0883L8.43163 19.7096ZM11.0229 8.56293L12.2737 8.06782C12.584 9.17076 12.7562 10.3079 12.7865 11.4533L11.0229 8.56293ZM8.44622 3.74426L8.98511 2.30376C9.57551 2.9268 10.1076 3.60262 10.5747 4.32274L8.44622 3.74426ZM8.82459 2.13803L8.29613 3.55142L6.76079 0.400472C7.50302 0.911141 8.19415 1.49233 8.82459 2.13595V2.13803ZM6.23545 0.400472L4.70011 3.54517L4.17164 2.13177C4.80204 1.48937 5.49321 0.909558 6.23545 0.400472ZM4.01113 2.29751L4.55001 3.738L2.41845 4.32066C2.8861 3.60009 3.41925 2.92423 4.01113 2.30167V2.29751ZM4.55001 19.9128L4.01113 21.3533C3.41913 20.7335 2.88594 20.06 2.41845 19.3416L4.55001 19.9128ZM4.17164 21.519C4.31652 21.1302 4.58858 20.4037 4.70011 20.1056L6.23545 23.2503C5.4933 22.7439 4.80211 22.1665 4.17164 21.5263V21.519ZM6.76079 23.2503L8.29613 20.1056L8.82459 21.519C8.19457 22.164 7.5034 22.7463 6.76079 23.2576V23.2503ZM8.98511 21.3533L8.44622 19.9128L10.5747 19.3343C10.1079 20.057 9.57586 20.7353 8.98511 21.3606V21.3533ZM12.2684 15.5892L11.0176 15.0941L12.776 12.2038C12.7481 13.3514 12.5776 14.491 12.2684 15.5965V15.5892Z" fill="#1D1D1B"/>
</svg>
