<svg width="40" height="40" viewBox="0 0 40 40" fill="none" xmlns="http://www.w3.org/2000/svg">
<path d="M19.65 3C10.45 3 3 10.4667 3 19.6667C3 28.8667 10.45 36.3333 19.65 36.3333C28.8667 36.3333 36.3333 28.8667 36.3333 19.6667C36.3333 10.4667 28.8667 3 19.65 3ZM19.6667 33C12.3 33 6.33333 27.0333 6.33333 19.6667C6.33333 12.3 12.3 6.33333 19.6667 6.33333C27.0333 6.33333 33 12.3 33 19.6667C33 27.0333 27.0333 33 19.6667 33ZM20.5 11.3333H18V21.3333L26.75 26.5833L28 24.5333L20.5 20.0833V11.3333Z" fill="#A0A0A1"/>
</svg>
