<svg width="48" height="48" viewBox="0 0 48 48" fill="none" xmlns="http://www.w3.org/2000/svg">
<path d="M39.338 9.70413C40.4721 9.07913 41.5515 9.28356 42.5749 9.92028C44.3588 11.0257 45.4395 13.3669 45.1036 15.3083C45.0017 16.0248 44.6243 16.6732 44.0515 17.1156C43.8484 17.2705 43.8158 17.4007 43.8913 17.6364C44.0619 18.1911 44.1895 18.7588 44.3314 19.3109C46.1674 19.5804 47.3262 20.8448 47.5867 22.9138C47.7585 24.2393 47.5567 25.5075 46.7989 26.6442C46.2781 27.4177 45.5984 27.9463 44.6531 28.1182C44.5229 28.1403 44.3926 28.3057 44.321 28.4346C44.2494 28.5635 44.252 28.7158 44.2077 28.8552C44.0033 29.4971 43.9916 29.9919 44.5984 30.5479C45.5489 31.4203 45.5281 32.6546 45.2572 33.8304C44.9148 35.3213 44.1348 36.5648 42.8406 37.4164C41.9122 38.0309 40.9031 38.1976 39.821 37.8304C39.7438 37.8148 39.6641 37.8164 39.5876 37.8351C39.5111 37.8538 39.4397 37.8891 39.3783 37.9385C38.9799 38.2965 38.6009 38.6755 38.2429 39.0739C38.1965 39.1364 38.1647 39.2085 38.1498 39.2849C38.135 39.3613 38.1374 39.44 38.157 39.5153C38.4682 40.3812 38.377 41.208 37.9825 42.0179C37.0242 43.9971 34.4864 45.3487 32.3614 45.0127C31.6417 44.9242 30.9863 44.5544 30.5385 43.9841C30.3744 43.7731 30.2429 43.708 29.9721 43.7992C29.5281 43.9502 29.0606 44.0218 28.6088 44.1573C28.4786 44.195 28.3093 44.3239 28.2937 44.4307C28.0333 46.1729 26.8419 46.9763 25.2989 47.3695C23.7364 47.7679 22.2312 47.5817 20.8718 46.6573C20.1153 46.1364 19.6179 45.4502 19.5059 44.5062C19.4791 44.4255 19.4341 44.352 19.3746 44.2913C19.315 44.2306 19.2424 44.1843 19.1622 44.1559C18.6413 43.9958 18.0945 43.8825 17.6231 43.7653C17.3197 44.0362 17.0502 44.3174 16.7429 44.5466C15.7702 45.2653 14.6596 45.2744 13.571 44.9854C11.6257 44.4645 10.114 43.3851 9.59186 41.3291C9.46165 40.8148 9.60618 40.2132 9.70904 39.6677C9.75592 39.4151 9.78326 39.2666 9.57883 39.083C9.20514 38.7471 8.87441 38.3617 8.49811 38.0283C8.43176 37.9758 8.35472 37.9384 8.27239 37.9189C8.19005 37.8993 8.10443 37.898 8.02155 37.9151C7.3265 38.1626 6.56584 38.1534 5.87701 37.889C3.71034 37.0869 2.13873 34.3435 2.53977 32.0726C2.66998 31.3552 2.97988 30.7406 3.56191 30.3031C3.81191 30.1156 3.82232 29.958 3.73639 29.6924C3.57363 29.1716 3.45384 28.6273 3.31581 28.0961C1.31581 27.9541 0.164772 26.1143 0.0189389 24.1208C-0.0630923 22.9945 0.113991 21.9177 0.694721 20.932C1.21555 20.0518 1.9304 19.4424 2.97597 19.2679C3.10618 19.2471 3.23639 19.083 3.31191 18.9567C3.37832 18.8552 3.3653 18.7041 3.40827 18.583C3.6817 17.8018 3.76504 17.1677 3.01764 16.4672C2.27025 15.7666 2.28326 14.6573 2.47337 13.6573C2.79238 11.9802 3.65957 10.6442 5.13353 9.751C6.02285 9.21454 6.97467 9.05699 7.97597 9.48277C8.04513 9.50085 8.11753 9.50274 8.18753 9.48829C8.25754 9.47384 8.32328 9.44343 8.37962 9.39944C8.78587 9.02574 9.17649 8.63382 9.55149 8.22757C9.59818 8.17302 9.63182 8.10855 9.64987 8.03907C9.66792 7.96958 9.6699 7.89689 9.65566 7.82652C9.18561 6.7497 9.42128 5.75621 10.0046 4.8148C11.1635 2.94111 13.7195 1.84345 15.6335 2.3734C16.3796 2.58043 16.9929 2.97236 17.4135 3.64163C18.0411 3.49189 18.6531 3.34866 19.265 3.19892C19.3536 3.17678 19.4773 3.14423 19.5111 3.07913C19.9968 2.16767 20.8835 2.0622 21.7611 1.98538C22.3054 1.9372 22.8575 1.97626 23.4877 1.97626C23.532 1.91246 23.6348 1.7484 23.7481 1.59736C24.4174 0.748399 25.3106 0.416366 26.3419 0.659856C27.3731 0.903346 28.0489 1.60256 28.209 2.67027C28.2741 3.09996 28.4603 3.22106 28.838 3.28746C29.3145 3.3721 29.7794 3.52314 30.2781 3.65204C31.0593 2.36428 32.295 2.2471 33.6088 2.44892C34.4315 2.55615 35.2193 2.8478 35.9135 3.30211C36.6077 3.75641 37.1903 4.36164 37.6179 5.07262C38.1791 5.96715 38.3601 6.93199 37.9356 7.95673C37.9166 8.0339 37.9156 8.11437 37.9325 8.19201C37.9494 8.26965 37.9839 8.34238 38.0333 8.40465C38.4356 8.84215 38.8757 9.25231 39.338 9.70413ZM37.6179 8.61949C35.8406 9.7497 34.1778 9.50361 32.588 8.58043C30.9981 7.65725 29.9278 6.35126 30.0658 4.34215L28.1726 3.84345C28.0801 4.02835 28.015 4.17548 27.9369 4.31611C27.1452 5.73668 25.196 6.03876 24.0736 4.87731C23.8015 4.59606 23.5854 4.58433 23.2403 4.63902C21.9981 4.83694 20.7781 4.85126 19.7429 3.94892C19.6973 3.92113 19.6467 3.90278 19.5939 3.89495C19.5411 3.88712 19.4873 3.88998 19.4356 3.90335C18.9447 4.01402 18.4525 4.1234 17.976 4.27965C17.8995 4.31439 17.8326 4.36711 17.7809 4.43331C17.7292 4.49952 17.6943 4.57724 17.6791 4.65986C17.6691 5.39496 17.4535 6.11258 17.0567 6.73147C16.2755 7.95934 15.1856 8.80178 13.7794 9.17809C12.5268 9.51402 11.3054 9.46064 10.2234 8.63121C9.73639 9.12079 9.27285 9.58564 8.82884 10.0336C9.83926 11.5166 9.72206 13.0349 9.00201 14.5075C8.11139 16.3304 6.8028 17.6455 4.51373 17.514C4.36399 18.0934 4.20123 18.6703 4.07883 19.2549C4.058 19.3552 4.18431 19.5153 4.28457 19.6052C4.63613 19.9112 5.06582 20.1442 5.35878 20.4984C7.25722 22.8161 6.61009 26.488 4.02415 28.0322C4.15436 28.5531 4.28457 29.0882 4.45124 29.6078C4.48876 29.6829 4.54387 29.7478 4.61188 29.797C4.6799 29.8462 4.7588 29.8782 4.84186 29.8903C5.69214 29.9083 6.5163 30.1874 7.20253 30.6898C8.3106 31.4711 8.99941 32.5466 9.33665 33.85C9.65696 35.0947 9.59707 36.2901 8.78457 37.3838L10.1439 38.7888C13.4747 36.8604 17.4812 39.1429 17.696 43.0322C17.8366 43.0791 17.9864 43.1377 18.14 43.1794C18.6088 43.3096 19.0775 43.4268 19.5372 43.5466C21.5515 40.281 26.1296 40.2823 28.1309 43.5466C28.6374 43.4164 29.1531 43.2757 29.6713 43.1442C29.9004 43.0869 30.0228 42.9971 29.9968 42.7132C29.9304 41.975 30.1765 41.3057 30.5528 40.682C31.2319 39.534 32.3264 38.6911 33.6097 38.3275C34.893 37.964 36.267 38.1077 37.4473 38.7289L38.8601 37.3552C36.7533 34.4619 39.7481 29.4476 43.1387 29.8799C43.3301 29.2367 43.5215 28.5882 43.7143 27.9424C41.9473 27.0309 41.3171 25.4867 41.3171 23.6664C41.3171 21.8461 41.8913 20.2445 43.7299 19.3799C43.5623 18.7488 43.397 18.129 43.2338 17.5205C41.1778 17.6312 39.8757 16.5479 38.9773 14.9502C38.0788 13.3526 37.8314 11.6833 38.9682 9.96715L37.6179 8.61949ZM33.0294 43.4828C34.5346 43.4046 35.5736 42.7315 36.3327 41.6143C36.501 41.3375 36.6031 41.0256 36.6309 40.7028C36.7038 40.1 36.4044 39.7119 35.8249 39.5544C34.2416 39.1221 32.0346 40.3877 31.6088 41.9724C31.4395 42.6 31.6804 43.1052 32.2937 43.3278C32.5342 43.3999 32.7802 43.4517 33.0294 43.4828ZM43.6518 14.458C43.5515 12.9463 42.8835 11.7601 41.5476 11.0192C40.5788 10.4815 39.7247 10.9958 39.7247 12.1052C39.7156 13.5661 40.3601 14.7302 41.5072 15.6026C41.9343 15.9268 42.4616 16.2106 42.9942 15.9346C43.5489 15.6455 43.6557 15.0583 43.6518 14.458ZM23.8314 45.8903C24.7429 45.8903 25.5788 45.6299 26.1075 45.1898C26.7807 44.6247 26.7924 43.8981 26.14 43.3161C25.015 42.3148 22.6973 42.3213 21.5827 43.3304C20.864 43.9815 20.8796 44.6638 21.64 45.2354C22.2846 45.7211 23.0346 45.8916 23.8314 45.8903ZM7.9304 12.4737C7.92259 11.4711 7.65045 10.9346 7.06451 10.8695C6.6514 10.84 6.2393 10.9392 5.88482 11.1533C4.63743 11.9125 4.08144 13.1234 3.95384 14.5244C3.84446 15.7315 4.69863 16.3005 5.76894 15.7315C7.14915 15.0023 7.78457 13.7757 7.9304 12.4737ZM4.00983 32.8031C4.00983 34.4268 5.17389 36.0974 6.51764 36.4619C7.25853 36.6625 7.76243 36.3552 7.91608 35.6078C8.22207 34.1195 6.91868 31.906 5.47337 31.4606C4.73379 31.2328 4.15436 31.6013 4.04108 32.3721C4.02415 32.5375 4.02415 32.7002 4.00983 32.8031ZM14.614 3.91246C13.2208 3.97106 12.1674 4.60387 11.3809 5.6846C11.2032 5.95498 11.0859 6.26055 11.0372 6.58043C10.9252 7.20413 11.2117 7.59996 11.8301 7.77444C13.4109 8.22106 15.6439 6.91507 16.0268 5.32001C16.2064 4.56871 15.8861 4.08434 15.1153 3.95804C14.9434 3.92939 14.7637 3.92548 14.614 3.91246ZM4.92388 23.6507C4.88352 22.777 4.67519 21.958 3.99811 21.3291C3.42519 20.7992 2.87311 20.8395 2.35488 21.4203C1.32493 22.5739 1.35097 24.9359 2.40566 26.07C3.00592 26.7145 3.6218 26.6898 4.15956 25.9828C4.67519 25.2992 4.88743 24.5088 4.92388 23.6507ZM42.8145 23.6833C42.8145 24.5283 42.9643 25.3369 43.5346 26.001C44.045 26.5948 44.6687 26.6065 45.2195 26.057C46.3041 24.9789 46.338 22.4385 45.2833 21.3343C44.6895 20.7119 44.0502 20.7302 43.5072 21.4033C42.9643 22.0765 42.8132 22.8513 42.8262 23.6833H42.8145ZM14.4408 43.4645C15.959 43.4776 16.4278 42.7406 15.8327 41.5752C15.127 40.1937 13.9473 39.5557 12.433 39.5544C11.1908 39.5544 10.7025 40.4125 11.3197 41.4932C12.0424 42.7705 13.2221 43.3317 14.4408 43.4645ZM33.2012 3.94501C32.5437 3.95283 31.9734 3.97757 31.6843 4.46585C31.3952 4.95413 31.6322 5.47756 31.9031 5.93329C32.6518 7.19241 33.7728 7.84215 35.2325 7.83564C36.4734 7.82913 36.9604 6.97756 36.3419 5.90074C35.6257 4.65855 34.4929 4.05569 33.2012 3.94501ZM39.7976 34.8395C39.8106 35.5349 39.8184 36.1065 40.3184 36.402C40.8588 36.7119 41.4044 36.4567 41.8614 36.1273C43.0229 35.2862 43.6934 34.1664 43.6218 32.6963C43.571 31.6351 42.7676 31.1755 41.838 31.6885C40.5463 32.3994 39.9161 33.5531 39.7976 34.8421V34.8395ZM24.4004 4.17809C24.9747 4.84085 25.7702 5.00621 26.5228 4.63902C27.2273 4.29527 27.5814 3.54137 27.4226 2.72236C27.3459 2.35421 27.1512 2.02114 26.868 1.77369C26.5848 1.52624 26.2287 1.37793 25.8536 1.35126C25.1374 1.28486 24.4278 1.70934 24.1999 2.34085C25.058 2.98147 25.0958 3.29397 24.4004 4.17809ZM23.1921 2.79397C22.308 2.5609 21.4395 2.55699 20.6075 2.98017C20.2247 3.17418 20.1921 3.39423 20.5124 3.57522C21.4148 4.08824 22.3653 4.06871 23.3288 3.83564C23.2807 3.46975 23.2403 3.16376 23.1921 2.79397Z" fill="#5C5C5C"/>
</svg>
