<svg width="17" height="18" viewBox="0 0 17 18" fill="none" xmlns="http://www.w3.org/2000/svg">
<path fill-rule="evenodd" clip-rule="evenodd" d="M2.7 0H4.05V1.8H12.6V0H13.95V1.8H15.2C15.7523 1.8 16.2 2.24772 16.2 2.8V6.2C16.2 6.23375 16.1983 6.26711 16.1951 6.3C16.1983 6.33289 16.2 6.36625 16.2 6.4V17C16.2 17.5523 15.7523 18 15.2 18H1C0.447716 18 0 17.5523 0 17V6.4C0 6.36625 0.00167193 6.33289 0.00493749 6.3C0.00167193 6.26711 0 6.23375 0 6.2V2.8C0 2.24772 0.447715 1.8 1 1.8H2.7V0ZM1.5 5.4V3.3H14.7V5.4H1.5ZM1.5 7.2V16.5H14.7V7.2H1.5Z" fill="black"/>
</svg>
