<svg width="48" height="50" viewBox="0 0 48 50" fill="none" xmlns="http://www.w3.org/2000/svg">
<path d="M23.4931 49.9983C21.3061 48.6663 19.1191 47.3422 16.9431 45.982C16.8332 45.8966 16.7427 45.7888 16.6778 45.6657C16.6129 45.5426 16.5749 45.4071 16.5665 45.2682C16.543 41.4197 16.5555 37.5697 16.543 33.7197C16.543 33.3667 16.714 33.2004 16.9823 33.0388C18.6223 32.0525 20.2597 31.0589 21.8944 30.0579C22.0513 29.9654 22.1925 29.8697 22.4231 29.7238C22.1611 29.5998 21.9634 29.5041 21.7658 29.41C16.0378 26.7853 11.1774 23.0529 7.3541 18.0262C3.69881 13.2518 1.22237 7.68185 0.126301 1.76958C0.0729592 1.48248 0.0415817 1.19066 0.00863537 0.900422C-0.0384308 0.490946 0.102764 0.19286 0.534204 0.115985C0.918578 0.0391106 1.20568 0.272873 1.27942 0.743535C1.62083 2.92463 2.17359 5.06734 2.92988 7.1414C5.71463 14.7944 10.404 20.9647 17.2364 25.4596C19.1349 26.7087 21.1455 27.7786 23.2421 28.6554C23.4562 28.7408 23.6938 28.7469 23.912 28.6726C29.2462 26.4119 33.8743 23.1737 37.6302 18.7448C41.813 13.8427 44.6273 7.92308 45.7884 1.58445C45.8292 1.36167 45.848 1.13418 45.8841 0.909835C45.9751 0.326214 46.1978 0.0673527 46.5979 0.0987301C46.998 0.130108 47.4137 0.661953 47.3525 1.14046C47.2725 1.76801 47.1815 2.39556 47.0387 3.01212C45.3271 10.6055 41.7689 17.1712 36.1115 22.5556C32.9879 25.527 29.4156 27.8317 25.4903 29.5998C25.3334 29.6736 25.1765 29.7567 24.9553 29.854C25.3679 30.1128 25.7397 30.345 26.1006 30.571C27.5126 31.437 28.9245 32.3077 30.3365 33.1596C30.4797 33.232 30.5983 33.3451 30.6776 33.4846C30.7569 33.6242 30.7932 33.784 30.7821 33.944C30.7821 37.6968 30.7821 41.448 30.7601 45.2007C30.7541 45.3471 30.7172 45.4907 30.6517 45.6218C30.5863 45.7529 30.4938 45.8687 30.3805 45.9616C28.297 47.281 26.1884 48.5628 24.0861 49.8508C23.9852 49.9044 23.8803 49.9501 23.7724 49.9873L23.4931 49.9983ZM26.4159 39.5747C26.4159 38.5047 26.4285 37.4332 26.4049 36.3632C26.3977 36.268 26.3705 36.1753 26.3251 36.0912C26.2797 36.0072 26.2171 35.9336 26.1414 35.8753C25.371 35.3968 24.5835 34.9434 23.788 34.5104C23.7067 34.4736 23.6185 34.4545 23.5292 34.4545C23.4399 34.4545 23.3517 34.4736 23.2703 34.5104C22.4733 34.9434 21.6889 35.3973 20.917 35.8722C20.8453 35.9251 20.7859 35.9928 20.7429 36.0708C20.6998 36.1488 20.6741 36.2352 20.6676 36.324C20.6498 38.465 20.6498 40.606 20.6676 42.747C20.6778 42.8429 20.7083 42.9356 20.7569 43.0189C20.8056 43.1022 20.8714 43.1742 20.95 43.2302C21.7077 43.7009 22.4827 44.1401 23.2656 44.5653C23.3449 44.6032 23.4312 44.6241 23.5191 44.6265C23.6069 44.6289 23.6943 44.6129 23.7755 44.5794C24.5741 44.148 25.3601 43.6962 26.1288 43.2176C26.2062 43.161 26.2707 43.0884 26.3177 43.0048C26.3648 42.9212 26.3935 42.8285 26.4018 42.7329C26.4285 41.6849 26.4159 40.629 26.4159 39.5747ZM17.7997 34.9591V44.1966C18.308 43.8656 18.7645 43.5895 19.1928 43.2741C19.2561 43.2209 19.3078 43.1554 19.3448 43.0814C19.3817 43.0075 19.4032 42.9268 19.4078 42.8443C19.4214 40.6729 19.4214 38.5011 19.4078 36.3287C19.4105 36.253 19.398 36.1774 19.371 36.1066C19.3441 36.0357 19.3032 35.9709 19.2509 35.9161C18.7959 35.5867 18.3158 35.2948 17.7997 34.9591ZM29.3466 34.945C28.7959 35.3043 28.3158 35.6008 27.8608 35.9318C27.8088 35.9865 27.7682 36.0511 27.7412 36.1216C27.7143 36.1922 27.7016 36.2674 27.704 36.3428C27.6945 38.5016 27.6945 40.6604 27.704 42.8192C27.704 42.9384 27.7165 43.1157 27.7934 43.1706C28.2829 43.5189 28.7928 43.8421 29.3623 44.2123L29.3466 34.945ZM18.2735 33.773C18.8508 34.1449 19.345 34.4822 19.8627 34.7802C19.9378 34.8115 20.0189 34.826 20.1001 34.8227C20.1814 34.8195 20.261 34.7985 20.3334 34.7614C21.11 34.3268 21.874 33.8687 22.6334 33.4059C22.7432 33.3385 22.8812 33.202 22.8844 33.0921C22.9079 32.3893 22.8969 31.6802 22.8969 30.8832L18.2735 33.773ZM22.8954 48.2663C22.8954 47.4818 22.9079 46.7853 22.8828 46.0965C22.8661 46.0227 22.8343 45.9531 22.7895 45.8921C22.7447 45.8311 22.6878 45.78 22.6224 45.742C21.863 45.2755 21.0964 44.8226 20.3224 44.3833C20.2659 44.3474 20.2024 44.3239 20.1361 44.3144C20.0699 44.3049 20.0023 44.3097 19.938 44.3284C19.3905 44.6516 18.8602 45.0046 18.2719 45.3811L22.8954 48.2663ZM28.7833 45.3827C28.228 45.0234 27.7338 44.683 27.2145 44.3817C27.1408 44.3473 27.0605 44.3294 26.9791 44.3294C26.8978 44.3294 26.8175 44.3473 26.7438 44.3817C25.9594 44.8163 25.2016 45.2744 24.4376 45.7341C24.334 45.7953 24.1865 45.9036 24.1834 45.993C24.163 46.7241 24.1724 47.4552 24.1724 48.26L28.7833 45.3827ZM24.2462 30.8941C24.2462 31.6927 24.2352 32.3861 24.2571 33.078C24.2711 33.1449 24.2989 33.2082 24.3386 33.2638C24.3783 33.3194 24.4291 33.3662 24.4878 33.4012C25.2607 33.874 26.042 34.3347 26.8317 34.7834C26.8901 34.8158 26.9549 34.8351 27.0215 34.8399C27.0882 34.8448 27.1551 34.8351 27.2176 34.8116C27.7557 34.4978 28.2782 34.1433 28.8524 33.773L24.2462 30.8941Z" fill="black"/>
</svg>
