<svg width="20" height="20" viewBox="0 0 20 20" fill="none" xmlns="http://www.w3.org/2000/svg">
<path d="M14.1671 4.99984H18.3338V6.6665H16.6671V17.4998C16.6671 17.7208 16.5793 17.9328 16.423 18.0891C16.2668 18.2454 16.0548 18.3332 15.8338 18.3332H4.16711C3.9461 18.3332 3.73414 18.2454 3.57786 18.0891C3.42158 17.9328 3.33378 17.7208 3.33378 17.4998V6.6665H1.66711V4.99984H5.83378V2.49984C5.83378 2.27882 5.92158 2.06686 6.07786 1.91058C6.23414 1.7543 6.4461 1.6665 6.66711 1.6665H13.3338C13.5548 1.6665 13.7668 1.7543 13.923 1.91058C14.0793 2.06686 14.1671 2.27882 14.1671 2.49984V4.99984ZM15.0004 6.6665H5.00045V16.6665H15.0004V6.6665ZM7.50045 3.33317V4.99984H12.5004V3.33317H7.50045Z" fill="#B6B6B6"/>
</svg>
