<svg width="25" height="11" viewBox="0 0 25 11" fill="none" xmlns="http://www.w3.org/2000/svg">
<path d="M5.60417 4.1767L7.625 0.635037C7.73611 0.440592 7.71528 0.270315 7.5625 0.124203C7.40972 -0.0219081 7.23611 -0.0391286 7.04167 0.072538L0.395834 4.3017C0.131945 4.46837 4.64656e-07 4.70448 4.37944e-07 5.01004C4.11231e-07 5.31559 0.131945 5.5517 0.395834 5.71837L7.04167 9.94754C7.23611 10.0586 7.40972 10.0411 7.5625 9.89504C7.71528 9.74893 7.73611 9.57893 7.625 9.38504L5.60417 5.84337L15.125 5.84337C15.3611 5.84337 15.5592 5.76337 15.7192 5.60337C15.8792 5.44337 15.9589 5.24559 15.9583 5.01004C15.9583 4.77393 15.8783 4.57587 15.7183 4.41587C15.5583 4.25587 15.3606 4.17615 15.125 4.17671L5.60417 4.1767Z" fill="black"/>
<rect width="21" height="1.8" rx="0.9" transform="matrix(-1 0 0 1 24.625 4.01953)" fill="black"/>
</svg>
