<svg width="20" height="20" viewBox="0 0 20 20" fill="none" xmlns="http://www.w3.org/2000/svg">
<path d="M19.3483 4.77314C19.0833 3.72917 18.749 2.70401 18.3477 1.70448V1.69349C18.3441 1.68804 18.3401 1.68289 18.3356 1.67809C18.3303 1.673 18.3244 1.66857 18.3181 1.6649C18.0982 1.53406 16.416 0.954634 15.2395 0.657773C11.813 -0.219258 8.22088 -0.219258 4.79442 0.657773C3.74481 0.919194 2.71407 1.25126 1.70926 1.65171C1.69776 1.65724 1.68703 1.66426 1.67737 1.6726C1.67334 1.67746 1.66967 1.6826 1.66638 1.68799C1.54214 1.8815 0.956107 3.5868 0.658147 4.76654C-0.219404 8.19294 -0.219404 11.7852 0.658147 15.2116C0.922873 16.2558 1.25752 17.281 1.65979 18.2803C1.65917 18.2839 1.65917 18.2876 1.65979 18.2913L1.67078 18.3045V18.31C1.75104 18.3891 3.44864 18.9994 4.77132 19.3325C8.19772 20.2101 11.79 20.2101 15.2164 19.3325C16.2623 19.0702 17.2884 18.7347 18.2873 18.3287C18.2969 18.3246 18.3058 18.3191 18.3137 18.3122C18.4049 18.2209 19.025 16.4497 19.3362 15.2116C20.2171 11.7884 20.2213 8.19839 19.3483 4.77314ZM19.1625 15.0544L17.7441 14.6828L19.7815 10.4828C19.7422 12.0246 19.5346 13.5576 19.1625 15.0544ZM0.222756 10.4828L2.2612 14.6828L0.842866 15.0544C0.471288 13.559 0.263362 12.0275 0.222756 10.4872V10.4828ZM0.842866 4.93037L2.2612 5.30309L0.222756 9.50202C0.263749 7.96311 0.471672 6.4332 0.842866 4.93916V4.93037ZM19.7815 9.50202L17.7441 5.30309L19.1625 4.93037C19.5348 6.42863 19.7423 7.96308 19.7815 9.50642V9.50202ZM2.55499 5.1126L1.89398 1.8848L5.17043 2.52441L2.55499 5.1126ZM14.9009 2.52441L18.1103 1.8837L17.4943 5.12537L16.2733 3.90427L14.9009 2.52441ZM17.4462 5.34927C16.7216 8.51358 16.9349 7.58012 16.4643 9.63725L14.7238 5.53728C14.9877 5.52409 15.2263 5.5043 17.4462 5.35477V5.34927ZM9.64752 16.4541L5.35954 17.4359L5.54316 14.7125L9.64752 16.4541ZM5.52776 14.4673L3.62895 9.99679L5.52776 5.52299L10.0027 3.62308L14.4765 5.52299L16.3764 9.99679L14.4765 14.4717L10.0027 16.3738L5.52776 14.4673ZM14.4633 5.2767L10.36 3.53512L14.648 2.55328L14.4633 5.2767ZM5.54536 5.2767L5.35954 2.55328L9.64752 3.53512L5.54536 5.2767ZM14.4633 14.7169L14.6469 17.4403L10.3589 16.4585L14.4633 14.7169ZM5.28368 5.54168L3.5432 9.64165L2.56136 5.35367C4.52064 5.4889 5.09017 5.52849 5.28148 5.54168H5.28368ZM2.30847 5.7088L3.40357 9.99129L2.30847 14.2848V5.7088ZM2.56576 14.6344L3.54759 10.3464L5.28698 14.4464C5.08138 14.4651 4.71634 14.4937 2.55916 14.6399L2.56576 14.6344ZM14.7304 14.4464L16.4709 10.3464C16.936 12.3805 16.7403 11.5218 17.4528 14.6344C15.4363 14.5047 14.8921 14.4629 14.7238 14.4519L14.7304 14.4464ZM17.6957 14.2848L16.6084 9.99679L17.6957 5.7088V14.2848ZM17.3406 5.13597L14.6832 5.32068L14.9009 2.52441C15.7619 3.39006 16.6031 4.23411 17.4943 5.12537L17.3406 5.13597ZM10.006 3.38559C10.006 3.38559 7.39253 2.7242 5.71797 2.3004H10.6074L14.2906 2.30151L10.006 3.38559ZM5.17043 2.52441L5.32876 5.31519L2.55499 5.1126L5.17043 2.52441ZM2.30847 5.7088V14.2848L0.22936 9.99679L2.30847 5.7088ZM2.58377 14.898L5.32546 14.6685L5.11258 17.4818L2.58377 14.898ZM10.0027 16.5981L14.2863 17.6888H5.71028L10.0027 16.5981ZM14.858 17.327L14.6832 14.6729L17.429 14.9093C16.5501 15.7776 15.7488 16.5699 14.8692 17.4403L14.858 17.327ZM17.6957 14.2848V5.7088L19.776 9.99679L17.6957 14.2848ZM5.71797 2.3004C7.39253 1.48845 10.006 0.221278 10.006 0.221278L14.2939 2.3004C10.9448 2.3004 8.13353 2.3004 5.71797 2.3004ZM5.11258 17.4818L1.89398 18.1022L2.58377 14.898C4.07101 16.4176 3.51513 15.8496 5.11258 17.4818ZM14.2863 17.6888L9.99827 19.7679L5.71028 17.6888H14.2863ZM14.8692 17.4403L16.1734 16.1496L17.429 14.9093L18.1124 18.1011L14.8692 17.4403ZM17.7265 5.08539L18.2851 2.14757C18.6084 2.98952 18.8833 3.84925 19.1086 4.72256L17.7265 5.08539ZM14.9152 2.27401L15.278 0.891964C16.1513 1.11737 17.011 1.39231 17.853 1.71548L14.9152 2.27401ZM15.0647 0.838088L14.692 2.25642L10.493 0.21798C12.0349 0.257978 13.5677 0.465535 15.0647 0.83699V0.838088ZM9.51559 0.216881L5.31557 2.25532L4.94284 0.83699C6.4401 0.465094 7.97337 0.257168 9.51559 0.216881ZM4.73064 0.890864L5.09347 2.27291L2.14905 1.71438C2.99202 1.39078 3.85286 1.11582 4.72734 0.890864H4.73064ZM1.71915 2.14647L2.2777 5.08429L0.895639 4.71926C1.12181 3.84694 1.39674 2.98799 1.71915 2.14647ZM2.2777 14.9093C2.19853 15.326 1.85329 17.1434 1.71915 17.8471C1.39674 17.0056 1.12181 16.1466 0.895639 15.2743L2.2777 14.9093ZM5.09017 17.7218L4.72734 19.1027C3.85398 18.8776 2.99425 18.6027 2.15235 18.2792L5.09017 17.7218ZM4.93954 19.1566L5.31227 17.7382L9.51559 19.7822C7.97206 19.7403 6.43767 19.5306 4.93954 19.1566ZM10.493 19.7767L14.692 17.7382L15.0647 19.1566C13.568 19.5303 12.0351 19.74 10.493 19.7822V19.7767ZM15.278 19.1027L14.9152 17.7218L17.853 18.2803C17.0108 18.6026 16.1511 18.8772 15.278 19.1027ZM18.2851 17.8471L17.7265 14.9093L19.1086 15.2721C18.883 16.1453 18.6081 17.005 18.2851 17.8471Z" fill="#1D1D1B"/>
</svg>
