<svg width="24" height="21" viewBox="0 0 24 21" fill="none" xmlns="http://www.w3.org/2000/svg">
<path d="M11.9695 3.44013C12.579 2.63007 13.2683 1.94141 14.0995 1.41236C17.9951 -1.07477 22.9883 1.22427 23.7968 5.85607C24.167 7.97676 23.6358 9.8689 22.5529 11.6471C21.41 13.5205 19.9144 15.0777 18.2922 16.5135C16.8251 17.8057 15.2693 18.9885 13.637 20.0527C12.5527 20.7639 11.4244 20.8021 10.337 20.0879C7.9407 18.5143 5.68338 16.7615 3.69972 14.6596C2.43753 13.3227 1.32314 11.8742 0.596553 10.1484C-0.546374 7.43423 -0.015888 4.28391 1.92094 2.29286C4.16582 -0.0144244 7.73363 -0.246728 10.2939 1.75557C10.6046 2.00047 10.9002 2.26475 11.1792 2.54689C11.4507 2.81741 11.6914 3.12465 11.9695 3.44013ZM1.35899 7.23864C1.35794 7.96043 1.49207 8.67577 1.75411 9.34585C2.3168 10.8363 3.23875 12.0848 4.28216 13.2425C6.25777 15.4382 8.5568 17.2239 10.9853 18.8492C11.6373 19.2861 12.2819 19.2809 12.9309 18.8492C14.5282 17.7981 16.0517 16.6338 17.4902 15.3647C18.9339 14.0781 20.2758 12.694 21.3141 11.0319C22.2083 9.60138 22.7263 8.08167 22.4848 6.33791C21.9361 2.37079 17.6724 0.481653 14.4968 2.81591C13.7512 3.36444 13.1666 4.0621 12.6792 4.85193C12.6448 4.90663 12.6134 4.96358 12.579 5.01903C12.2461 5.55483 11.6687 5.57131 11.3439 5.03777C10.8909 4.29515 10.3736 3.61398 9.7129 3.05121C7.95168 1.55249 5.57143 1.36065 3.68363 2.63007C2.07753 3.71664 1.4168 5.32627 1.35899 7.23864Z" fill="black"/>
</svg>
