<svg width="21" height="19" viewBox="0 0 21 19" fill="none" xmlns="http://www.w3.org/2000/svg">
<path d="M16.4465 8.67727C10.3253 -0.345538 10.5878 0.0379328 10.5663 0.0215277L10.5427 0.00615166H10.5355L10.5058 0L10.472 0.00717173C10.4227 0.0266528 4.57023 8.6701 4.56305 8.68137C4.55587 8.69265 -0.000645359 18.0856 0.00037996 18.1297C-0.000126653 18.1334 -0.000126653 18.1372 0.00037996 18.141C0.00351736 18.1524 0.00728728 18.1637 0.0116632 18.1748C0.0116632 18.1748 0.0178096 18.183 0.018835 18.183C0.0311388 18.2004 0.0280653 18.1953 0.0342172 18.2004C0.0865085 18.2527 10.7078 18.9817 10.5079 18.9817C10.5181 18.9817 20.9353 18.2322 20.9723 18.2066C20.9723 18.2066 20.9723 18.2066 20.9876 18.1892V18.183C20.9931 18.1716 20.9973 18.1595 20.9999 18.1471C21.0194 18.0928 16.4537 8.68752 16.4465 8.67727ZM10.4996 18.7736L4.69942 16.7117L10.4996 16.2205L16.2989 16.7117L10.4996 18.7736ZM4.73428 8.78903L9.41896 4.79747C8.78327 6.15396 7.3796 9.1438 6.94692 10.0676L3.61975 14.8435C3.89967 13.3435 4.46257 10.285 4.73838 8.78903H4.73428ZM16.0128 15.1583L14.363 10.8725L17.3662 15.185L16.0128 15.1583ZM15.8005 15.1778L10.5007 16.0145L5.19875 15.1778L7.13455 10.1701L10.5079 5.99914L13.8801 10.1701L15.8005 15.1778ZM9.64863 16.0873L4.41233 16.5302L5.11057 15.3716L9.64863 16.0873ZM16.59 16.5302L11.3568 16.0883L15.8928 15.3706C16.2599 15.9724 16.2332 15.9365 16.5921 16.5302H16.59ZM10.6268 5.82484L11.2799 4.63854L13.5131 9.39602L10.6268 5.82484ZM9.72451 4.63752L10.3807 5.82484C10.1203 6.14679 7.82561 8.98384 7.49239 9.39705L9.72451 4.63752ZM6.64035 10.8725C6.36556 11.5902 5.40997 14.051 4.98959 15.1583L3.63616 15.185L6.64035 10.8725ZM11.1805 4.39964C10.8319 5.03124 10.9754 4.76568 10.5037 5.63002L9.82499 4.39964L10.5037 0.678761L11.1805 4.39964ZM3.47621 15.3931L4.87885 15.3706C4.74453 15.5941 4.83681 15.4413 4.15497 16.5702L0.594044 17.8447L3.47621 15.3931ZM16.8525 16.5651L16.1286 15.3706L17.5303 15.3972L20.4145 17.8436L16.8525 16.5651ZM17.3816 14.8435L14.0544 10.0676C13.6443 9.19096 12.1627 6.03503 11.5814 4.79747L16.2671 8.78903C16.5429 10.286 17.1058 13.3435 17.3816 14.8435ZM4.22264 16.7588L9.75937 18.7254L0.591991 18.0589L4.22264 16.7588ZM16.7838 16.7588L20.4186 18.0589L11.2522 18.7254L16.7838 16.7588ZM17.6625 15.2362C16.9766 11.5092 17.3549 13.5721 16.5993 9.46164L20.6062 17.7339L17.6625 15.2362ZM15.8508 8.16154L11.3814 4.35453L10.6914 0.560847L15.8508 8.16154ZM9.623 4.35453L5.15466 8.16154L10.313 0.560847L9.623 4.35453ZM3.34087 15.2362L0.398204 17.7339L4.40413 9.46164L3.34087 15.2362Z" fill="#1D1D1B"/>
</svg>
