<svg width="14" height="23" viewBox="0 0 14 23" fill="none" xmlns="http://www.w3.org/2000/svg">
<path d="M12.3928 20.0016C13.147 18.8846 13.5491 17.5672 13.5471 16.2195C13.5506 15.0323 13.4734 13.8462 13.3161 12.6695C13.3203 12.6523 13.3177 12.6341 13.3088 12.6187C13.0133 10.4376 12.3637 8.31944 11.3857 6.34769C11.3832 6.34096 11.3797 6.33466 11.3753 6.32904C10.4427 4.4639 9.07702 2.41639 6.84404 0.0279771L6.82538 0.0124342C6.81412 0.00705225 6.8023 0.00288417 6.79015 0H6.75596C6.74447 0.00239366 6.73333 0.00622316 6.7228 0.0113981L6.70311 0.0269411C4.92709 1.92731 3.33757 3.98933 2.16771 6.33526C2.16771 6.33526 2.16772 6.34251 2.16253 6.34562C0.61654 9.45419 8.42146e-06 12.6767 8.42146e-06 16.2184C-0.00212086 17.5664 0.399569 18.884 1.15329 20.0016C1.15748 20.0163 1.16663 20.0291 1.17919 20.0378C1.82284 20.9836 2.69407 21.7522 3.71267 22.2729C5.18069 23.0137 6.86793 23.1958 8.46022 22.7852C10.0525 22.3746 11.4413 21.3993 12.368 20.0409C12.381 20.0314 12.3898 20.0174 12.3928 20.0016ZM9.34229 3.37383C9.98449 4.26563 10.5608 5.20311 11.0665 6.17879C10.6199 5.99228 10.3557 5.88452 8.56411 5.13742C8.85838 4.47115 9.05422 4.02559 9.34229 3.37383ZM11.1763 6.45235L10.6779 10.4469L8.59727 9.23244C8.56307 7.19737 8.56618 7.3673 8.53302 5.34881L11.1763 6.45235ZM12.1711 19.8637L9.21276 19.9228L9.80029 17.7468L11.5255 16.2008C11.7494 17.4722 11.968 18.7125 12.1711 19.8637ZM5.20789 5.46072L6.63265 7.07613L5.15401 8.98376L5.20789 5.46072ZM11.5887 15.7739C10.9142 14.573 10.9359 14.6113 10.2572 13.4L10.8261 10.8033L13.0809 12.6881L11.5887 15.7739ZM10.2168 13.7523L11.4603 15.976L9.83862 17.4339L10.2168 13.7523ZM10.0417 13.4311C9.92462 14.5709 9.71117 16.6433 9.61066 17.6256L6.76736 19.2327L3.92509 17.6256L3.49611 13.4321L5.13432 9.34435L6.76943 7.24192L8.40557 9.34435L10.0417 13.4311ZM3.31892 13.7523L3.69713 17.4328L2.07031 15.976L3.31892 13.7523ZM3.99141 17.8971L6.50106 19.3218L4.5323 19.9L3.99141 17.8971ZM10.6458 10.6676L10.1205 13.0674L8.70503 9.53501L10.6458 10.6676ZM8.32993 5.46279L8.38796 8.98583C8.02011 8.51436 7.27198 7.55175 6.90414 7.07924L8.32993 5.46279ZM9.54538 17.9033L9.00656 19.901L7.0378 19.3228L9.54538 17.9033ZM6.76943 6.91967L5.22551 5.16851L6.76736 0.433127L8.31024 5.16851L6.76943 6.91967ZM4.83279 9.53397L3.41736 13.0663L2.89097 10.6676L4.83279 9.53397ZM2.70964 10.8033C2.8775 11.5701 3.07335 12.4612 3.27851 13.401L1.94701 15.7749L0.454897 12.683L2.70964 10.8033ZM2.00918 16.2008L3.73547 17.7468L4.32299 19.9228L1.36467 19.8637C2.19569 15.146 1.83096 17.2142 2.00918 16.2008ZM11.7214 16.119L13.3399 16.3117C13.3252 17.5043 12.984 18.67 12.3534 19.6824C12.2892 19.3187 12.1928 18.7934 11.7214 16.119ZM11.7525 15.9117L13.1513 13.0156C13.2748 14.0399 13.3377 15.0706 13.3399 16.1024L11.7525 15.9117ZM10.9505 10.6354L12.5223 9.86555C12.756 10.698 12.9377 11.5441 13.0663 12.399C12.5213 11.9483 12.0737 11.5763 10.9505 10.6375V10.6354ZM2.3563 6.45235L4.99962 5.34881C4.9675 7.36316 4.96957 7.19737 4.93641 9.23244L2.85574 10.4469C2.75005 9.58371 2.43091 7.03365 2.3563 6.45235ZM1.00926 9.87177L2.58115 10.6417L0.464219 12.4032C0.593064 11.5475 0.775096 10.7007 1.00926 9.86763V9.87177ZM0.387542 13.0176C0.794764 13.858 1.38125 15.0734 1.7864 15.9138L0.198955 16.1024C0.201214 15.0713 0.264186 14.0413 0.387542 13.0176ZM1.81644 16.119C1.35638 18.7333 1.23618 19.3943 1.18541 19.6824C0.55521 18.6699 0.214404 17.5042 0.199992 16.3117L1.81644 16.119ZM4.63592 20.0855L6.76632 19.4638L8.89776 20.0855L6.76632 22.7298L4.63592 20.0855ZM9.03661 20.2492L9.64796 22.1247C8.81813 22.5332 7.91047 22.7593 6.98599 22.7879C10.0593 18.9757 8.23563 21.2502 9.03765 20.2492H9.03661ZM10.8862 10.4375C11.1857 8.04497 11.0862 8.84076 11.3473 6.74766C11.797 7.68879 12.1702 8.66457 12.4633 9.66557L10.8862 10.4375ZM8.4408 4.90325L7.01293 0.512914C7.79047 1.35961 8.52104 2.24827 9.20136 3.17488L8.4408 4.90325ZM6.52282 0.512914L5.09391 4.90325L4.33335 3.17903C5.0136 2.25075 5.74453 1.36069 6.52282 0.512914ZM4.19346 3.37383L4.9706 5.13535L2.46717 6.17983C2.97332 5.2036 3.55029 4.26576 4.19346 3.37383ZM2.18533 6.75077C2.25475 7.31446 2.27341 7.4388 2.64747 10.4375L1.07142 9.66557C1.36356 8.66554 1.73607 7.69076 2.18533 6.75077ZM1.44342 20.072L4.31781 20.13L3.69609 22.0304C2.80586 21.5577 2.03538 20.8878 1.44342 20.072ZM3.88572 22.1247L4.49706 20.2492C4.72503 20.5331 4.96128 20.8181 6.54769 22.7879C5.62321 22.7593 4.71555 22.5332 3.88572 22.1247ZM9.83655 22.0304L9.21484 20.13L12.0882 20.072C11.4966 20.8878 10.7265 21.5576 9.83655 22.0304Z" fill="#1D1D1B"/>
</svg>
