<svg width="17" height="23" viewBox="0 0 17 23" fill="none" xmlns="http://www.w3.org/2000/svg">
<path fill-rule="evenodd" clip-rule="evenodd" d="M8.1083 22.788H13.1651L11.9102 21.1982H4.19512L2.94018 22.788H8.1083ZM13.4428 22.788H13.3686L13.4089 22.7562L12.1614 21.1748L13.2488 20.1552L14.1116 19.3073L15.9135 20.2612L14.7476 21.4801L13.4428 22.788ZM16.0046 20.063V2.92429L14.2028 3.87184V19.1154L16.0046 20.063ZM13.9908 3.98419V19.0031L12.1889 18.0555V4.93175L13.9908 3.98419ZM13.8965 3.79341L12.1253 4.72613L11.606 4.13364L10.8927 3.42032L12.0003 2.01382L12.9966 2.96032L13.8965 3.79341ZM14.0957 3.68742L13.1418 2.80664L12.1317 1.84636L13.4036 0.238479L14.5854 1.41922L15.8986 2.73986L14.0957 3.68742ZM11.9324 4.8247L11.447 4.27885L10.7761 3.60369H10.7475L9.57627 5.08756H9.59217L9.96313 5.56452L10.1253 5.7765L11.9324 4.8247ZM11.977 5.03668L10.1751 5.9906V16.9956L11.977 17.9495V5.04304V5.03668ZM9.93558 5.87189L9.79567 5.68747L9.4883 5.29954H9.4088L8.26728 6.74631V6.75585L9.93558 5.87189ZM8.26728 6.96465V16.0226L8.28 15.9982L9.96313 16.8843V6.10295L8.28 6.98903L8.26728 6.96465ZM12.1624 0.211982H13.1545L11.8996 1.80184H4.20465L2.94972 0.211982H12.1624ZM11.1555 2.01382H11.7321L10.6447 3.39171H5.45959L4.37212 2.01382H11.1555ZM9.30599 5.08756L10.4719 3.60369H5.62705L6.79295 5.08756H9.30599ZM9.11521 5.29954H9.13853L8.0553 6.67742H8.06166H8.04364L6.96571 5.29954H9.11521ZM1.58032 1.3694L2.72608 0.270277L3.97571 1.85378L3.07373 2.75576L2.11982 3.75207L0.240599 2.75576L1.58032 1.3694ZM0.211982 2.98364V20.0036L2.01382 19.0561V3.9312L0.211982 2.98364ZM2.22581 4.04355V18.9448L3.92166 18.0524V4.93493L2.22581 4.04355ZM4.13364 5.04728V17.9411L5.93548 16.9924V5.99484L4.13364 5.04728ZM5.9853 5.7818L4.1665 4.82788L4.81304 4.18028L5.37055 3.62383L6.57143 5.14161L6.30645 5.40553L5.9853 5.7818ZM6.14747 6.10613V16.8812L7.8253 15.9982L7.84332 16.0332V6.95406L7.8253 6.98903L6.14747 6.10613ZM7.84332 6.75903L6.17714 5.88249L6.46544 5.54968L6.70604 5.30908L7.84332 6.75373V6.75903ZM3.97041 4.72083L2.31484 3.84959L3.2253 2.89567L4.1082 2.01806L5.23806 3.45L4.66359 4.02765L3.97041 4.72083ZM13.9145 19.2034L12.1889 18.2929L11.5859 18.8664L10.8694 19.5352L12.013 20.9862H12.0522L13.1015 20.0026L13.9145 19.2034ZM11.977 18.1838V18.2007L11.447 18.7137L10.7443 19.3688L9.57097 17.8849L9.85714 17.5415L10.1444 17.2235L11.977 18.1838ZM11.1555 20.9862H11.7427L10.6531 19.6083L10.1232 19.5998H5.98954L5.45217 19.6083L4.36258 20.9862H11.1555ZM10.1253 19.3857L10.4835 19.391L9.31765 17.9071H6.78871L5.61751 19.3963L5.98212 19.39H10.1221L10.1253 19.3857ZM9.44166 17.7005H9.4194L8.26728 16.241V16.2314L9.95148 17.1175L9.69922 17.4005L9.44166 17.7005ZM8.04364 16.3226H8.06166L9.14913 17.7005H6.95512L8.04364 16.3226ZM2.0753 19.2628L0.23424 20.2315L1.42134 21.4197L2.7229 22.7202L4.03613 21.0572L3.02074 20.1552L2.0753 19.2628ZM0.22788 20.2252L0.211982 20.1944V20.2093L0.22788 20.2252ZM2.2735 19.1589L3.9524 18.276L4.50355 18.8155L5.25184 19.5171L4.16756 20.895L3.16382 20.0036L2.2735 19.1589ZM4.14954 18.1721L4.64982 18.6629L5.38327 19.3507L6.57143 17.8488L6.20364 17.4355L6.00544 17.197L4.14954 18.1721ZM6.1941 17.0963L6.35945 17.2977L6.69968 17.6803L7.84332 16.2335L6.1941 17.0963ZM2.70277 23L1.27189 21.5691L0 20.2972V2.70276L1.43088 1.21889L2.70277 0H13.4608L14.7327 1.27189L16.2166 2.75576V20.2442L14.9002 21.6221L13.5318 23H2.70277Z" fill="black"/>
</svg>
