<svg width="13" height="8" viewBox="0 0 13 8" fill="none" xmlns="http://www.w3.org/2000/svg">
<path d="M11.9839 1.4286L6.56451 6.86407C6.49999 6.92859 6.4301 6.9744 6.35483 7.00149C6.27956 7.02859 6.19892 7.04192 6.11289 7.04149C6.02687 7.04149 5.94623 7.02816 5.87096 7.00149C5.79569 6.97483 5.7258 6.92902 5.66128 6.86407L0.225806 1.4286C0.0752684 1.27806 -2.60153e-07 1.08989 -2.70024e-07 0.864083C-2.79894e-07 0.638277 0.0806448 0.444729 0.241935 0.283439C0.403225 0.122149 0.591397 0.0415037 0.80645 0.0415037C1.0215 0.0415036 1.20968 0.122149 1.37097 0.283439L6.11289 5.02537L10.8548 0.283438C11.0054 0.132901 11.191 0.057632 11.4116 0.057632C11.6322 0.0576319 11.823 0.138277 11.9839 0.299567C12.1451 0.460857 12.2258 0.649029 12.2258 0.864082C12.2258 1.07914 12.1451 1.26731 11.9839 1.4286Z" fill="#B6B6B6"/>
</svg>
