<svg width="20" height="19" viewBox="0 0 20 19" fill="none" xmlns="http://www.w3.org/2000/svg">
<path d="M19.979 6.02235C20.1873 3.51124 18.824 1.45008 16.8649 0.523127C15.6853 -0.0330564 14.346 -0.14981 13.088 0.193895C11.8301 0.537601 10.7362 1.31918 10.0033 2.39786C9.27046 1.31893 8.17637 0.537186 6.91818 0.193469C5.65998 -0.150248 4.3204 -0.0333413 3.14076 0.523127C2.2282 0.954049 1.45278 1.62925 0.900457 2.47389C0.213594 3.51999 -0.0950932 4.76944 0.0255809 6.01505C0.0235324 6.02502 0.0235324 6.0353 0.0255809 6.04526C0.301583 9.81556 3.24596 13.8025 6.34968 16.1761C7.55889 17.102 8.77538 17.7873 9.96688 18.2133C9.98841 18.2211 10.012 18.2211 10.0335 18.2133C14.6475 16.5563 19.6155 10.9446 19.9727 6.04422C19.9768 6.03763 19.9789 6.03007 19.979 6.02235ZM6.37885 11.1924L9.83877 13.0453L8.41293 14.6701L6.37885 11.1924ZM10.0033 12.8974L6.18929 10.855C5.77268 9.57289 5.50397 8.76466 4.94988 7.07532L6.33198 4.42257L10.0033 3.9164L13.6736 4.42257L15.0557 7.07949L13.8174 10.8581L10.0033 12.8974ZM15.2193 7.24613L16.9971 8.75842L14.0955 10.6717L15.2193 7.24613ZM13.8955 4.39445L16.4535 3.80391L15.1588 6.82432L13.8955 4.39445ZM6.11014 4.39445L4.84677 6.82327L3.55216 3.80287L6.11014 4.39445ZM5.9112 10.6748L3.00849 8.75842L4.78636 7.24613L5.9112 10.6748ZM11.5927 14.6701L10.1679 13.0453L13.6268 11.1924L11.5927 14.6701ZM16.7065 0.777258L16.5316 3.5727L13.8372 4.19761C13.7653 3.06548 13.7695 3.13005 13.6997 2.02187L16.7065 0.777258ZM13.6299 4.20282L10.3418 3.75288L13.4966 2.11769L13.6299 4.20282ZM6.50904 2.11978L9.66276 3.75496L6.37676 4.20489C6.42467 3.43729 6.49029 2.41348 6.50904 2.11769V2.11978ZM3.33136 3.81745L4.71138 7.03678L2.83664 8.62614L0.283878 6.03901L3.33136 3.81745ZM3.93232 13.6077L2.98766 8.99067L6.02473 10.9966L8.18067 14.6815L3.93232 13.6077ZM11.8249 14.6815L13.9809 10.9966L17.018 8.99067L16.0733 13.6077L11.8249 14.6815ZM17.1638 8.62302L15.2942 7.03678L16.6753 3.81745L19.7176 6.03901C16.2191 9.58539 17.4252 8.3616 17.1638 8.62614V8.62302ZM6.49341 1.79587L6.22887 0.262747C6.9194 0.360113 7.58322 0.595677 8.18067 0.95536L6.49341 1.79587ZM6.30594 2.01875C6.29032 2.26663 6.19137 3.83516 6.16846 4.19448L3.47405 3.56957L3.29907 0.777258L6.30594 2.01875ZM10.0033 17.878C8.35565 14.5316 8.69414 15.2252 8.51917 14.8648L10.0033 13.1713L11.4875 14.8628C11.3761 15.094 11.3698 15.1002 10.0033 17.878ZM18.7136 9.73432L17.3304 8.75738C20.7122 5.33078 19.0843 6.98679 19.7447 6.31397C19.6259 7.39819 19.2801 8.54699 18.7136 9.73432ZM19.7842 5.83383L16.8336 3.67893L18.9802 2.66657C19.5737 3.61073 19.855 4.71774 19.7842 5.83071V5.83383ZM18.8646 2.4916L16.7451 3.48521L16.9149 0.777258C17.6975 1.17589 18.3678 1.7642 18.8646 2.48847V2.4916ZM16.5566 0.616866L13.7257 1.78545C13.8622 0.994934 13.858 1.01889 13.9934 0.239837C14.8656 0.148311 15.7468 0.276859 16.5566 0.613738V0.616866ZM13.5122 1.79899C12.4082 1.25011 11.9781 1.03451 11.826 0.958481C12.4246 0.601188 13.0879 0.365806 13.7778 0.265875C13.6549 0.967858 13.7153 0.623116 13.5122 1.79587V1.79899ZM11.6177 1.08971L13.3612 1.95626L10.1075 3.64039V2.6145C10.5026 2.00933 11.0163 1.4906 11.6177 1.08971ZM9.89918 2.6145V3.64039L6.64652 1.95313L8.38898 1.08971C8.99088 1.48993 9.50477 2.00878 9.89918 2.6145ZM6.01223 0.236709L6.2799 1.78336L3.44905 0.614781C4.25822 0.275793 5.13965 0.14578 6.01223 0.236709ZM3.09077 0.777258C3.19492 2.41348 3.15743 1.84586 3.26054 3.48521L1.14105 2.48639C1.63819 1.76293 2.30845 1.17538 3.09077 0.777258ZM1.02544 2.66345L3.17201 3.67581C1.72846 4.72982 0.359908 5.72551 0.222428 5.82862C0.147218 4.71506 0.42847 3.60647 1.02544 2.66345ZM2.67521 8.75425L1.29311 9.73432C0.725482 8.54803 0.378656 7.39819 0.260964 6.31085L2.67521 8.75425ZM1.38476 9.9218L2.76582 8.9459L3.66257 13.3286C2.76941 12.2885 2.00464 11.1446 1.38476 9.9218ZM4.15208 13.8796L8.13485 14.8867L6.42155 15.9626C5.60779 15.3341 4.8486 14.638 4.15208 13.8816V13.8796ZM6.59757 16.098L8.35252 14.9961C8.80454 15.9334 7.41516 13.0984 9.79399 17.9217C8.6512 17.4615 7.57596 16.8487 6.59757 16.1001V16.098ZM10.2116 17.9238C12.0947 14.0972 11.475 15.3648 11.6531 14.9982L13.407 16.1001C12.4291 16.8495 11.3542 17.4629 10.2116 17.9238ZM13.5841 15.9647L11.8708 14.8888L15.8525 13.8816C15.1568 14.6386 14.3983 15.3355 13.5851 15.9647H13.5841ZM17.2398 8.9459L18.6198 9.9218C18.0007 11.1448 17.2362 12.2887 16.3431 13.3286L17.2398 8.9459Z" fill="#1D1D1B"/>
</svg>
