<svg width="13" height="18" viewBox="0 0 13 18" fill="none" xmlns="http://www.w3.org/2000/svg">
<path fill-rule="evenodd" clip-rule="evenodd" d="M6.34562 17.8341H10.3031L9.32101 16.5899H3.28313L2.30101 17.8341H6.34562ZM10.5205 17.8341H10.4624L10.4939 17.8092L9.5176 16.5716L10.3687 15.7736L11.0439 15.11L12.454 15.8566L11.5416 16.8105L10.5205 17.8341ZM12.5253 15.7015V2.28857L11.1152 3.03014V14.9599L12.5253 15.7015ZM10.9493 3.11806V14.872L9.53917 14.1304V3.85963L10.9493 3.11806ZM10.8755 2.96876L9.4894 3.69871L9.08295 3.23502L8.5247 2.67677L9.39152 1.57604L10.1712 2.31677L10.8755 2.96876ZM11.0314 2.88581L10.2849 2.1965L9.49438 1.44498L10.4898 0.186636L11.4147 1.11069L12.4424 2.14424L11.0314 2.88581ZM9.33843 3.77585L8.95853 3.34866L8.43346 2.82028H8.41106L7.49447 3.98157H7.50691L7.79724 4.35484L7.92415 4.52074L9.33843 3.77585ZM9.37327 3.94175L7.96313 4.68829V13.3009L9.37327 14.0475V3.94673V3.94175ZM7.77567 4.59539L7.66618 4.45106L7.42562 4.14747H7.36341L6.47005 5.27972V5.28719L7.77567 4.59539ZM6.47005 5.4506V12.5394L6.48 12.5204L7.79724 13.2138V4.77622L6.48 5.46968L6.47005 5.4506ZM9.51843 0.165899H10.2948L9.31272 1.41014H3.2906L2.30848 0.165899H9.51843ZM8.73042 1.57604H9.18166L8.3306 2.65438H4.27272L3.42166 1.57604H8.73042ZM7.28295 3.98157L8.19539 2.82028H4.40378L5.31622 3.98157H7.28295ZM7.13364 4.14747H7.15189L6.30415 5.22581H6.30912H6.29502L5.45143 4.14747H7.13364ZM1.23677 1.0717L2.13346 0.211521L3.11143 1.45078L2.40553 2.15668L1.65899 2.93641L0.188295 2.15668L1.23677 1.0717ZM0.165899 2.33502V15.655L1.57604 14.9135V3.07659L0.165899 2.33502ZM1.74194 3.16452V14.8264L3.06912 14.1279V3.86212L1.74194 3.16452ZM3.23502 3.95005V14.0408L4.64516 13.2984V4.69161L3.23502 3.95005ZM4.68415 4.52489L3.26074 3.77834L3.76673 3.27152L4.20304 2.83604L5.14286 4.02387L4.93548 4.23041L4.68415 4.52489ZM4.81106 4.77871V13.2113L6.12415 12.5204L6.13825 12.5477V5.4423L6.12415 5.46968L4.81106 4.77871ZM6.13825 5.28968L4.83429 4.60369L5.05991 4.34323L5.2482 4.15493L6.13825 5.28553V5.28968ZM3.10728 3.69456L1.81161 3.01272L2.52415 2.26618L3.21512 1.57935L4.09935 2.7L3.64977 3.15207L3.10728 3.69456ZM10.8896 15.0288L9.53917 14.3162L9.06719 14.765L8.50645 15.2884L9.40147 16.424H9.43217L10.2534 15.6542L10.8896 15.0288ZM9.37327 14.2308V14.2441L8.95853 14.6455L8.40857 15.1582L7.49032 13.9969L7.71429 13.7281L7.93908 13.4793L9.37327 14.2308ZM8.73042 16.424H9.18995L8.33723 15.3456L7.92249 15.339H4.68747L4.26691 15.3456L3.41419 16.424H8.73042ZM7.92415 15.1714L8.20452 15.1756L7.29207 14.0143H5.3129L4.39631 15.1797L4.68166 15.1747H7.92166L7.92415 15.1714ZM7.38912 13.8525H7.37171L6.47005 12.7103V12.7029L7.78811 13.3963L7.59069 13.6178L7.38912 13.8525ZM6.29502 12.7742H6.30912L7.16018 13.8525H5.44313L6.29502 12.7742ZM1.62415 15.0752L0.183318 15.8334L1.11235 16.7632L2.13097 17.781L3.15871 16.4795L2.36406 15.7736L1.62415 15.0752ZM0.178341 15.8284L0.165899 15.8043V15.8159L0.178341 15.8284ZM1.77926 14.9939L3.09318 14.3029L3.52452 14.7252L4.11014 15.2743L3.26157 16.3526L2.47604 15.655L1.77926 14.9939ZM3.24747 14.2217L3.63899 14.6057L4.213 15.1441L5.14286 13.9687L4.85502 13.6452L4.69991 13.4585L3.24747 14.2217ZM4.84756 13.3797L4.97696 13.5373L5.24323 13.8368L6.13825 12.7045L4.84756 13.3797ZM2.11521 18L0.995392 16.8802L0 15.8848V2.11521L1.11982 0.953917L2.11521 0H10.5346L11.53 0.995392L12.6912 2.15668V15.8433L11.661 16.9217L10.5901 18H2.11521Z" fill="black"/>
</svg>
