<svg width="11" height="18" viewBox="0 0 11 18" fill="none" xmlns="http://www.w3.org/2000/svg">
<path d="M9.69873 15.6534C10.289 14.7792 10.6036 13.7482 10.6021 12.6935C10.6048 11.7644 10.5444 10.8362 10.4213 9.91525C10.4246 9.90177 10.4226 9.88752 10.4156 9.87551C10.1843 8.16859 9.67594 6.51087 8.91051 4.96776C8.90861 4.96249 8.90587 4.95756 8.9024 4.95316C8.17256 3.49349 7.10376 1.89109 5.3562 0.0218952L5.34161 0.00973108C5.33279 0.00551916 5.32354 0.00225718 5.31403 0H5.28727C5.27828 0.0018733 5.26957 0.0048703 5.26132 0.00892028L5.24592 0.0210844C3.85598 1.50833 2.61201 3.12208 1.69647 4.95803C1.69647 4.95803 1.69647 4.96371 1.69242 4.96614C0.48251 7.39893 6.59071e-06 9.92092 6.59071e-06 12.6927C-0.0016598 13.7476 0.312706 14.7788 0.902573 15.6534C0.905854 15.6649 0.913016 15.6749 0.922846 15.6818C1.42657 16.4219 2.1084 17.0234 2.90557 17.431C4.05445 18.0108 5.3749 18.1533 6.62104 17.8319C7.86717 17.5106 8.95404 16.7473 9.67927 15.6842C9.68944 15.6768 9.6964 15.6658 9.69873 15.6534ZM7.31135 2.64039C7.81395 3.33832 8.26494 4.072 8.66074 4.83558C8.31123 4.68961 8.10444 4.60527 6.70234 4.02059C6.93265 3.49916 7.08591 3.15046 7.31135 2.64039ZM8.7467 5.04966L8.35664 8.1758L6.72829 7.22539C6.70153 5.63272 6.70397 5.76572 6.67802 4.18602L8.7467 5.04966ZM9.52519 15.5455L7.20999 15.5918L7.66979 13.8888L9.01998 12.6789C9.19515 13.6739 9.36625 14.6446 9.52519 15.5455ZM4.07574 4.2736L5.19077 5.53784L4.03357 7.03077L4.07574 4.2736ZM9.06945 12.3448C8.54153 11.4049 8.55857 11.4349 8.02741 10.487L8.47261 8.45476L10.2372 9.92984L9.06945 12.3448ZM7.99578 10.7627L8.96889 12.5029L7.69979 13.6439L7.99578 10.7627ZM7.85873 10.5113C7.7671 11.4033 7.60005 13.0252 7.52139 13.7939L5.29619 15.0517L3.07181 13.7939L2.73608 10.5121L4.01817 7.31297L5.29782 5.66759L6.57827 7.31297L7.85873 10.5113ZM2.59741 10.7627L2.89341 13.6431L1.62024 12.5029L2.59741 10.7627ZM3.12371 14.0064L5.08778 15.1214L3.54702 15.5739L3.12371 14.0064ZM8.3315 8.34853L7.92036 10.2266L6.81263 7.46218L8.3315 8.34853ZM6.51908 4.27523L6.56449 7.03239C6.27661 6.66342 5.69112 5.91006 5.40324 5.54028L6.51908 4.27523ZM7.4703 14.0113L7.04861 15.5747L5.50784 15.1222L7.4703 14.0113ZM5.29782 5.41539L4.08953 4.04492L5.29619 0.338969L6.50367 4.04492L5.29782 5.41539ZM3.78219 7.46137L2.67445 10.2258L2.2625 8.34853L3.78219 7.46137ZM2.12059 8.45476C2.25196 9.05485 2.40523 9.75225 2.56579 10.4878L1.52374 12.3456L0.356006 9.92579L2.12059 8.45476ZM1.5724 12.6789L2.92341 13.8888L3.38321 15.5918L1.068 15.5455C1.71837 11.8534 1.43292 13.472 1.5724 12.6789ZM9.17325 12.6148L10.4399 12.7657C10.4284 13.699 10.1614 14.6113 9.66792 15.4036C9.61764 15.119 9.54222 14.7078 9.17325 12.6148ZM9.19758 12.4526L10.2923 10.1861C10.389 10.9878 10.4382 11.7944 10.4399 12.6019L9.19758 12.4526ZM8.56992 8.32339L9.8001 7.72087C9.98297 8.37231 10.1252 9.0345 10.2258 9.70359C9.79929 9.35084 9.44897 9.05972 8.56992 8.32501V8.32339ZM1.84406 5.04966L3.91275 4.18602C3.88761 5.76247 3.88923 5.63272 3.86328 7.22539L2.23493 8.1758C2.15222 7.50029 1.90245 5.5046 1.84406 5.04966ZM0.789852 7.72573L2.02003 8.32826L0.363302 9.70684C0.464137 9.03717 0.606597 8.37444 0.789852 7.72249V7.72573ZM0.303294 10.1877C0.621989 10.8454 1.08098 11.7966 1.39805 12.4543L0.155704 12.6019C0.157472 11.7949 0.206754 10.9888 0.303294 10.1877ZM1.42157 12.6148C1.06151 14.6608 0.967447 15.1782 0.927711 15.4036C0.434512 14.6113 0.167794 13.6989 0.156516 12.7657L1.42157 12.6148ZM3.62811 15.7191L5.29538 15.2325L6.96347 15.7191L5.29538 17.7886L3.62811 15.7191ZM7.07213 15.8472L7.55058 17.315C6.90115 17.6347 6.19081 17.8116 5.4673 17.834C7.87252 14.8506 6.44528 16.6306 7.07294 15.8472H7.07213ZM8.51964 8.1685C8.754 6.29606 8.67615 6.91886 8.88051 5.28078C9.23242 6.01731 9.52448 6.78097 9.75388 7.56436L8.51964 8.1685ZM6.60584 3.83732L5.48838 0.401411C6.09689 1.06404 6.66864 1.75951 7.20107 2.48469L6.60584 3.83732ZM5.10481 0.401411L3.98654 3.83732L3.39132 2.48793C3.92369 1.76145 4.49572 1.06489 5.10481 0.401411ZM3.28184 2.64039L3.89004 4.01897L1.93083 4.83639C2.32695 4.07239 2.77849 3.33842 3.28184 2.64039ZM1.71026 5.28321C1.76459 5.72436 1.77919 5.82167 2.07193 8.1685L0.838506 7.56436C1.06713 6.78172 1.35866 6.01885 1.71026 5.28321ZM1.12963 15.7085L3.37915 15.7539L2.89259 17.2412C2.19589 16.8712 1.5929 16.347 1.12963 15.7085ZM3.041 17.315L3.51944 15.8472C3.69785 16.0694 3.88274 16.2924 5.12428 17.834C4.40077 17.8116 3.69043 17.6347 3.041 17.315ZM7.69817 17.2412L7.21161 15.7539L9.46032 15.7085C8.99734 16.347 8.39462 16.8712 7.69817 17.2412Z" fill="#1D1D1B"/>
</svg>
