<svg width="50" height="50" viewBox="0 0 50 50" fill="none" xmlns="http://www.w3.org/2000/svg">
<path d="M1.07129 0C1.53907 0.255859 1.66699 0.655273 1.66895 1.17188C1.67578 3.05371 1.64649 4.94141 1.7666 6.81738C1.96192 9.82031 2.84082 12.6426 4.28907 15.2803C5.83242 18.1155 7.98777 20.5714 10.5986 22.4697C13.3005 24.4598 16.4381 25.7765 19.751 26.3105C20.5664 26.4434 21.3945 26.4941 22.2168 26.5879C22.46 26.6152 22.6182 26.5879 22.7539 26.3203C23.207 25.4414 23.9619 24.9668 24.9531 24.9668C25.9443 24.9668 26.6699 25.4551 27.1729 26.3086C27.2255 26.3854 27.2948 26.4494 27.3757 26.4957C27.4565 26.5421 27.5467 26.5696 27.6397 26.5762C33.665 26.2246 38.7188 23.8164 42.7529 19.3262C45.8516 15.877 47.667 11.8203 48.1055 7.20801C48.2949 5.21094 48.2197 3.18652 48.2344 1.17383C48.2344 0.655274 48.3652 0.25586 48.832 0.00195354H49.3203C49.7813 0.263672 49.9248 0.661133 49.9121 1.18164C49.8662 3.04785 49.9258 4.91895 49.8057 6.78027C49.5127 11.2354 47.9912 15.2676 45.3135 18.832C41.6084 23.7721 36.7064 26.7995 30.6074 27.9141C29.7295 28.0742 28.8417 28.1747 27.9502 28.2148C27.415 28.2383 27.1045 28.4102 26.9844 28.9785C27.8516 29.7109 28.3516 30.6602 28.2539 31.8486C28.1563 33.0371 27.5508 33.9141 26.5146 34.5371C27.1836 35.3486 27.8906 36.1094 28.4834 36.9502C29.2959 38.0996 30.0664 39.2842 30.7773 40.5C32.8779 44.0938 30.6055 48.4287 26.9688 49.5986C22.5801 51.0107 18.0684 47.5615 18.3174 42.958C18.3838 41.7236 18.9131 40.6211 19.5811 39.627C20.585 38.1357 21.6973 36.7178 22.7695 35.2734C22.9522 35.0264 23.1602 34.8018 23.3662 34.5645C21.2539 33.2842 21.0049 30.5859 22.8994 28.9531C22.7832 28.4648 22.5264 28.252 21.9688 28.2158C15.6436 27.8145 10.3057 25.2754 6.02539 20.582C2.72656 16.9639 0.793948 12.6895 0.185549 7.82422C0.126956 7.36035 0.0615234 6.89746 0 6.43457V0H1.07129ZM24.9541 35.3184C24.6309 35.6855 24.3525 36.002 24.0752 36.3154C22.7637 37.8252 21.5361 39.3926 20.6113 41.1777C20.1514 42.0684 19.8125 42.9922 20.0254 44.0234C20.459 46.1719 21.7197 47.5967 23.8438 48.1006C25.9678 48.6045 27.7363 47.8643 29.0049 46.1182C29.9375 44.835 30.2627 43.3955 29.5908 41.8486C28.5127 39.3662 26.7461 37.3779 24.9541 35.3184ZM26.6074 31.627C26.623 31.4013 26.5923 31.1748 26.5172 30.9615C26.442 30.7481 26.3241 30.5524 26.1706 30.3862C26.0171 30.2201 25.8313 30.0871 25.6246 29.9953C25.4178 29.9036 25.1945 29.855 24.9683 29.8527C24.7421 29.8504 24.5179 29.8943 24.3093 29.9818C24.1007 30.0692 23.9121 30.1984 23.7553 30.3613C23.5984 30.5243 23.4765 30.7175 23.397 30.9293C23.3175 31.1411 23.2821 31.3668 23.293 31.5928C23.3134 32.0158 23.4947 32.415 23.7997 32.7087C24.1048 33.0024 24.5106 33.1685 24.9341 33.1728C25.3575 33.1772 25.7667 33.0196 26.0777 32.7322C26.3888 32.4448 26.5783 32.0494 26.6074 31.627ZM24.9473 28.2705C25.1599 28.2718 25.3645 28.1894 25.5167 28.0409C25.669 27.8925 25.7566 27.6901 25.7607 27.4775C25.7645 27.3685 25.7463 27.2599 25.7072 27.1581C25.6681 27.0562 25.6089 26.9633 25.5331 26.8849C25.4574 26.8064 25.3666 26.7441 25.2662 26.7014C25.1658 26.6588 25.0578 26.6369 24.9487 26.6369C24.8397 26.6369 24.7317 26.6588 24.6313 26.7014C24.5309 26.7441 24.4401 26.8064 24.3643 26.8849C24.2886 26.9633 24.2294 27.0562 24.1902 27.1581C24.1511 27.2599 24.1329 27.3685 24.1367 27.4775C24.1413 27.6906 24.2297 27.8933 24.3827 28.0418C24.5357 28.1902 24.741 28.2724 24.9541 28.2705H24.9473Z" fill="#5C5C5C"/>
</svg>
