<svg width="25" height="11" viewBox="0 0 25 11" fill="none" xmlns="http://www.w3.org/2000/svg">
<path d="M19.0208 4.1767L17 0.635037C16.8889 0.440592 16.9097 0.270315 17.0625 0.124203C17.2153 -0.0219081 17.3889 -0.0391286 17.5833 0.072538L24.2292 4.3017C24.4931 4.46837 24.625 4.70448 24.625 5.01004C24.625 5.31559 24.4931 5.5517 24.2292 5.71837L17.5833 9.94754C17.3889 10.0586 17.2153 10.0411 17.0625 9.89504C16.9097 9.74893 16.8889 9.57893 17 9.38504L19.0208 5.84337L9.5 5.84337C9.26389 5.84337 9.06583 5.76337 8.90583 5.60337C8.74583 5.44337 8.66611 5.24559 8.66667 5.01004C8.66667 4.77393 8.74667 4.57587 8.90667 4.41587C9.06667 4.25587 9.26444 4.17615 9.5 4.17671L19.0208 4.1767Z" fill="black"/>
<rect y="4.01953" width="21" height="1.8" rx="0.9" fill="black"/>
</svg>
