<svg width="16" height="23" viewBox="0 0 16 23" fill="none" xmlns="http://www.w3.org/2000/svg">
<path d="M15.4659 11.4971C15.4659 2.98203 15.4584 3.44944 15.4394 3.41765C15.4203 3.38585 12.2152 0.0345073 12.2035 0.0260283C12.188 0.0129287 12.1687 0.0051285 12.1484 0.00376846C12.0594 -0.00471058 3.33976 0.00376846 3.33764 0.00376846C3.32118 0.00164616 3.30446 0.00342097 3.28881 0.00894366C3.27316 0.0144663 3.25903 0.0235878 3.24755 0.0355701C3.1988 0.0885641 0.0265738 3.40493 0.0212744 3.42719C-0.0190011 3.50668 0.0106761 19.5003 0.00855635 19.5109C0.00606048 19.5346 0.0116588 19.5585 0.0244507 19.5787C0.0244507 19.5925 3.23695 22.9502 3.24755 22.9608C3.29949 23.0191 2.80028 22.9905 10.9126 23C11.4298 23 11.9725 23 12.1209 22.9915H12.1272C12.1477 22.994 12.1685 22.9899 12.1866 22.9799C12.1986 22.9764 12.2093 22.9694 12.2173 22.9597C12.3148 22.8537 15.4341 19.5978 15.4394 19.5776C15.4447 19.5575 15.4659 20.0641 15.4659 11.4971ZM11.4722 21.5533C11.1352 20.9862 11.2168 21.1229 11.0907 20.9099L13.3302 18.5655L13.9894 18.9173L11.4722 21.5533ZM1.19138 18.8262L0.213113 19.3476C0.203574 17.7419 0.203574 5.25124 0.213113 3.64552L1.19138 4.16804V18.8262ZM10.441 2.99369L12.388 5.03503V17.9581L10.441 19.9995H5.02179L3.07161 17.9581V5.03503L5.02179 2.99369H10.441ZM2.94443 18.132L4.84267 20.1171L4.48549 20.7181L2.32758 18.4584C2.70277 18.2623 2.52471 18.3567 2.94443 18.132ZM2.2661 4.73614L2.86494 5.0541V17.938L2.2661 18.256V4.73614ZM2.94972 4.8612L2.32758 4.53688L4.49185 2.27298L4.84691 2.87287L2.94972 4.8612ZM13.2094 18.257L12.6095 17.9391V5.05622L13.2094 4.73826V18.257ZM10.9836 2.27298L13.1362 4.53688L12.5194 4.8665L10.6222 2.87816L10.9836 2.27298ZM1.4129 4.28039L2.05412 4.62273V18.3704L1.4129 18.7128V4.28039ZM10.6222 20.1171L12.5194 18.1298L13.1362 18.4584L10.9783 20.7213L10.6222 20.1171ZM14.0562 18.7096L13.4203 18.3673V4.62273L14.0562 4.28039V18.7096ZM13.9894 4.07265L13.3302 4.43089L11.0907 2.08644L11.4722 1.44309L13.9894 4.07265ZM10.4272 2.78172H5.03451L4.69217 2.20514H10.7727L10.4272 2.78172ZM3.98947 1.43991L4.37102 2.08325L2.13362 4.43089L1.47543 4.07901L3.98947 1.43991ZM1.47225 18.9173L2.13043 18.5655L4.37102 20.9099L3.98947 21.5533L1.47225 18.9173ZM5.03345 20.2125C5.24542 20.221 5.68527 20.2125 10.4272 20.2125C10.6211 20.5411 10.5459 20.4128 10.7695 20.7901H4.69217C4.96138 20.3365 4.98682 20.2973 5.03663 20.2125H5.03345ZM14.265 4.16804L15.2443 3.64552C15.2528 5.25124 15.2528 17.7419 15.2443 19.3476L14.265 18.8262V4.16804ZM10.8978 1.99317H4.56604L4.19826 1.37314H11.2655L10.8978 1.99317ZM4.56604 21.0011H10.8978L11.2655 21.6222H4.19826L4.56604 21.0011ZM14.1972 3.9656C14.176 3.9762 14.3922 4.1903 11.5846 1.25019C11.8866 0.741446 12.0085 0.536891 12.1601 0.284639L15.1776 3.44202L14.1972 3.9656ZM11.9534 0.213629L11.3917 1.1601H4.0732L3.50828 0.206209C5.12778 0.206209 3.00802 0.213629 11.9534 0.213629ZM3.30584 0.283578L3.8803 1.25019L1.28041 3.97302L0.286245 3.44308L3.30584 0.283578ZM1.28041 19.0212L3.8803 21.743C3.62275 22.1754 3.48178 22.4118 3.30372 22.7085L0.286245 19.5511L1.28041 19.0212ZM3.50616 22.7795C4.27352 21.4886 3.85274 22.1977 4.06896 21.8341H11.3917L11.9566 22.788C10.3763 22.7891 13.8315 22.7795 3.5104 22.7795H3.50616ZM12.1548 22.7106L11.5803 21.743L14.1792 19.0212L15.1733 19.5511L12.1548 22.7106Z" fill="#1D1D1B"/>
</svg>
