<svg width="17" height="16" viewBox="0 0 17 16" fill="none" xmlns="http://www.w3.org/2000/svg">
<path d="M16.3448 14.8572C15.1786 12.8483 13.3119 11.3405 11.1026 10.6229C12.1616 9.99314 12.9845 9.03316 13.445 7.89039C13.9054 6.74761 13.978 5.48527 13.6514 4.29727C13.3249 3.10928 12.6174 2.06135 11.6375 1.31447C10.6576 0.567595 9.45965 0.163086 8.22759 0.163086C6.99554 0.163086 5.79756 0.567595 4.8177 1.31447C3.83783 2.06135 3.13028 3.10928 2.80375 4.29727C2.47721 5.48527 2.54975 6.74761 3.01022 7.89039C3.47069 9.03316 4.29363 9.99314 5.35259 10.6229C3.1433 11.3405 1.27661 12.8483 0.110407 14.8572C0.0614923 14.9282 0.0277834 15.0085 0.0113983 15.0931C-0.00498687 15.1777 -0.00369407 15.2648 0.0151954 15.3489C0.0340848 15.433 0.0701627 15.5123 0.121162 15.5818C0.172161 15.6512 0.236979 15.7094 0.311544 15.7527C0.386108 15.7959 0.468806 15.8232 0.554443 15.8329C0.64008 15.8427 0.726803 15.8346 0.809164 15.8092C0.891525 15.7838 0.967743 15.7416 1.03303 15.6854C1.09832 15.6291 1.15126 15.5599 1.18853 15.4822C1.90289 14.2478 2.9293 13.223 4.16479 12.5105C5.40028 11.7981 6.8014 11.423 8.22759 11.423C9.65379 11.423 11.0549 11.7981 12.2904 12.5105C13.5259 13.223 14.5523 14.2478 15.2667 15.4822C15.3039 15.5599 15.3569 15.6291 15.4222 15.6854C15.4874 15.7416 15.5637 15.7838 15.646 15.8092C15.7284 15.8346 15.8151 15.8427 15.9007 15.8329C15.9864 15.8232 16.0691 15.7959 16.1436 15.7527C16.2182 15.7094 16.283 15.6512 16.334 15.5818C16.385 15.5123 16.4211 15.433 16.44 15.3489C16.4589 15.2648 16.4602 15.1777 16.4438 15.0931C16.4274 15.0085 16.3937 14.9282 16.3448 14.8572ZM3.85259 5.79473C3.85259 4.92944 4.10918 4.08358 4.58991 3.36411C5.07065 2.64465 5.75393 2.08389 6.55335 1.75276C7.35278 1.42162 8.23245 1.33498 9.08111 1.5038C9.92978 1.67261 10.7093 2.08928 11.3212 2.70114C11.933 3.31299 12.3497 4.09254 12.5185 4.94121C12.6873 5.78988 12.6007 6.66954 12.2696 7.46897C11.9384 8.2684 11.3777 8.95168 10.6582 9.43241C9.93875 9.91314 9.09289 10.1697 8.22759 10.1697C7.06727 10.1697 5.95447 9.70879 5.134 8.88832C4.31353 8.06785 3.85259 6.95505 3.85259 5.79473Z" fill="black"/>
</svg>
