<svg width="13" height="18" viewBox="0 0 13 18" fill="none" xmlns="http://www.w3.org/2000/svg">
<path d="M11.0587 2.64757C8.53028 -0.882523 4.4159 -0.882523 1.88745 2.64757C-1.36789 7.19148 -0.247996 14.8612 3.98464 17.3114C5.56883 18.2287 7.37561 18.2304 8.95981 17.3114C13.2046 14.8551 14.3036 7.17409 11.0587 2.64757ZM1.88136 15.0385C1.35338 14.2412 0.946947 13.3697 0.675388 12.4527L2.01352 11.6789C1.99787 12.0649 1.91179 14.2482 1.88136 15.0385ZM0.624091 12.2806C0.344805 11.2944 0.19458 10.2761 0.177177 9.25128L1.97527 11.4998L0.624091 12.2806ZM11.0692 2.96145C11.5966 3.75944 12.003 4.63113 12.2751 5.54816L10.9405 6.31939C10.9596 5.81074 10.9109 6.85586 11.0692 2.96145ZM9.00589 12.1901L9.87537 9.26867L10.7344 11.4763L9.00589 12.1901ZM9.76495 9C9.47628 9.97034 9.2337 10.7903 8.79026 12.2823L6.47135 13.623L4.15157 12.2823C3.91333 11.4798 3.6238 10.5051 3.17776 9C3.45947 8.04879 3.97072 6.32895 4.15157 5.71771L6.47135 4.37697L8.79026 5.71771C8.9772 6.342 9.48497 8.05313 9.76495 9ZM3.07602 8.7322L2.21698 6.52459C2.92039 6.2394 0.942325 7.05062 3.9429 5.80987L3.07602 8.7322ZM6.62786 4.26654L8.22249 3.05797C8.42508 4.037 7.85035 1.30248 8.73896 5.4873L6.62786 4.26654ZM6.31398 4.26654L4.20375 5.48382L4.72196 3.05797L6.31398 4.26654ZM2.0796 6.6524L2.99517 9L2.0796 11.3519L0.200654 9L2.0796 6.6524ZM4.72109 14.9473L4.20549 12.5179L6.31571 13.7352L4.72109 14.9473ZM6.63394 13.7378L8.74505 12.5205L8.22944 14.9499L6.63394 13.7378ZM9.87276 8.73655C9.68061 8.08965 9.82059 8.56265 9.00328 5.81422C11.1952 6.72022 10.5057 6.43851 10.7292 6.52893L9.87276 8.73655ZM10.7622 6.35243L8.94589 5.6012C8.94589 5.58555 8.39551 3.00667 8.39116 2.99275L10.8953 2.79277L10.7622 6.35243ZM6.47743 4.17177L4.78543 2.88929L6.47743 0.253019L8.16771 2.88755C7.59733 3.29707 9.26934 2.04415 6.47309 4.16742L6.47743 4.17177ZM2.2222 11.4806C2.83605 9.90513 2.63607 10.419 3.08212 9.27302C3.2021 9.67906 3.83248 11.8015 3.9516 12.1945L2.2222 11.4806ZM6.47743 13.8369L8.16945 15.1194L6.47743 17.7557L4.78543 15.1194L6.47743 13.8369ZM10.8657 6.6524L12.7473 9L10.8657 11.3519L9.95015 9C10.6344 7.24626 10.4484 7.72186 10.8657 6.6524ZM8.25205 2.69887L6.63394 0.177374C7.4005 0.207996 8.14832 0.42336 8.81374 0.805139C8.67636 1.27031 8.39725 2.20935 8.25205 2.69887ZM4.69327 2.69887L4.13158 0.805139C4.79726 0.423226 5.54539 0.207857 6.31224 0.177374L4.69327 2.69887ZM4.55849 2.98493C4.53241 3.10753 4.02724 5.48643 4.00463 5.59337L2.18829 6.3446L2.0483 2.7893L4.55849 2.98493ZM2.00918 6.31939L0.675388 5.54816C0.94677 4.63085 1.35322 3.75906 1.88136 2.96145C2.04308 7.10105 1.99092 5.90465 2.00918 6.31939ZM0.624091 5.71945L1.97527 6.50198L0.177177 8.75046C0.194489 7.72505 0.344714 6.70622 0.624091 5.71945ZM2.0483 15.2081C2.09699 13.9821 2.15872 12.4092 2.18829 11.6528L4.00463 12.4031C4.02724 12.5136 4.53241 14.8925 4.55849 15.0116L2.0483 15.2081ZM4.69327 15.3011L6.31224 17.8226C5.54532 17.7926 4.7971 17.5772 4.13158 17.1949L4.69327 15.3011ZM8.25205 15.3011L8.81374 17.1949C8.14848 17.577 7.40057 17.7924 6.63394 17.8226L8.25205 15.3011ZM8.38682 15.0151C8.43638 14.7838 8.87895 12.697 8.94155 12.4066L10.757 11.6563L10.8953 15.2081L8.38682 15.0151ZM10.9327 11.6789L12.2708 12.4527C12 13.3692 11.5951 14.2406 11.0692 15.0385C11.0379 14.3595 10.9822 12.8527 10.9327 11.6789ZM10.9709 6.50024L12.3212 5.71771C12.6007 6.70388 12.7513 7.72212 12.769 8.74698C12.5586 8.48527 11.3387 6.96107 10.9709 6.50024ZM10.8257 2.62322L8.40074 2.80929L8.9685 0.896435C9.69325 1.34673 10.3239 1.93312 10.8257 2.62322ZM3.97682 0.895565L4.54458 2.80842L2.12046 2.62236C2.62163 1.93202 3.25209 1.34556 3.97682 0.895565ZM2.12046 15.3768L4.54806 15.1907L3.98029 17.1036C3.25449 16.6537 2.62288 16.0672 2.12046 15.3768ZM8.9685 17.1044L8.40074 15.1916L10.8257 15.3776C10.3242 16.068 9.69349 16.6545 8.9685 17.1044ZM12.3212 12.2806L10.97 11.498L12.769 9.24954C12.7515 10.275 12.601 11.2938 12.3212 12.2806Z" fill="#1D1D1B"/>
</svg>
