<svg width="40" height="40" viewBox="0 0 40 40" fill="none" xmlns="http://www.w3.org/2000/svg">
<path d="M16.0007 10.833C17.1057 10.833 18.1655 11.272 18.9469 12.0534C19.7283 12.8348 20.1673 13.8946 20.1673 14.9997C20.1673 15.5468 20.0595 16.0887 19.8501 16.5942C19.6408 17.0997 19.3338 17.559 18.9469 17.946C18.56 18.3329 18.1007 18.6398 17.5952 18.8492C17.0896 19.0586 16.5478 19.1663 16.0007 19.1663C14.8956 19.1663 13.8358 18.7274 13.0544 17.946C12.273 17.1646 11.834 16.1047 11.834 14.9997C11.834 13.8946 12.273 12.8348 13.0544 12.0534C13.8358 11.272 14.8956 10.833 16.0007 10.833ZM16.0007 3.33301C19.0948 3.33301 22.0623 4.56217 24.2502 6.7501C26.4382 8.93802 27.6673 11.9055 27.6673 14.9997C27.6673 23.7497 16.0007 36.6663 16.0007 36.6663C16.0007 36.6663 4.33398 23.7497 4.33398 14.9997C4.33398 11.9055 5.56315 8.93802 7.75107 6.7501C9.939 4.56217 12.9065 3.33301 16.0007 3.33301ZM16.0007 6.66634C13.7905 6.66634 11.6709 7.54431 10.1081 9.10712C8.54529 10.6699 7.66732 12.7895 7.66732 14.9997C7.66732 16.6663 7.66732 19.9997 16.0007 31.183C24.334 19.9997 24.334 16.6663 24.334 14.9997C24.334 12.7895 23.456 10.6699 21.8932 9.10712C20.3304 7.54431 18.2108 6.66634 16.0007 6.66634Z" fill="#A0A0A1"/>
</svg>
