<svg width="18" height="24" viewBox="0 0 18 24" fill="none" xmlns="http://www.w3.org/2000/svg">
<path d="M4.40203 5.84067C4.30136 4.24546 4.77489 2.89199 5.99848 1.85606C6.81293 1.15183 7.86228 0.779216 8.93847 0.812059C10.259 0.836916 11.362 1.3527 12.2383 2.34202C13.1145 3.33134 13.4233 4.51703 13.3382 5.84129C13.9006 5.84129 14.4344 5.83384 14.9682 5.84129C15.5134 5.8517 16.0356 6.06353 16.434 6.436C16.8324 6.80843 17.0788 7.31514 17.1258 7.85846C17.1674 8.38481 17.188 8.91489 17.2122 9.44062C17.3336 11.986 17.4537 14.5314 17.5726 17.0768C17.631 18.3258 17.6969 19.5755 17.7398 20.8252C17.7883 22.1644 16.8076 23.1867 15.4685 23.1867C11.0717 23.1912 6.6746 23.1912 2.27736 23.1867C0.937554 23.1867 -0.0542484 22.1663 0.00230175 20.8308C0.114781 18.1841 0.247145 15.5381 0.37081 12.892C0.439789 11.4174 0.504417 9.94273 0.576503 8.46808C0.581481 8.16563 0.610993 7.86405 0.664746 7.56638C0.771887 7.08049 1.04067 6.64536 1.42715 6.33198C1.81365 6.01864 2.29499 5.84566 2.79252 5.84129C3.31887 5.83508 3.8446 5.84067 4.40203 5.84067ZM8.87322 21.6958C11.0639 21.6958 13.2547 21.6958 15.4455 21.6958C15.9656 21.6958 16.267 21.3789 16.2533 20.8588C16.2459 20.6102 16.2365 20.3616 16.2254 20.1131C16.1065 17.5909 15.9874 15.0687 15.868 12.5465C15.7978 11.0638 15.7332 9.58168 15.6555 8.09957C15.6269 7.55023 15.3305 7.29855 14.7762 7.30166C13.6265 7.30787 12.4767 7.31222 11.3266 7.31471C8.53019 7.32216 5.73375 7.329 2.93732 7.33521C2.41345 7.33521 2.12946 7.59311 2.09776 8.12194C2.06048 8.7266 2.04121 9.33249 2.01325 9.93776C1.84298 13.5545 1.67291 17.171 1.50306 20.7873C1.47447 21.4019 1.75909 21.6958 2.37306 21.6965L8.87322 21.6958ZM11.8455 5.82949C11.9524 4.46234 11.5267 3.35495 10.3149 2.6807C9.21873 2.07108 8.1101 2.15435 7.09717 2.89571C6.11158 3.61595 5.79217 4.63883 5.90713 5.82949H11.8455Z" fill="black"/>
</svg>
