<svg width="22" height="20" viewBox="0 0 22 20" fill="none" xmlns="http://www.w3.org/2000/svg">
<path d="M10.7849 3.63876C11.3341 2.90887 11.9551 2.28837 12.7041 1.81168C16.2142 -0.42931 20.7132 1.6422 21.4417 5.81561C21.7753 7.72642 21.2966 9.43129 20.3209 11.0335C19.2911 12.7215 17.9435 14.1246 16.4818 15.4183C15.16 16.5826 13.7582 17.6483 12.2874 18.6072C11.3103 19.248 10.2937 19.2824 9.31401 18.639C7.15483 17.2211 5.12091 15.6418 3.33357 13.7478C2.19629 12.5433 1.19219 11.2381 0.537514 9.68314C-0.492301 7.23757 -0.0143156 4.39904 1.73083 2.60503C3.75354 0.526097 6.96825 0.316784 9.27511 2.12092C9.55505 2.34158 9.82147 2.57971 10.0729 2.83393C10.3175 3.07767 10.5344 3.3545 10.7849 3.63876ZM1.2245 7.06135C1.22355 7.7117 1.3444 8.35624 1.58051 8.96001C2.08751 10.303 2.91822 11.4279 3.85837 12.471C5.63846 14.4494 7.70995 16.0584 9.89814 17.5229C10.4856 17.9165 11.0664 17.9118 11.6512 17.5229C13.0904 16.5758 14.4631 15.5267 15.7593 14.3832C17.06 13.2239 18.2692 11.9768 19.2047 10.4792C20.0104 9.19025 20.4771 7.82095 20.2596 6.24976C19.7651 2.67526 15.9234 0.973079 13.0621 3.07632C12.3903 3.57057 11.8635 4.19918 11.4244 4.91084C11.3934 4.96013 11.3651 5.01144 11.3341 5.06141C11.0341 5.54417 10.5139 5.55903 10.2212 5.07829C9.8131 4.40917 9.34698 3.79541 8.75164 3.28834C7.16472 1.93794 5.02004 1.76509 3.31907 2.90887C1.87192 3.88791 1.27658 5.33824 1.2245 7.06135Z" fill="black"/>
</svg>
