<svg width="11" height="18" viewBox="0 0 11 18" fill="none" xmlns="http://www.w3.org/2000/svg">
<path d="M10.0003 0.0873027C10.0003 0.0873027 10.0003 0.0768684 10.0003 0.0699128C9.99677 0.0533634 9.98845 0.0382163 9.97641 0.0263239C9.96436 0.0144316 9.9491 0.006315 9.93251 0.00296933C9.92382 0.00296933 0.082599 -0.00746695 0.0478213 0.0107913C0.0323318 0.0184159 0.0197957 0.030952 0.0121711 0.0464415C-0.0069566 0.0820886 0.00173995 17.9187 0.00347883 17.9274C0.00525444 17.9379 0.00908895 17.9478 0.0147608 17.9568C0.0204326 17.9658 0.0278291 17.9735 0.0365181 17.9796C0.0747736 18.0091 9.92643 18.0022 9.95599 17.9865C10.0247 17.9483 10.0003 19.1924 10.0003 0.0873027ZM9.82644 17.7005C9.55257 17.4275 9.03525 16.9102 8.76137 16.6354V1.36191L9.82644 0.296841V17.7005ZM0.175627 0.296841L1.24069 1.36191V16.6354L0.175627 17.7005V0.296841ZM8.46837 1.41233L7.84498 2.0366H2.16056L1.53631 1.41233H8.46837ZM2.20838 15.7868V2.21049H7.7902V15.7868H2.20838ZM1.4111 16.4606V1.53667L2.0345 2.16006V15.8381L1.4111 16.4606ZM1.53283 16.585L2.15709 15.9607H7.8415L8.46489 16.585H1.53283ZM7.9667 2.16006L8.5901 1.53667V16.4606L7.9667 15.8381V2.16006ZM9.70559 0.174247L8.64052 1.23844H1.36242L0.297351 0.174247H9.70559ZM1.35894 16.7589H8.63704C8.91178 17.0327 9.4291 17.5501 9.70211 17.8239H0.29474L1.35894 16.7589Z" fill="#1D1D1B"/>
</svg>
