<svg width="20" height="21" viewBox="0 0 20 21" fill="none" xmlns="http://www.w3.org/2000/svg">
<path d="M20 10.0108C20 2.90982 12.7606 -1.9604 6.17172 0.770307C3.72271 1.7881 1.77645 3.73436 0.758655 6.18337C-0.252885 8.63471 -0.252885 11.3868 0.758655 13.8382C3.48167 20.4061 12.0298 22.1237 17.0715 17.082C18.0015 16.1545 18.7391 15.0523 19.2416 13.8387C19.7442 12.6252 20.0019 11.3243 20 10.0108ZM3.263 17.0996C5.97283 16.9524 6.63545 16.9194 7.02775 16.8974L6.15414 19.0062C5.08423 18.5485 4.10503 17.9028 3.263 17.0996ZM2.91135 16.748C2.10805 15.9058 1.46198 14.9267 1.0037 13.8568L3.11794 12.9777L2.91135 16.748ZM19.7253 10.0108L16.7935 12.6371L15.3649 10.0108L16.7935 7.38445L19.7253 10.0108ZM13.5364 6.11415L10.2551 4.75593L12.7342 3.40981L13.5364 6.11415ZM13.6265 6.38447L15.1265 10.0108C14.5704 11.3536 14.8979 10.5602 13.6265 13.6371L10.0002 15.137L6.37392 13.6371C5.10142 10.5657 5.42998 11.3569 4.87285 10.0108C5.42998 8.66793 5.10142 9.46132 6.37392 6.38447L10.0002 4.8834L13.6265 6.38447ZM13.5397 13.903L12.7375 16.6084L10.2584 15.2612L13.5397 13.903ZM4.74868 9.75143L3.39816 7.27676L6.10469 6.47458C5.62338 7.63719 5.26185 8.51079 4.74538 9.75582L4.74868 9.75143ZM6.10799 13.5426L3.40145 12.7404L4.74868 10.2613L6.10799 13.5426ZM7.2695 3.40541L9.74857 4.75154L6.46842 6.10975C7.45082 2.78345 7.13104 3.87024 7.2662 3.40981L7.2695 3.40541ZM7.2695 16.6084C7.14423 16.1799 7.26181 16.5842 6.46842 13.903L9.74857 15.2612L7.2695 16.6084ZM16.6045 12.7404L13.9001 13.5426C14.3748 12.3942 14.7792 11.4085 15.2583 10.2613C15.7276 11.1338 16.0726 11.769 16.6012 12.7448L16.6045 12.7404ZM15.2583 9.75143L13.9001 6.47128L16.6045 7.27236L15.2583 9.75143ZM16.6638 7.06028L13.799 6.21195L12.9496 3.34607L16.8803 3.1263C16.7704 5.07131 16.7792 4.91637 16.6605 7.06467L16.6638 7.06028ZM4.6333 10.0108L3.20476 12.6371L0.275149 10.0108L3.20695 7.38445L4.6333 10.0108ZM6.20579 13.8063C6.86511 16.0205 6.40249 14.4656 7.05412 16.6722L3.12344 16.8919L3.34321 12.9612L6.20579 13.8063ZM10.0002 15.3777L12.6265 16.8062L10.0002 19.7358L7.37279 16.8051L10.0002 15.3777ZM13.7957 13.8063L16.6605 12.9569C16.777 15.07 16.7704 14.9953 16.8803 16.8875L12.9496 16.6678L13.7957 13.8063ZM16.8825 7.04379L17.0902 3.27575C17.8921 4.11771 18.5374 5.09603 18.9956 6.16469L16.8825 7.04379ZM12.6265 3.2186L10.0002 4.64715C5.74206 2.3395 8.14421 3.62299 7.37499 3.2186L10.0002 0.285702L12.6265 3.2186ZM7.05412 3.34937L6.20579 6.21634L3.33882 7.06467L3.11904 3.13399L7.05412 3.34937ZM3.11794 7.04379L1.0037 6.16469C1.46198 5.09487 2.10805 4.11572 2.91135 3.27355C3.00915 5.06582 3.01905 5.23724 3.11794 7.04379ZM7.23324 16.9798L9.75186 19.7908C8.58765 19.764 7.43779 19.5276 6.35743 19.093L7.23324 16.9798ZM16.8825 12.9777L18.9956 13.8568C18.538 14.9268 17.8927 15.9063 17.0902 16.7491L16.8825 12.9777ZM19.0802 13.6502L16.966 12.7711L19.7802 10.2591C19.7523 11.4231 19.5152 12.5725 19.0802 13.6524V13.6502ZM16.966 7.24269L19.0802 6.36359C19.5159 7.44527 19.753 8.59662 19.7802 9.76242L16.966 7.24269ZM12.9672 3.1285L13.8463 1.01536C14.9171 1.47255 15.8971 2.11831 16.7396 2.92191L12.9672 3.1285ZM13.6397 0.930743L12.7606 3.04388L10.2497 0.230758C11.4134 0.258592 12.5625 0.496088 13.6419 0.931841L13.6397 0.930743ZM7.23324 3.04388L6.35414 0.931841C7.43536 0.495788 8.58635 0.258293 9.75186 0.230758L7.23324 3.04388ZM6.15414 1.01536L7.03324 3.1285L3.263 2.92191C4.10503 2.11872 5.08423 1.47299 6.15414 1.01536ZM0.92019 6.36908L3.03333 7.24819L0.220205 9.76242C0.247845 8.59845 0.484961 7.44898 0.92019 6.36908ZM3.03333 12.7766L0.92019 13.6557C0.484481 12.5748 0.247354 11.4242 0.220205 10.2591L3.03333 12.7766ZM12.7672 16.9776L13.6463 19.0908C12.5653 19.5262 11.4147 19.7633 10.2497 19.7908L12.7672 16.9776ZM13.8463 19.0062L12.9672 16.8941L16.7352 17.0996C15.8942 17.9031 14.9157 18.5489 13.8463 19.0062Z" fill="#1D1D1B"/>
</svg>
