<svg width="34" height="21" viewBox="0 0 34 21" fill="none" xmlns="http://www.w3.org/2000/svg">
<mask id="mask0_338_2994" style="mask-type:alpha" maskUnits="userSpaceOnUse" x="0" y="0" width="34" height="21">
<rect x="0.5" y="0.5" width="33" height="20" rx="1.5" fill="#FAFAFA" stroke="#D2D1D2"/>
</mask>
<g mask="url(#mask0_338_2994)">
<path d="M2.12497 -1.21924H31.875C33.048 -1.21924 34 -0.267284 34 0.906781V21.0943C34 22.2673 33.048 23.2193 31.875 23.2193H2.12497C0.950906 23.2194 0 22.2673 0 21.0944V0.906781C0 -0.267284 0.951954 -1.21924 2.12497 -1.21924Z" fill="#26A6D1"/>
<path d="M5.48254 7.28076L2.125 14.7109H6.14444L6.64273 13.5262H7.78172L8.28002 14.7109H12.7043V13.8067L13.0985 14.7109H15.3871L15.7813 13.7876V14.7109H24.9826L26.1015 13.557L27.1491 14.7109L31.8751 14.7204L28.5069 11.0166L31.8751 7.28076H27.2224L26.1333 8.41334L25.1186 7.28076H15.1088L14.2493 9.19854L13.3696 7.28076H9.35852V8.15417L8.91232 7.28076H5.48254ZM6.26027 8.33585H8.21953L10.4466 13.3742V8.33585H12.5929L14.313 11.9484L15.8983 8.33585H18.0339V13.6674H16.7345L16.7238 9.48964L14.8294 13.6674H13.667L11.7619 9.48964V13.6674H9.08863L8.58183 12.4722H5.84379L5.33803 13.6664H3.90573L6.26027 8.33585ZM19.2228 8.33585H24.5066L26.1227 10.0815L27.7908 8.33585H29.4069L26.9514 11.0155L29.4069 13.6643H27.7175L26.1015 11.8984L24.4248 13.6643H19.2228V8.33585ZM7.21339 9.23793L6.31131 11.3672H8.11442L7.21339 9.23793ZM20.5276 9.43976V10.413H23.4101V11.4978H20.5276V12.5604H23.7608L25.2631 10.9954L23.8245 9.43883H20.5276V9.43976Z" fill="white"/>
</g>
</svg>
