<svg width="12" height="9" viewBox="0 0 12 9" fill="none" xmlns="http://www.w3.org/2000/svg">
<path d="M12 1.08092C11.9413 1.37769 11.7555 1.59197 11.548 1.79921C9.38047 3.96258 7.21484 6.12782 5.05107 8.29491C4.759 8.58845 4.41879 8.71496 4.01929 8.57465C3.86951 8.52004 3.73319 8.43396 3.61949 8.32221C2.51227 7.22633 1.40944 6.12508 0.311023 5.01844C-0.133394 4.57226 -0.0958208 3.93235 0.387049 3.55427C0.763952 3.26073 1.29496 3.31357 1.6704 3.68813C2.51931 4.53488 3.36715 5.38292 4.2139 6.23222C4.24649 6.2651 4.26821 6.30883 4.314 6.37576C4.34496 6.32832 4.37868 6.28275 4.41498 6.23926C6.38364 4.26943 8.35269 2.29979 10.3221 0.330344C10.6078 0.0447311 10.9386 -0.0753253 11.3343 0.0485478C11.6795 0.156863 11.8858 0.400793 11.9762 0.746874C11.983 0.772705 11.9921 0.797949 12 0.823487V1.08092Z" fill="#3D3937"/>
</svg>
