<svg width="35" height="35" viewBox="0 0 35 35" fill="none" xmlns="http://www.w3.org/2000/svg">
<g id="_&#208;&#187;&#208;&#190;&#208;&#185;_1">
<path id="Vector" d="M17.5474 9.82371C20.9362 9.82371 24.3259 9.83374 27.7156 9.81824C28.8358 9.81278 29.6798 10.253 30.3087 11.1727C31.1235 12.3639 31.9639 13.5379 32.7878 14.7274C33.6264 15.935 33.5562 17.3606 32.5709 18.458C28.2324 23.2893 23.8878 28.1158 19.5371 32.9374C18.4269 34.1679 16.6067 34.1287 15.4774 32.8754C11.9841 28.9975 8.49201 25.118 5.00113 21.237C4.1875 20.3304 3.37387 19.4235 2.56024 18.5163C1.51935 17.3524 1.43094 15.9569 2.3187 14.6791C3.14904 13.4841 3.9885 12.2956 4.81884 11.1016C5.42404 10.2311 6.24618 9.81369 7.30985 9.81642C10.7223 9.83009 14.1358 9.82371 17.5474 9.82371ZM11.7815 16.9276L17.499 31.6932H17.5793C19.4824 26.7793 21.3879 21.8574 23.2959 16.9276H11.7815ZM18.4852 32.3513L18.5636 32.3978C18.694 32.2565 18.8261 32.1171 18.9546 31.974L21.8057 28.8039C25.1149 25.1283 28.4226 21.4521 31.7287 17.7753C31.9384 17.5419 32.0805 17.2485 32.282 16.9386C32.1325 16.9249 32.0878 16.9167 32.0432 16.9167C29.5977 16.9167 27.1523 16.9167 24.7078 16.9094C24.4598 16.9094 24.4125 17.0425 24.3432 17.2165C22.6643 21.5575 20.9841 25.8976 19.3028 30.2367C19.0306 30.941 18.7581 31.6458 18.4852 32.3513ZM2.77808 16.9121C2.98863 17.2384 3.11987 17.5173 3.31675 17.737C7.6006 22.5082 11.8884 27.276 16.1802 32.0405C16.2923 32.1654 16.3843 32.3085 16.4864 32.4425L16.5839 32.3632C16.5484 32.2602 16.5156 32.1554 16.4764 32.0542C14.5635 27.1104 12.6522 22.1664 10.7424 17.222C10.6513 16.9777 10.5346 16.9048 10.2794 16.9067C7.92508 16.9167 5.5717 16.9121 3.2174 16.9121H2.77808ZM23.1473 15.8184C23.1297 15.7651 23.1093 15.7128 23.0863 15.6616C22.2559 14.1349 21.4283 12.6064 20.5852 11.087C20.5431 11.0341 20.49 10.9911 20.4296 10.9609C20.3691 10.9306 20.3028 10.914 20.2352 10.912C18.4388 10.9011 16.6414 10.9074 14.8449 10.9001C14.7623 10.8922 14.6793 10.911 14.6082 10.9538C14.5371 10.9967 14.4817 11.0613 14.4502 11.138C13.6518 12.6182 12.8433 14.0921 12.0394 15.5686C12.0002 15.6406 11.9765 15.7218 11.9364 15.8184H23.1473ZM2.88381 15.8266C5.47417 15.8266 7.9743 15.8266 10.4744 15.8166C10.582 15.8166 10.7306 15.6908 10.7889 15.585C11.6028 14.1149 12.4049 12.6392 13.2079 11.1636C13.2479 11.0792 13.2835 10.9928 13.3145 10.9047C11.272 10.9047 9.27222 10.912 7.27248 10.9047C6.59982 10.9047 6.09487 11.1636 5.7148 11.7123C4.94006 12.8333 4.15347 13.9462 3.37508 15.0655C3.21558 15.2934 3.07248 15.534 2.88381 15.8293V15.8266ZM32.1726 15.8266C32.0878 15.6753 32.0414 15.5732 31.9794 15.483C31.0798 14.1859 30.1829 12.8862 29.2751 11.5947C28.946 11.1262 28.4766 10.9038 27.9015 10.9047H22.0026C21.9296 10.9047 21.8567 10.9138 21.7838 10.9184C21.7838 10.974 21.7838 10.9986 21.7929 11.0159C22.6333 12.5654 23.4709 14.1094 24.3231 15.6488C24.3609 15.6984 24.409 15.7392 24.4641 15.7683C24.5191 15.7974 24.5799 15.8142 24.6421 15.8175C25.313 15.833 25.9838 15.8257 26.6537 15.8257L32.1726 15.8266Z" fill="#5C5C5C"/>
<path id="Star 2" d="M9 0L9.53033 2.46967L12 3L9.53033 3.53033L9 6L8.46967 3.53033L6 3L8.46967 2.46967L9 0Z" fill="#5C5C5C"/>
<path id="Star 3" d="M28.3441 4.26986L28.3693 5.75665L29.7354 6.344L28.2486 6.36927L27.6613 7.73535L27.636 6.24856L26.2699 5.66121L27.7567 5.63595L28.3441 4.26986Z" fill="#5C5C5C"/>
</g>
</svg>
