<svg width="45" height="40" viewBox="0 0 45 40" fill="none" xmlns="http://www.w3.org/2000/svg">
<path id="trillion" d="M34.6575 18.2855C21.7585 -0.728149 22.3116 0.0799354 22.2662 0.0453651L22.2165 0.0129633H22.2014L22.1388 0L22.0675 0.0151129C21.9638 0.0561652 9.63079 18.2704 9.61567 18.2942C9.60054 18.3179 -0.00135996 38.1116 0.000800685 38.2045C-0.000266895 38.2124 -0.000266895 38.2204 0.000800685 38.2283C0.00741209 38.2525 0.0153564 38.2763 0.0245778 38.2996C0.0245778 38.2996 0.0375301 38.3169 0.0396907 38.3169C0.0656184 38.3536 0.0591418 38.3428 0.0721056 38.3536C0.182298 38.4638 22.5644 40 22.1431 40C22.1647 40 44.1168 38.4206 44.1946 38.3666C44.1946 38.3666 44.1946 38.3666 44.227 38.3298V38.3169C44.2386 38.2928 44.2473 38.2674 44.253 38.2412C44.294 38.1267 34.6727 18.3071 34.6575 18.2855ZM22.1258 39.5614L9.90304 35.2163L22.1258 34.1814L34.3464 35.2163L22.1258 39.5614ZM9.9765 18.521L19.8485 10.1097C18.5089 12.9682 15.551 19.2686 14.6392 21.2154L7.62787 31.2796C8.21773 28.1186 9.40393 21.6734 9.98514 18.521H9.9765ZM33.7436 31.943L30.2671 22.9115L36.5956 31.9991L33.7436 31.943ZM33.2963 31.984L22.128 33.7471L10.9553 31.984L15.0346 21.4314L22.1431 12.6419L29.2494 21.4314L33.2963 31.984ZM20.3325 33.9005L9.29806 34.8339L10.7695 32.3924L20.3325 33.9005ZM34.96 34.8339L23.9321 33.9027L33.4908 32.3902C34.2643 33.6585 34.2081 33.5829 34.9643 34.8339H34.96ZM22.3937 12.2746L23.7701 9.77475L28.4759 19.8001L22.3937 12.2746ZM20.4924 9.77259L21.8752 12.2746C21.3264 12.9531 16.4908 18.9316 15.7886 19.8023L20.4924 9.77259ZM13.9931 22.9115C13.4141 24.4239 11.4004 29.6095 10.5145 31.943L7.66245 31.9991L13.9931 22.9115ZM23.5605 9.27132C22.8259 10.6023 23.1283 10.0427 22.1344 11.8641L20.7041 9.27132L22.1344 1.43035L23.5605 9.27132ZM7.32539 32.4377L10.2811 32.3902C9.99811 32.8612 10.1926 32.5393 8.75574 34.9182L1.25182 37.6039L7.32539 32.4377ZM35.5132 34.9074L33.9877 32.3902L36.9413 32.4464L43.0192 37.6017L35.5132 34.9074ZM36.628 31.2796L29.6168 21.2154C28.7525 19.368 25.6304 12.7175 24.4053 10.1097L34.2794 18.521C34.8606 21.6756 36.0468 28.1186 36.628 31.2796ZM8.89833 35.3157L20.5658 39.4598L1.2475 38.0554L8.89833 35.3157ZM35.3684 35.3157L43.0279 38.0554L23.7117 39.4598L35.3684 35.3157ZM37.2201 32.1072C35.7746 24.2532 36.5719 28.6004 34.9795 19.9384L43.4233 37.3705L37.2201 32.1072ZM33.4022 17.1987L23.984 9.17625L22.5298 1.18187L33.4022 17.1987ZM20.2785 9.17625L10.8624 17.1987L21.7326 1.18187L20.2785 9.17625ZM7.04018 32.1072L0.839132 37.3705L9.28077 19.9384L7.04018 32.1072Z" fill="#1D1D1B"/>
</svg>
