<svg width="32" height="42" viewBox="0 0 32 42" fill="none" xmlns="http://www.w3.org/2000/svg">
<path id="oval" d="M26.7842 6.17766C20.8845 -2.05922 11.2842 -2.05922 5.38452 6.17766C-2.21127 16.7801 0.401811 34.6761 10.278 40.3932C13.9744 42.5336 18.1902 42.5376 21.8867 40.3932C31.7912 34.6619 34.3556 16.7395 26.7842 6.17766ZM5.3703 35.0899C4.13836 33.2294 3.19001 31.1959 2.55637 29.0563L5.67868 27.2507C5.64217 28.1515 5.44131 33.2458 5.3703 35.0899ZM2.43668 28.6546C1.78501 26.3535 1.43449 23.9776 1.39388 21.5863L5.58943 26.8328L2.43668 28.6546ZM26.8085 6.91006C28.0393 8.77203 28.9875 10.806 29.6225 12.9457L26.5083 14.7452C26.5529 13.5584 26.4393 15.997 26.8085 6.91006ZM21.9942 28.4436L24.023 21.6269L26.0275 26.778L21.9942 28.4436ZM23.7653 21C23.0918 23.2641 22.5258 25.1773 21.4911 28.6587L16.0803 31.7871L10.6675 28.6587C10.1116 26.7861 9.436 24.5118 8.39524 21C9.05256 18.7805 10.2455 14.7676 10.6675 13.3413L16.0803 10.2129L21.4911 13.3413C21.9273 14.798 23.1121 18.7906 23.7653 21ZM8.15786 20.3751L6.15341 15.224C7.7947 14.5586 3.17923 16.4515 10.1806 13.5564L8.15786 20.3751ZM16.4455 9.95527L20.1663 7.13525C20.639 9.41967 19.2979 3.03913 21.3714 12.8037L16.4455 9.95527ZM15.7131 9.95527L10.7892 12.7956L11.9984 7.13525L15.7131 9.95527ZM5.83287 15.5223L7.96919 21L5.83287 26.4879L1.44866 21L5.83287 15.5223ZM11.9963 34.8769L10.7933 29.2085L15.7171 32.0488L11.9963 34.8769ZM16.4597 32.0549L21.3856 29.2146L20.1825 34.883L16.4597 32.0549ZM24.0169 20.3853C23.5686 18.8759 23.8952 19.9795 21.9881 13.5665C27.1027 15.6805 25.4939 15.0232 26.0153 15.2342L24.0169 20.3853ZM26.0924 14.8223L21.8542 13.0695C21.8542 13.0329 20.57 7.01555 20.5598 6.98309L26.4028 6.51647L26.0924 14.8223ZM16.0945 9.73413L12.1465 6.74167L16.0945 0.590377L20.0385 6.73761C18.7076 7.69317 22.6089 4.76968 16.0844 9.72399L16.0945 9.73413ZM6.1656 26.7881C7.59792 23.112 7.1313 24.311 8.17207 21.637C8.45205 22.5845 9.92292 27.5368 10.2009 28.4538L6.1656 26.7881ZM16.0945 32.2862L20.0425 35.2786L16.0945 41.4299L12.1465 35.2786L16.0945 32.2862ZM26.3338 15.5223L30.7241 21L26.3338 26.4879L24.1975 21C25.7941 16.9079 25.36 18.0177 26.3338 15.5223ZM20.2352 6.29736L16.4597 0.413872C18.2483 0.485323 19.9932 0.987841 21.5459 1.87866C21.2253 2.96406 20.5741 5.15515 20.2352 6.29736ZM11.9314 6.29736L10.6208 1.87866C12.1741 0.987528 13.9197 0.484999 15.709 0.413872L11.9314 6.29736ZM11.617 6.96483C11.5561 7.25089 10.3774 12.8017 10.3246 13.0512L6.08647 14.8041L5.75984 6.50836L11.617 6.96483ZM5.66855 14.7452L2.55637 12.9457C3.1896 10.8053 4.13797 8.77113 5.3703 6.91006C5.74766 16.5691 5.62595 13.7775 5.66855 14.7452ZM2.43668 13.3454L5.58943 15.1713L1.39388 20.4177C1.43428 18.0251 1.7848 15.6478 2.43668 13.3454ZM5.75984 35.4856C5.87345 32.625 6.01749 28.9549 6.08647 27.1898L10.3246 28.9407C10.3774 29.1983 11.5561 34.7491 11.617 35.0271L5.75984 35.4856ZM11.9314 35.7026L15.709 41.5861C13.9196 41.516 12.1737 41.0134 10.6208 40.1213L11.9314 35.7026ZM20.2352 35.7026L21.5459 40.1213C19.9936 41.0131 18.2485 41.5156 16.4597 41.5861L20.2352 35.7026ZM20.5497 35.0352C20.6654 34.4955 21.698 29.6264 21.8441 28.9488L26.0802 27.198L26.4028 35.4856L20.5497 35.0352ZM26.49 27.2507L29.6123 29.0563C28.9805 31.1948 28.0357 33.2281 26.8085 35.0899C26.7355 33.5055 26.6057 29.9896 26.49 27.2507ZM26.5793 15.1672L29.73 13.3413C30.3822 15.6424 30.7334 18.0183 30.7748 20.4096C30.2839 19.799 27.4375 16.2425 26.5793 15.1672ZM26.2405 6.12086L20.5822 6.55502L21.907 2.09168C23.598 3.14237 25.0696 4.51062 26.2405 6.12086ZM10.2597 2.08965L11.5845 6.55299L5.92822 6.11883C7.0976 4.50804 8.56867 3.13965 10.2597 2.08965ZM5.92822 35.8791L11.5926 35.445L10.2678 39.9083C8.57429 38.8586 7.10052 37.4902 5.92822 35.8791ZM21.907 39.9104L20.5822 35.447L26.2405 35.8812C25.0703 37.492 23.5986 38.8604 21.907 39.9104ZM29.73 28.6546L26.5772 26.8287L30.7748 21.5823C30.7339 23.975 30.3827 26.3523 29.73 28.6546Z" fill="black"/>
</svg>
