<svg width="24" height="42" viewBox="0 0 24 42" fill="none" xmlns="http://www.w3.org/2000/svg">
<path id="baguette" d="M23.3341 0.203706C23.3341 0.203706 23.3341 0.17936 23.3341 0.16313C23.3258 0.124515 23.3064 0.0891713 23.2783 0.0614225C23.2502 0.0336737 23.2146 0.014735 23.1759 0.00692844C23.1556 0.00692844 0.192731 -0.0174229 0.111583 0.0251798C0.0754409 0.0429705 0.04619 0.0722214 0.0283993 0.108363C-0.0162321 0.19154 0.00405988 41.8103 0.00811728 41.8306C0.0122604 41.855 0.0212075 41.8783 0.0344418 41.8992C0.0476761 41.9201 0.0649345 41.9382 0.0852089 41.9523C0.174472 42.0213 23.1617 42.0051 23.2306 41.9685C23.3909 41.8793 23.3341 44.7824 23.3341 0.203706ZM22.9284 41.3011C22.2893 40.6641 21.0822 39.457 20.4432 38.816V3.17779L22.9284 0.69263V41.3011ZM0.409796 0.69263L2.89495 3.17779V38.816L0.409796 41.3011V0.69263ZM19.7595 3.29544L18.3049 4.75206H5.04131L3.58472 3.29544H19.7595ZM5.1529 36.8359V5.1578H18.1771V36.8359H5.1529ZM3.29257 38.4082V3.58556L4.74716 5.04013V36.9556L3.29257 38.4082ZM3.57659 38.6983L5.03321 37.2417H18.2968L19.7514 38.6983H3.57659ZM18.589 5.04013L20.0436 3.58556V38.4082L18.589 36.9556V5.04013ZM22.6464 0.406576L20.1612 2.8897H3.17898L0.693819 0.406576H22.6464ZM3.17085 39.104H20.1531C20.7942 39.7431 22.0012 40.9501 22.6382 41.5892H0.687727L3.17085 39.104Z" fill="#1D1D1B"/>
</svg>
